if (_typeface_js && _typeface_js.loadFace) _typeface_js.loadFace({"glyphs":{"0":{"ha":857,"x_min":14,"x_max":843,"o":"m 626 979 q 712 966 672 979 q 781 927 751 953 q 826 862 810 901 q 843 771 843 822 q 821 626 843 708 q 760 456 799 543 q 666 283 721 368 q 547 133 611 199 q 408 26 482 67 q 258 -15 335 -15 q 165 0 210 -15 q 88 47 121 15 q 34 127 54 79 q 14 240 14 175 q 42 421 14 331 q 118 593 71 511 q 228 746 165 675 q 358 868 290 817 q 496 949 426 919 q 626 979 565 979 m 593 882 q 515 854 558 882 q 429 778 472 826 q 345 665 386 729 q 273 526 304 600 q 222 374 242 453 q 203 218 203 294 q 232 113 203 149 q 306 76 261 76 q 395 115 351 76 q 478 217 439 154 q 551 358 518 279 q 608 515 585 436 q 646 665 632 593 q 660 786 660 736 q 641 858 660 835 q 593 882 622 882 z "},"1":{"ha":456,"x_min":17,"x_max":553,"o":"m 92 619 q 40 638 63 619 q 17 689 17 657 q 27 735 17 713 q 53 778 38 758 q 84 815 68 799 q 113 843 100 832 q 126 854 121 851 q 136 857 131 857 q 150 843 150 857 q 165 788 150 810 q 208 767 179 767 q 242 769 226 767 q 272 776 258 772 q 301 786 288 781 q 356 875 326 836 q 413 937 381 908 q 482 965 446 965 q 531 945 510 965 q 553 897 553 925 q 522 825 553 868 q 440 742 492 782 q 397 685 424 728 q 338 580 369 642 q 276 442 307 518 q 219 290 244 367 q 178 142 194 214 q 163 14 163 69 q 158 -6 163 1 q 138 -14 154 -14 q 105 -3 125 -14 q 65 26 85 8 q 32 63 46 43 q 18 101 18 83 q 34 196 18 140 q 74 313 50 251 q 127 436 99 375 q 181 548 156 497 q 223 631 206 599 q 243 669 240 664 q 226 660 240 668 q 192 642 213 651 q 144 626 171 633 q 92 619 118 619 z "},"2":{"ha":778,"x_min":-110,"x_max":850,"o":"m 600 979 q 700 965 654 979 q 779 922 746 950 q 831 853 813 893 q 850 764 850 814 q 810 628 850 704 q 706 472 771 551 q 560 313 642 392 q 393 168 478 233 q 473 153 433 158 q 550 147 513 147 q 619 158 589 147 q 672 183 650 169 q 707 208 693 197 q 728 219 721 219 q 744 206 744 219 q 736 181 744 200 q 713 138 728 163 q 676 87 697 114 q 629 38 656 60 q 573 1 603 15 q 511 -14 543 -14 q 396 15 460 -14 q 265 78 332 44 q 141 10 199 35 q 43 -14 83 -14 q -68 24 -26 -14 q -110 111 -110 61 q -98 163 -110 138 q -65 208 -86 189 q -14 240 -43 228 q 51 251 15 251 q 148 237 92 251 q 268 203 204 222 q 404 335 336 260 q 526 492 472 411 q 614 653 581 572 q 647 801 647 733 q 617 872 647 846 q 542 899 586 899 q 456 873 503 899 q 369 805 410 847 q 301 710 328 763 q 274 603 274 657 q 281 556 274 574 q 298 531 288 539 q 318 519 308 522 q 335 517 328 517 q 351 503 351 517 q 344 486 351 496 q 322 466 336 476 q 287 449 308 456 q 239 442 265 442 q 183 451 211 442 q 133 477 156 460 q 95 519 110 494 q 81 576 81 544 q 130 738 81 664 q 256 866 179 813 q 424 949 332 919 q 600 979 515 979 m 50 158 q 3 147 18 158 q -12 121 -12 135 q 3 91 -12 100 q 38 82 19 82 q 96 94 64 82 q 164 128 128 106 q 103 150 132 142 q 50 158 74 158 z "},"3":{"ha":764,"x_min":-33,"x_max":817,"o":"m 572 842 q 626 910 597 879 q 683 958 651 936 q 749 979 714 979 q 799 962 781 979 q 817 915 817 944 q 772 837 817 872 q 643 782 726 801 q 610 751 635 774 q 561 706 586 729 q 497 647 532 679 q 577 636 536 647 q 652 599 618 625 q 708 531 686 572 q 729 426 729 489 q 685 254 729 335 q 573 115 642 174 q 419 21 504 56 q 251 -14 335 -14 q 138 -1 190 -14 q 48 34 86 11 q -12 90 10 57 q -33 161 -33 122 q -6 223 -33 194 q 56 273 21 251 q 121 306 90 294 q 160 318 151 318 q 181 303 181 318 q 178 292 181 296 q 169 281 175 288 q 141 236 158 265 q 124 175 124 207 q 132 137 124 156 q 156 103 140 118 q 194 78 171 88 q 249 68 218 68 q 348 96 299 68 q 437 174 397 124 q 501 293 476 224 q 525 447 525 363 q 498 540 525 506 q 419 575 471 575 q 386 542 407 561 q 339 507 365 524 q 283 478 313 490 q 225 467 254 467 q 178 483 196 467 q 160 525 160 499 q 191 583 160 560 q 260 619 222 606 q 360 644 304 635 l 486 761 q 402 764 454 761 q 300 776 350 767 q 214 805 250 786 q 178 857 178 824 q 203 906 178 883 q 262 945 228 929 q 330 970 296 961 q 381 979 364 979 q 403 961 403 979 q 398 951 403 956 q 388 940 393 946 q 378 926 383 933 q 374 910 374 919 q 390 882 374 894 q 435 860 407 869 q 499 847 464 851 q 572 842 535 842 z "},"4":{"ha":899,"x_min":40,"x_max":1024,"o":"m 493 979 q 584 953 544 979 q 624 872 624 928 q 614 817 624 847 q 588 753 604 786 q 551 688 572 721 q 510 625 531 656 q 397 478 460 553 q 444 456 419 467 q 496 435 467 446 q 560 418 525 425 q 624 565 589 490 q 695 706 660 640 q 765 825 731 772 q 829 907 800 878 q 876 940 849 926 q 930 963 903 954 q 979 975 957 971 q 1011 979 1001 979 q 1024 965 1024 979 q 998 929 1024 957 q 935 843 972 901 q 899 785 924 826 q 842 685 874 743 q 776 558 811 628 q 711 411 742 488 q 786 435 757 419 q 833 465 815 451 q 853 475 846 475 q 864 470 860 475 q 868 461 868 465 q 861 440 868 453 q 831 394 850 422 q 784 338 811 367 q 724 288 757 310 q 656 261 692 267 q 624 131 636 194 q 611 11 611 68 q 588 -14 611 -14 q 552 -5 574 -14 q 510 19 531 4 q 474 56 489 35 q 460 103 460 78 q 474 177 460 126 q 511 294 488 228 q 446 330 478 311 q 387 365 414 349 q 339 393 360 382 q 308 404 318 404 q 257 375 285 388 q 202 356 233 364 q 139 347 171 347 q 71 373 101 347 q 40 435 40 399 q 51 474 40 457 q 79 503 63 492 q 117 519 96 514 q 160 525 139 525 q 208 522 185 525 q 249 517 231 519 q 288 508 269 513 q 369 614 333 558 q 426 717 400 660 q 451 826 451 774 q 436 866 451 851 q 400 881 421 881 q 369 875 385 881 q 341 863 354 869 q 318 851 328 857 q 303 846 308 846 q 289 853 296 846 q 282 867 282 860 q 302 896 282 876 q 353 933 322 915 q 422 965 385 951 q 493 979 460 979 z "},"5":{"ha":715,"x_min":-89,"x_max":825,"o":"m 208 68 q 308 95 260 68 q 391 170 356 122 q 448 282 426 218 q 469 421 469 346 q 456 501 469 471 q 424 546 443 531 q 381 566 404 561 q 338 571 358 571 q 317 568 326 571 q 300 563 307 565 q 283 556 292 558 q 238 489 263 518 q 190 443 217 464 q 136 422 164 422 q 90 440 107 422 q 72 485 72 458 q 92 531 72 508 q 136 571 113 554 q 200 607 164 590 l 292 797 q 260 831 274 814 q 238 863 247 846 q 228 897 228 879 q 254 958 228 938 q 310 979 281 979 q 358 962 340 979 q 386 925 376 944 q 401 871 397 900 q 421 865 410 868 q 442 861 431 863 q 465 860 453 860 q 551 869 507 860 q 635 892 594 878 q 713 926 676 907 q 775 967 749 946 q 803 979 792 979 q 817 972 810 979 q 825 958 825 965 q 821 942 825 950 q 811 925 817 933 q 765 860 792 894 q 706 796 738 825 q 643 747 675 767 q 583 728 611 728 q 524 733 558 728 q 458 746 490 739 q 385 765 422 754 l 322 625 q 342 632 329 628 q 367 637 351 635 q 401 639 382 639 q 497 626 449 639 q 585 586 546 613 q 649 519 624 560 q 674 425 674 479 q 630 253 674 333 q 517 115 586 174 q 364 21 449 56 q 196 -14 279 -14 q 83 -1 135 -14 q -8 34 31 11 q -67 90 -46 57 q -89 161 -89 122 q -62 223 -89 194 q 0 273 -35 251 q 65 306 35 294 q 104 318 96 318 q 125 303 125 318 q 122 292 125 296 q 114 281 119 288 q 85 236 103 265 q 68 175 68 207 q 76 137 68 156 q 102 103 85 118 q 146 78 119 88 q 208 68 172 68 z "},"6":{"ha":783,"x_min":17,"x_max":789,"o":"m 650 979 q 758 953 728 979 q 789 889 789 928 q 772 830 789 858 q 731 778 754 801 q 683 742 707 756 q 647 728 660 728 q 621 751 621 728 q 627 767 621 758 q 640 790 633 776 q 653 819 647 803 q 660 858 660 836 q 649 885 660 874 q 619 896 638 896 q 535 871 581 896 q 445 803 490 846 q 359 701 400 760 q 286 575 318 643 q 235 433 254 507 q 215 286 215 360 q 227 190 215 231 q 259 122 239 149 q 305 83 279 96 q 360 69 331 69 q 446 101 403 69 q 524 183 489 132 q 580 302 558 235 q 601 443 601 369 q 578 507 601 488 q 526 526 554 526 q 428 499 478 526 q 343 435 379 471 q 333 426 339 431 q 324 422 328 422 q 310 427 317 422 q 303 442 303 432 q 331 496 303 461 q 403 564 358 531 q 503 622 447 597 q 615 647 558 647 q 681 638 650 647 q 736 607 713 628 q 774 555 760 586 q 788 481 788 524 q 745 300 788 389 q 636 141 703 211 q 487 28 569 71 q 322 -14 404 -14 q 225 1 278 -14 q 126 53 172 17 q 48 150 79 90 q 17 299 17 210 q 46 467 17 383 q 124 626 75 550 q 238 766 174 701 q 372 878 301 831 q 515 952 443 925 q 650 979 586 979 z "},"7":{"ha":544,"x_min":14,"x_max":736,"o":"m 208 979 q 226 964 226 979 q 214 940 226 956 q 201 903 201 925 q 260 831 201 861 q 456 801 319 801 q 565 921 514 876 q 668 965 615 965 q 717 948 697 965 q 736 900 736 931 q 686 813 736 857 q 540 731 636 769 q 439 589 492 674 q 342 413 386 504 q 268 236 297 322 q 239 92 239 150 q 244 40 239 64 q 250 6 250 17 q 229 -14 250 -14 q 170 -3 201 -14 q 113 27 139 7 q 69 75 86 47 q 51 138 51 103 q 66 208 51 168 q 104 294 81 249 q 158 389 128 340 q 219 483 188 438 q 388 710 293 590 q 261 712 326 710 q 140 724 196 714 q 49 757 85 735 q 14 819 14 779 q 38 878 14 850 q 93 929 61 907 q 158 965 125 951 q 208 979 190 979 z "},"8":{"ha":706,"x_min":-39,"x_max":794,"o":"m 561 979 q 637 970 596 979 q 713 944 678 961 q 771 901 747 926 q 794 842 794 875 q 768 769 794 806 q 698 694 742 732 q 598 617 654 657 q 482 536 542 578 q 526 488 504 513 q 566 438 549 464 q 594 381 583 411 q 604 317 604 351 q 574 169 604 231 q 496 66 544 107 q 387 6 447 25 q 265 -14 326 -14 q 160 -1 214 -14 q 62 37 106 13 q -10 97 18 61 q -39 176 -39 132 q -9 272 -39 226 q 69 358 21 317 q 178 440 117 400 q 303 521 239 481 q 265 561 283 542 q 231 601 246 581 q 208 643 217 621 q 199 692 199 665 q 235 787 199 744 q 319 858 271 829 q 419 903 368 888 q 499 918 469 918 q 529 899 529 918 q 523 884 529 889 q 503 872 517 879 q 472 857 494 868 q 424 828 449 846 q 381 788 400 811 q 363 739 363 765 q 379 665 363 699 q 422 599 396 631 q 502 658 465 628 q 567 722 539 689 q 610 788 594 754 q 626 860 626 822 q 619 892 626 878 q 600 915 611 906 q 577 931 589 925 q 557 942 565 938 q 538 961 538 951 q 561 979 538 979 m 153 136 q 178 80 153 101 q 238 58 204 58 q 303 76 271 58 q 360 126 335 94 q 400 201 385 158 q 415 292 415 243 q 401 378 415 340 q 365 449 388 417 q 282 377 321 414 q 215 301 243 340 q 169 221 186 263 q 153 136 153 179 z "},"9":{"ha":800,"x_min":14,"x_max":842,"o":"m 613 979 q 706 967 664 979 q 778 928 747 954 q 825 863 808 903 q 842 767 842 822 q 811 584 842 676 q 727 405 781 492 q 601 242 674 318 q 444 108 528 165 q 268 19 360 51 q 83 -14 176 -14 q 33 -6 53 -14 q 14 17 14 1 q 22 32 14 25 q 39 39 29 39 q 183 72 111 39 q 321 161 256 106 q 443 290 386 217 q 542 446 500 364 q 607 612 583 528 q 631 774 631 696 q 603 860 631 831 q 535 890 575 890 q 440 860 488 890 q 355 780 393 829 q 293 669 317 731 q 269 546 269 607 q 300 429 269 469 q 375 369 331 389 q 396 358 389 363 q 403 342 403 353 q 356 321 403 321 q 268 335 317 321 q 176 378 219 349 q 103 453 133 407 q 74 563 74 499 q 117 706 74 632 q 233 841 160 781 q 405 940 307 901 q 613 979 503 979 z "},"\u0000":{"ha":0,"x_min":0,"x_max":0,"o":""},"\r":{"ha":319,"x_min":0,"x_max":0,"o":""}," ":{"ha":292,"x_min":0,"x_max":0,"o":""},"Ă":{"ha":1356,"x_min":0,"x_max":1492,"o":"m 1161 -14 q 1086 0 1122 -14 q 1023 39 1050 14 q 980 99 996 64 q 964 178 964 135 q 985 354 964 260 q 896 401 942 375 q 799 456 850 428 q 690 262 739 349 q 590 114 642 175 q 479 19 539 53 q 338 -14 419 -14 q 216 16 276 -14 q 108 97 156 46 q 30 213 60 147 q 0 351 0 279 q 24 478 0 419 q 94 581 49 538 q 203 650 139 625 q 346 675 267 675 q 535 649 442 675 q 718 586 628 622 q 836 769 782 690 q 941 901 890 849 q 1041 979 992 953 q 1144 1006 1090 1006 q 1218 989 1188 1006 q 1256 965 1249 972 q 1315 990 1285 983 q 1368 996 1346 996 q 1410 976 1410 996 q 1402 960 1410 969 q 1376 931 1394 951 q 1338 865 1363 914 q 1286 747 1314 815 q 1229 599 1258 679 q 1176 438 1200 518 l 1193 438 q 1230 443 1213 438 q 1262 455 1247 449 q 1287 467 1276 461 q 1304 472 1297 472 q 1313 468 1308 472 q 1317 456 1317 464 q 1302 425 1317 446 q 1264 382 1288 404 q 1210 340 1240 360 q 1146 315 1179 321 q 1133 238 1138 275 q 1128 171 1128 201 q 1151 101 1128 122 q 1207 79 1175 79 q 1262 97 1235 79 q 1310 139 1289 115 q 1356 199 1335 164 q 1363 208 1357 203 q 1371 215 1365 211 q 1383 218 1376 218 q 1403 210 1394 218 q 1413 190 1413 201 q 1410 180 1413 185 q 1406 169 1408 175 q 1400 157 1403 164 q 1332 71 1369 108 q 1256 13 1300 39 q 1161 -14 1213 -14 m 306 126 q 397 150 356 126 q 481 222 439 174 q 570 342 524 269 q 675 513 617 415 q 566 547 622 533 q 450 560 510 560 q 215 488 300 560 q 131 297 131 417 q 144 228 131 260 q 182 174 158 196 q 238 139 206 151 q 306 126 269 126 m 843 533 q 930 499 888 515 q 1014 469 972 482 q 1055 591 1032 531 q 1101 708 1078 651 q 1149 814 1125 764 q 1196 904 1174 864 l 1206 921 q 1192 925 1199 924 q 1175 926 1186 926 q 1103 904 1138 926 q 1031 835 1069 882 q 948 713 993 788 q 843 533 903 638 m 1274 1063 q 1148 1100 1197 1063 q 1099 1204 1099 1138 q 1123 1263 1099 1243 q 1175 1283 1147 1283 q 1218 1240 1218 1283 q 1216 1225 1218 1231 q 1212 1215 1214 1219 q 1208 1204 1210 1210 q 1206 1190 1206 1199 q 1227 1159 1206 1171 q 1283 1147 1249 1147 q 1353 1167 1332 1147 q 1375 1214 1375 1188 q 1392 1265 1375 1250 q 1436 1281 1408 1281 q 1476 1266 1460 1281 q 1492 1226 1492 1251 q 1465 1151 1492 1190 q 1397 1091 1443 1119 q 1274 1063 1350 1063 z "},"Â":{"ha":1356,"x_min":0,"x_max":1433,"o":"m 1161 -14 q 1086 0 1122 -14 q 1023 39 1050 14 q 980 99 996 64 q 964 178 964 135 q 985 354 964 260 q 896 401 942 375 q 799 456 850 428 q 690 262 739 349 q 590 114 642 175 q 479 19 539 53 q 338 -14 419 -14 q 216 16 276 -14 q 108 97 156 46 q 30 213 60 147 q 0 351 0 279 q 24 478 0 419 q 94 581 49 538 q 203 650 139 625 q 346 675 267 675 q 535 649 442 675 q 718 586 628 622 q 836 769 782 690 q 941 901 890 849 q 1041 979 992 953 q 1144 1006 1090 1006 q 1218 989 1188 1006 q 1256 965 1249 972 q 1315 990 1285 983 q 1368 996 1346 996 q 1410 976 1410 996 q 1402 960 1410 969 q 1376 931 1394 951 q 1338 865 1363 914 q 1286 747 1314 815 q 1229 599 1258 679 q 1176 438 1200 518 l 1193 438 q 1230 443 1213 438 q 1262 455 1247 449 q 1287 467 1276 461 q 1304 472 1297 472 q 1313 468 1308 472 q 1317 456 1317 464 q 1302 425 1317 446 q 1264 382 1288 404 q 1210 340 1240 360 q 1146 315 1179 321 q 1133 238 1138 275 q 1128 171 1128 201 q 1151 101 1128 122 q 1207 79 1175 79 q 1262 97 1235 79 q 1310 139 1289 115 q 1356 199 1335 164 q 1363 208 1357 203 q 1371 215 1365 211 q 1383 218 1376 218 q 1403 210 1394 218 q 1413 190 1413 201 q 1410 180 1413 185 q 1406 169 1408 175 q 1400 157 1403 164 q 1332 71 1369 108 q 1256 13 1300 39 q 1161 -14 1213 -14 m 306 126 q 397 150 356 126 q 481 222 439 174 q 570 342 524 269 q 675 513 617 415 q 566 547 622 533 q 450 560 510 560 q 215 488 300 560 q 131 297 131 417 q 144 228 131 260 q 182 174 158 196 q 238 139 206 151 q 306 126 269 126 m 843 533 q 930 499 888 515 q 1014 469 972 482 q 1055 591 1032 531 q 1101 708 1078 651 q 1149 814 1125 764 q 1196 904 1174 864 l 1206 921 q 1192 925 1199 924 q 1175 926 1186 926 q 1103 904 1138 926 q 1031 835 1069 882 q 948 713 993 788 q 843 533 903 638 m 1242 1143 q 1233 1140 1239 1143 q 1222 1135 1228 1138 q 1172 1108 1199 1121 q 1122 1084 1146 1094 q 1081 1067 1099 1074 q 1057 1060 1064 1060 q 1039 1067 1046 1060 q 1032 1083 1032 1075 q 1054 1117 1032 1101 q 1120 1165 1090 1140 q 1190 1232 1150 1189 q 1219 1265 1206 1251 q 1260 1279 1232 1279 q 1283 1275 1275 1279 q 1296 1264 1290 1271 q 1306 1247 1301 1257 q 1317 1226 1310 1238 q 1362 1164 1339 1190 q 1408 1118 1385 1138 q 1428 1103 1422 1108 q 1433 1086 1433 1097 q 1426 1069 1433 1078 q 1407 1060 1418 1060 q 1388 1063 1401 1060 q 1353 1075 1374 1067 q 1308 1098 1333 1083 q 1257 1135 1283 1113 q 1242 1143 1249 1143 z "},"Ä":{"ha":1356,"x_min":0,"x_max":1449,"o":"m 1161 -14 q 1086 0 1122 -14 q 1023 39 1050 14 q 980 99 996 64 q 964 178 964 135 q 985 354 964 260 q 896 401 942 375 q 799 456 850 428 q 690 262 739 349 q 590 114 642 175 q 479 19 539 53 q 338 -14 419 -14 q 216 16 276 -14 q 108 97 156 46 q 30 213 60 147 q 0 351 0 279 q 24 478 0 419 q 94 581 49 538 q 203 650 139 625 q 346 675 267 675 q 535 649 442 675 q 718 586 628 622 q 836 769 782 690 q 941 901 890 849 q 1041 979 992 953 q 1144 1006 1090 1006 q 1218 989 1188 1006 q 1256 965 1249 972 q 1315 990 1285 983 q 1368 996 1346 996 q 1410 976 1410 996 q 1402 960 1410 969 q 1376 931 1394 951 q 1338 865 1363 914 q 1286 747 1314 815 q 1229 599 1258 679 q 1176 438 1200 518 l 1193 438 q 1230 443 1213 438 q 1262 455 1247 449 q 1287 467 1276 461 q 1304 472 1297 472 q 1313 468 1308 472 q 1317 456 1317 464 q 1302 425 1317 446 q 1264 382 1288 404 q 1210 340 1240 360 q 1146 315 1179 321 q 1133 238 1138 275 q 1128 171 1128 201 q 1151 101 1128 122 q 1207 79 1175 79 q 1262 97 1235 79 q 1310 139 1289 115 q 1356 199 1335 164 q 1363 208 1357 203 q 1371 215 1365 211 q 1383 218 1376 218 q 1403 210 1394 218 q 1413 190 1413 201 q 1410 180 1413 185 q 1406 169 1408 175 q 1400 157 1403 164 q 1332 71 1369 108 q 1256 13 1300 39 q 1161 -14 1213 -14 m 306 126 q 397 150 356 126 q 481 222 439 174 q 570 342 524 269 q 675 513 617 415 q 566 547 622 533 q 450 560 510 560 q 215 488 300 560 q 131 297 131 417 q 144 228 131 260 q 182 174 158 196 q 238 139 206 151 q 306 126 269 126 m 843 533 q 930 499 888 515 q 1014 469 972 482 q 1055 591 1032 531 q 1101 708 1078 651 q 1149 814 1125 764 q 1196 904 1174 864 l 1206 921 q 1192 925 1199 924 q 1175 926 1186 926 q 1103 904 1138 926 q 1031 835 1069 882 q 948 713 993 788 q 843 533 903 638 m 1294 1149 q 1302 1185 1294 1167 q 1323 1219 1310 1204 q 1353 1245 1336 1235 q 1390 1256 1371 1256 q 1433 1236 1417 1256 q 1449 1189 1449 1217 q 1442 1151 1449 1171 q 1422 1117 1435 1132 q 1390 1091 1408 1101 q 1350 1081 1372 1081 q 1310 1100 1326 1081 q 1294 1149 1294 1119 m 1093 1149 q 1101 1185 1093 1167 q 1122 1219 1108 1204 q 1152 1245 1135 1235 q 1189 1256 1169 1256 q 1231 1236 1215 1256 q 1247 1189 1247 1217 q 1240 1151 1247 1171 q 1220 1117 1233 1132 q 1189 1091 1207 1101 q 1149 1081 1171 1081 q 1109 1100 1125 1081 q 1093 1149 1093 1119 z "},"À":{"ha":1356,"x_min":0,"x_max":1413,"o":"m 1161 -14 q 1086 0 1122 -14 q 1023 39 1050 14 q 980 99 996 64 q 964 178 964 135 q 985 354 964 260 q 896 401 942 375 q 799 456 850 428 q 690 262 739 349 q 590 114 642 175 q 479 19 539 53 q 338 -14 419 -14 q 216 16 276 -14 q 108 97 156 46 q 30 213 60 147 q 0 351 0 279 q 24 478 0 419 q 94 581 49 538 q 203 650 139 625 q 346 675 267 675 q 535 649 442 675 q 718 586 628 622 q 836 769 782 690 q 941 901 890 849 q 1041 979 992 953 q 1144 1006 1090 1006 q 1218 989 1188 1006 q 1256 965 1249 972 q 1315 990 1285 983 q 1368 996 1346 996 q 1410 976 1410 996 q 1402 960 1410 969 q 1376 931 1394 951 q 1338 865 1363 914 q 1286 747 1314 815 q 1229 599 1258 679 q 1176 438 1200 518 l 1193 438 q 1230 443 1213 438 q 1262 455 1247 449 q 1287 467 1276 461 q 1304 472 1297 472 q 1313 468 1308 472 q 1317 456 1317 464 q 1302 425 1317 446 q 1264 382 1288 404 q 1210 340 1240 360 q 1146 315 1179 321 q 1133 238 1138 275 q 1128 171 1128 201 q 1151 101 1128 122 q 1207 79 1175 79 q 1262 97 1235 79 q 1310 139 1289 115 q 1356 199 1335 164 q 1363 208 1357 203 q 1371 215 1365 211 q 1383 218 1376 218 q 1403 210 1394 218 q 1413 190 1413 201 q 1410 180 1413 185 q 1406 169 1408 175 q 1400 157 1403 164 q 1332 71 1369 108 q 1256 13 1300 39 q 1161 -14 1213 -14 m 306 126 q 397 150 356 126 q 481 222 439 174 q 570 342 524 269 q 675 513 617 415 q 566 547 622 533 q 450 560 510 560 q 215 488 300 560 q 131 297 131 417 q 144 228 131 260 q 182 174 158 196 q 238 139 206 151 q 306 126 269 126 m 843 533 q 930 499 888 515 q 1014 469 972 482 q 1055 591 1032 531 q 1101 708 1078 651 q 1149 814 1125 764 q 1196 904 1174 864 l 1206 921 q 1192 925 1199 924 q 1175 926 1186 926 q 1103 904 1138 926 q 1031 835 1069 882 q 948 713 993 788 q 843 533 903 638 m 1136 1296 q 1169 1268 1158 1296 q 1194 1218 1179 1244 q 1226 1169 1208 1192 q 1263 1127 1244 1146 q 1296 1099 1281 1108 q 1314 1086 1310 1092 q 1318 1072 1318 1081 q 1312 1058 1318 1064 q 1293 1051 1306 1051 q 1253 1059 1278 1051 q 1201 1080 1229 1067 q 1147 1110 1174 1093 q 1097 1146 1119 1126 q 1070 1176 1076 1164 q 1064 1204 1064 1188 q 1072 1231 1064 1215 q 1092 1262 1081 1247 q 1115 1286 1103 1276 q 1136 1296 1128 1296 z "},"Ā":{"ha":1356,"x_min":0,"x_max":1469,"o":"m 1161 -14 q 1086 0 1122 -14 q 1023 39 1050 14 q 980 99 996 64 q 964 178 964 135 q 985 354 964 260 q 896 401 942 375 q 799 456 850 428 q 690 262 739 349 q 590 114 642 175 q 479 19 539 53 q 338 -14 419 -14 q 216 16 276 -14 q 108 97 156 46 q 30 213 60 147 q 0 351 0 279 q 24 478 0 419 q 94 581 49 538 q 203 650 139 625 q 346 675 267 675 q 535 649 442 675 q 718 586 628 622 q 836 769 782 690 q 941 901 890 849 q 1041 979 992 953 q 1144 1006 1090 1006 q 1218 989 1188 1006 q 1256 965 1249 972 q 1315 990 1285 983 q 1368 996 1346 996 q 1410 976 1410 996 q 1402 960 1410 969 q 1376 931 1394 951 q 1338 865 1363 914 q 1286 747 1314 815 q 1229 599 1258 679 q 1176 438 1200 518 l 1193 438 q 1230 443 1213 438 q 1262 455 1247 449 q 1287 467 1276 461 q 1304 472 1297 472 q 1313 468 1308 472 q 1317 456 1317 464 q 1302 425 1317 446 q 1264 382 1288 404 q 1210 340 1240 360 q 1146 315 1179 321 q 1133 238 1138 275 q 1128 171 1128 201 q 1151 101 1128 122 q 1207 79 1175 79 q 1262 97 1235 79 q 1310 139 1289 115 q 1356 199 1335 164 q 1363 208 1357 203 q 1371 215 1365 211 q 1383 218 1376 218 q 1403 210 1394 218 q 1413 190 1413 201 q 1410 180 1413 185 q 1406 169 1408 175 q 1400 157 1403 164 q 1332 71 1369 108 q 1256 13 1300 39 q 1161 -14 1213 -14 m 306 126 q 397 150 356 126 q 481 222 439 174 q 570 342 524 269 q 675 513 617 415 q 566 547 622 533 q 450 560 510 560 q 215 488 300 560 q 131 297 131 417 q 144 228 131 260 q 182 174 158 196 q 238 139 206 151 q 306 126 269 126 m 843 533 q 930 499 888 515 q 1014 469 972 482 q 1055 591 1032 531 q 1101 708 1078 651 q 1149 814 1125 764 q 1196 904 1174 864 l 1206 921 q 1192 925 1199 924 q 1175 926 1186 926 q 1103 904 1138 926 q 1031 835 1069 882 q 948 713 993 788 q 843 533 903 638 m 1068 1076 q 1046 1099 1046 1076 q 1049 1119 1046 1106 q 1058 1147 1053 1133 q 1072 1172 1064 1161 q 1089 1182 1079 1182 l 1443 1182 q 1464 1178 1458 1182 q 1469 1161 1469 1174 q 1465 1140 1469 1154 q 1455 1111 1461 1125 q 1440 1087 1449 1097 q 1422 1076 1432 1076 l 1068 1076 z "},"Ą":{"ha":1356,"x_min":0,"x_max":1413,"o":"m 1144 1006 q 1218 989 1188 1006 q 1256 965 1249 972 q 1315 990 1285 983 q 1368 996 1346 996 q 1410 976 1410 996 q 1402 960 1410 969 q 1376 931 1394 951 q 1338 865 1363 914 q 1286 747 1314 815 q 1229 599 1258 679 q 1176 438 1200 518 l 1193 438 q 1230 443 1213 438 q 1262 455 1247 449 q 1287 467 1276 461 q 1304 472 1297 472 q 1313 468 1308 472 q 1317 456 1317 464 q 1302 425 1317 446 q 1264 382 1288 404 q 1210 340 1240 360 q 1146 315 1179 321 q 1133 238 1138 275 q 1128 171 1128 201 q 1151 101 1128 122 q 1207 79 1175 79 q 1262 97 1235 79 q 1310 139 1289 115 q 1356 199 1335 164 q 1363 208 1357 203 q 1371 215 1365 211 q 1383 218 1376 218 q 1403 210 1394 218 q 1413 190 1413 201 q 1410 180 1413 185 q 1406 169 1408 175 q 1400 157 1403 164 q 1342 82 1374 117 q 1276 26 1314 53 q 1194 -10 1239 -1 q 1170 -26 1183 -17 q 1145 -47 1157 -35 q 1125 -72 1133 -58 q 1117 -101 1117 -85 q 1144 -151 1117 -128 q 1224 -174 1171 -174 q 1240 -176 1233 -174 q 1247 -187 1247 -179 q 1241 -205 1247 -196 q 1226 -222 1235 -214 q 1180 -259 1208 -242 q 1124 -276 1151 -276 q 1083 -265 1104 -276 q 1046 -234 1063 -253 q 1018 -192 1029 -215 q 1007 -146 1007 -169 q 1038 -62 1007 -97 q 1106 -6 1069 -28 q 1005 58 1046 10 q 964 178 964 107 q 985 354 964 260 q 896 401 942 375 q 799 456 850 428 q 690 262 739 349 q 590 114 642 175 q 479 19 539 53 q 338 -14 419 -14 q 216 16 276 -14 q 108 97 156 46 q 30 213 60 147 q 0 351 0 279 q 24 478 0 419 q 94 581 49 538 q 203 650 139 625 q 346 675 267 675 q 535 649 442 675 q 718 586 628 622 q 836 769 782 690 q 941 901 890 849 q 1041 979 992 953 q 1144 1006 1090 1006 m 306 126 q 397 150 356 126 q 481 222 439 174 q 570 342 524 269 q 675 513 617 415 q 566 547 622 533 q 450 560 510 560 q 215 488 300 560 q 131 297 131 417 q 144 228 131 260 q 182 174 158 196 q 238 139 206 151 q 306 126 269 126 m 843 533 q 930 499 888 515 q 1014 469 972 482 q 1055 591 1032 531 q 1101 708 1078 651 q 1149 814 1125 764 q 1196 904 1174 864 l 1206 921 q 1192 925 1199 924 q 1175 926 1186 926 q 1103 904 1138 926 q 1031 835 1069 882 q 948 713 993 788 q 843 533 903 638 z "},"Å":{"ha":1356,"x_min":0,"x_max":1413,"o":"m 1161 -14 q 1086 0 1122 -14 q 1023 39 1050 14 q 980 99 996 64 q 964 178 964 135 q 985 354 964 260 q 896 401 942 375 q 799 456 850 428 q 690 262 739 349 q 590 114 642 175 q 479 19 539 53 q 338 -14 419 -14 q 216 16 276 -14 q 108 97 156 46 q 30 213 60 147 q 0 351 0 279 q 24 478 0 419 q 94 581 49 538 q 203 650 139 625 q 346 675 267 675 q 535 649 442 675 q 718 586 628 622 q 836 769 782 690 q 941 901 890 849 q 1041 979 992 953 q 1144 1006 1090 1006 q 1218 989 1188 1006 q 1256 965 1249 972 q 1315 990 1285 983 q 1368 996 1346 996 q 1410 976 1410 996 q 1402 960 1410 969 q 1376 931 1394 951 q 1338 865 1363 914 q 1286 747 1314 815 q 1229 599 1258 679 q 1176 438 1200 518 l 1193 438 q 1230 443 1213 438 q 1262 455 1247 449 q 1287 467 1276 461 q 1304 472 1297 472 q 1313 468 1308 472 q 1317 456 1317 464 q 1302 425 1317 446 q 1264 382 1288 404 q 1210 340 1240 360 q 1146 315 1179 321 q 1133 238 1138 275 q 1128 171 1128 201 q 1151 101 1128 122 q 1207 79 1175 79 q 1262 97 1235 79 q 1310 139 1289 115 q 1356 199 1335 164 q 1363 208 1357 203 q 1371 215 1365 211 q 1383 218 1376 218 q 1403 210 1394 218 q 1413 190 1413 201 q 1410 180 1413 185 q 1406 169 1408 175 q 1400 157 1403 164 q 1332 71 1369 108 q 1256 13 1300 39 q 1161 -14 1213 -14 m 306 126 q 397 150 356 126 q 481 222 439 174 q 570 342 524 269 q 675 513 617 415 q 566 547 622 533 q 450 560 510 560 q 215 488 300 560 q 131 297 131 417 q 144 228 131 260 q 182 174 158 196 q 238 139 206 151 q 306 126 269 126 m 1121 1206 q 1163 1308 1121 1267 q 1265 1350 1204 1350 q 1368 1308 1326 1350 q 1410 1206 1410 1267 q 1368 1103 1410 1144 q 1265 1061 1326 1061 q 1163 1103 1204 1061 q 1121 1206 1121 1144 m 843 533 q 930 499 888 515 q 1014 469 972 482 q 1055 591 1032 531 q 1101 708 1078 651 q 1149 814 1125 764 q 1196 904 1174 864 l 1206 921 q 1192 925 1199 924 q 1175 926 1186 926 q 1103 904 1138 926 q 1031 835 1069 882 q 948 713 993 788 q 843 533 903 638 m 1204 1206 q 1222 1163 1204 1181 q 1265 1144 1240 1144 q 1307 1163 1290 1144 q 1324 1206 1324 1181 q 1307 1247 1324 1231 q 1265 1264 1290 1264 q 1222 1247 1240 1264 q 1204 1206 1204 1231 z "},"Ã":{"ha":1356,"x_min":0,"x_max":1492,"o":"m 1161 -14 q 1086 0 1122 -14 q 1023 39 1050 14 q 980 99 996 64 q 964 178 964 135 q 985 354 964 260 q 896 401 942 375 q 799 456 850 428 q 690 262 739 349 q 590 114 642 175 q 479 19 539 53 q 338 -14 419 -14 q 216 16 276 -14 q 108 97 156 46 q 30 213 60 147 q 0 351 0 279 q 24 478 0 419 q 94 581 49 538 q 203 650 139 625 q 346 675 267 675 q 535 649 442 675 q 718 586 628 622 q 836 769 782 690 q 941 901 890 849 q 1041 979 992 953 q 1144 1006 1090 1006 q 1218 989 1188 1006 q 1256 965 1249 972 q 1315 990 1285 983 q 1368 996 1346 996 q 1410 976 1410 996 q 1402 960 1410 969 q 1376 931 1394 951 q 1338 865 1363 914 q 1286 747 1314 815 q 1229 599 1258 679 q 1176 438 1200 518 l 1193 438 q 1230 443 1213 438 q 1262 455 1247 449 q 1287 467 1276 461 q 1304 472 1297 472 q 1313 468 1308 472 q 1317 456 1317 464 q 1302 425 1317 446 q 1264 382 1288 404 q 1210 340 1240 360 q 1146 315 1179 321 q 1133 238 1138 275 q 1128 171 1128 201 q 1151 101 1128 122 q 1207 79 1175 79 q 1262 97 1235 79 q 1310 139 1289 115 q 1356 199 1335 164 q 1363 208 1357 203 q 1371 215 1365 211 q 1383 218 1376 218 q 1403 210 1394 218 q 1413 190 1413 201 q 1410 180 1413 185 q 1406 169 1408 175 q 1400 157 1403 164 q 1332 71 1369 108 q 1256 13 1300 39 q 1161 -14 1213 -14 m 306 126 q 397 150 356 126 q 481 222 439 174 q 570 342 524 269 q 675 513 617 415 q 566 547 622 533 q 450 560 510 560 q 215 488 300 560 q 131 297 131 417 q 144 228 131 260 q 182 174 158 196 q 238 139 206 151 q 306 126 269 126 m 843 533 q 930 499 888 515 q 1014 469 972 482 q 1055 591 1032 531 q 1101 708 1078 651 q 1149 814 1125 764 q 1196 904 1174 864 l 1206 921 q 1192 925 1199 924 q 1175 926 1186 926 q 1103 904 1138 926 q 1031 835 1069 882 q 948 713 993 788 q 843 533 903 638 m 1350 1049 q 1293 1056 1325 1049 q 1228 1074 1261 1064 q 1163 1091 1194 1083 q 1107 1099 1132 1099 q 1057 1085 1081 1099 q 1022 1071 1033 1071 q 1010 1076 1015 1071 q 1004 1089 1004 1081 q 1009 1105 1004 1096 q 1019 1121 1014 1114 q 1042 1149 1028 1133 q 1074 1176 1057 1164 q 1109 1198 1090 1189 q 1146 1207 1128 1207 q 1201 1199 1171 1207 q 1261 1181 1231 1190 q 1322 1163 1292 1171 q 1378 1154 1351 1154 q 1409 1159 1394 1154 q 1436 1170 1424 1164 q 1458 1181 1449 1176 q 1474 1186 1468 1186 q 1486 1183 1481 1186 q 1492 1172 1492 1179 q 1489 1158 1492 1165 q 1483 1146 1486 1151 q 1426 1080 1460 1111 q 1350 1049 1393 1049 z "},"B":{"ha":1178,"x_min":0,"x_max":1156,"o":"m 864 526 q 929 578 900 547 q 974 642 953 604 q 994 732 994 679 q 974 815 994 779 q 918 876 953 851 q 839 914 883 901 q 747 926 794 926 q 576 901 651 926 q 448 834 500 876 q 369 735 396 792 q 342 615 342 678 q 352 562 342 583 q 376 526 363 540 q 399 502 389 511 q 410 486 410 493 q 381 460 410 460 q 315 472 353 460 q 242 508 276 485 q 184 563 208 531 q 160 638 160 596 q 210 783 160 715 q 344 899 261 850 q 533 977 426 949 q 750 1006 639 1006 q 902 989 829 1006 q 1031 938 975 972 q 1122 853 1088 904 q 1156 736 1156 803 q 1141 661 1156 696 q 1105 598 1126 626 q 1058 548 1083 569 q 1011 511 1033 526 q 973 488 989 496 q 954 479 957 479 q 981 466 956 479 q 1035 426 1006 453 q 1088 356 1064 399 q 1113 250 1113 313 q 1083 131 1113 181 q 1008 49 1054 81 q 906 1 963 17 q 796 -14 850 -14 q 617 19 701 -14 q 456 93 532 53 q 353 13 408 40 q 222 -14 297 -14 q 140 -3 179 -14 q 69 29 100 8 q 19 79 38 50 q 0 144 0 108 q 17 214 0 183 q 59 265 33 244 q 116 297 85 286 q 178 308 147 308 q 284 290 232 308 q 388 246 336 272 l 403 272 q 443 358 422 307 q 485 465 464 408 q 528 578 507 521 q 568 684 549 636 q 606 766 588 732 q 638 808 624 800 q 735 853 688 842 q 807 865 783 865 q 826 860 822 865 q 831 846 831 854 q 803 806 831 838 q 750 718 775 774 q 724 648 743 703 q 678 521 706 593 q 617 370 650 449 q 549 231 583 292 q 532 201 540 215 q 515 174 524 188 q 629 118 574 142 q 743 94 685 94 q 817 108 782 94 q 878 146 851 121 q 922 206 906 171 q 938 286 938 242 q 909 394 938 354 q 851 436 881 433 q 828 428 840 432 q 804 422 817 425 q 781 419 792 419 q 728 435 750 419 q 707 479 707 451 q 728 526 707 510 q 778 542 750 542 q 808 539 793 542 q 835 533 822 536 q 864 526 850 529 m 188 203 q 135 182 156 203 q 114 133 114 161 q 138 88 114 106 q 196 71 163 71 q 270 92 239 71 q 333 158 301 114 q 257 190 293 178 q 188 203 221 203 z "},"C":{"ha":915,"x_min":0,"x_max":1018,"o":"m 601 -40 q 472 -20 536 -40 q 358 41 408 0 q 275 145 307 82 q 243 296 243 208 q 249 374 243 335 q 265 451 254 413 q 154 491 203 467 q 71 545 106 515 q 18 608 36 575 q 0 675 0 642 q 35 783 0 733 q 119 869 71 833 q 217 926 167 906 q 296 947 267 947 q 319 932 319 947 q 313 917 319 922 q 293 901 306 911 q 259 874 278 890 q 224 835 240 858 q 196 781 207 813 q 185 707 185 750 q 208 616 185 661 q 296 543 231 571 q 397 722 335 638 q 530 869 458 806 q 677 969 601 932 q 819 1006 753 1006 q 898 986 861 1006 q 961 938 935 967 q 1003 874 988 908 q 1018 811 1018 840 q 978 692 1018 757 q 866 569 939 626 q 690 474 793 513 q 457 432 586 435 q 440 292 440 361 q 494 101 440 158 q 647 43 547 43 q 722 56 685 43 q 795 89 760 68 q 861 138 831 110 q 915 199 892 167 q 922 208 917 203 q 931 215 925 211 q 943 218 936 218 q 964 210 956 218 q 972 190 972 201 q 970 180 972 185 q 965 169 968 175 q 960 157 963 164 q 901 86 936 121 q 821 23 867 51 q 720 -23 775 -6 q 601 -40 665 -40 m 835 911 q 739 879 789 911 q 641 792 689 847 q 551 666 593 738 q 482 515 510 594 q 652 553 576 518 q 781 640 728 589 q 861 750 833 692 q 889 858 889 808 q 875 897 889 882 q 835 911 861 911 z "},"Æ":{"ha":1599,"x_min":0,"x_max":1733,"o":"m 1294 932 q 1408 987 1343 968 q 1554 1006 1472 1006 q 1624 997 1592 1006 q 1681 972 1657 988 q 1719 933 1706 956 q 1733 882 1733 910 q 1714 826 1733 854 q 1669 776 1694 799 q 1618 740 1643 754 q 1583 726 1593 726 q 1565 731 1571 726 q 1560 743 1560 736 q 1569 767 1560 753 q 1590 799 1579 781 q 1611 842 1601 818 q 1621 897 1621 867 q 1600 933 1621 919 q 1550 946 1579 946 q 1474 926 1513 946 q 1405 874 1436 907 q 1354 794 1374 840 q 1335 693 1335 747 q 1340 646 1335 667 q 1351 610 1344 625 q 1368 578 1358 592 q 1394 582 1379 579 q 1424 585 1407 583 q 1464 586 1442 586 q 1546 538 1546 586 q 1522 495 1546 517 q 1457 474 1497 474 q 1411 477 1432 474 q 1375 486 1390 481 q 1344 500 1358 492 q 1253 428 1293 469 q 1190 339 1218 392 q 1161 215 1161 286 q 1208 85 1161 128 q 1343 43 1256 43 q 1417 58 1381 43 q 1488 94 1454 72 q 1549 144 1521 117 q 1599 199 1578 172 q 1607 208 1601 203 q 1616 215 1611 211 q 1628 218 1621 218 q 1649 210 1640 218 q 1657 190 1657 201 q 1654 180 1657 185 q 1649 169 1651 175 q 1642 157 1644 164 q 1590 95 1622 129 q 1513 31 1557 61 q 1414 -19 1468 1 q 1296 -40 1360 -40 q 1179 -26 1238 -40 q 1074 18 1121 -12 q 998 97 1028 49 q 968 211 968 144 q 975 276 968 242 q 981 315 978 296 q 988 353 985 333 q 898 401 944 374 q 799 456 851 428 q 690 262 739 349 q 590 114 642 175 q 479 19 539 53 q 338 -14 419 -14 q 216 16 276 -14 q 108 97 156 46 q 30 213 60 147 q 0 351 0 279 q 24 478 0 419 q 94 581 49 538 q 203 650 139 625 q 346 675 267 675 q 535 649 442 675 q 718 586 628 622 q 836 769 782 690 q 941 901 890 849 q 1041 979 992 953 q 1144 1006 1090 1006 q 1190 995 1165 1006 q 1237 972 1215 985 q 1274 947 1258 958 q 1294 932 1290 935 m 306 126 q 397 150 356 126 q 481 222 439 174 q 570 342 524 269 q 675 513 617 415 q 566 547 622 533 q 450 560 510 560 q 215 488 300 560 q 131 297 131 417 q 144 228 131 260 q 182 174 158 196 q 238 139 206 151 q 306 126 269 126 m 1206 921 q 1192 925 1199 924 q 1175 926 1186 926 q 1103 904 1138 926 q 1031 835 1069 882 q 948 713 993 788 q 843 533 903 638 q 931 499 888 515 q 1015 468 974 482 q 1055 590 1033 529 q 1101 706 1076 650 q 1149 813 1125 763 q 1196 904 1174 863 l 1206 921 m 1203 525 q 1242 542 1226 536 q 1260 549 1257 547 q 1247 556 1258 549 q 1221 575 1236 563 l 1203 525 z "},"Ć":{"ha":915,"x_min":0,"x_max":1018,"o":"m 601 -40 q 472 -20 536 -40 q 358 41 408 0 q 275 145 307 82 q 243 296 243 208 q 249 374 243 335 q 265 451 254 413 q 154 491 203 467 q 71 545 106 515 q 18 608 36 575 q 0 675 0 642 q 35 783 0 733 q 119 869 71 833 q 217 926 167 906 q 296 947 267 947 q 319 932 319 947 q 312 917 319 922 q 293 901 304 911 q 259 874 278 890 q 224 835 240 858 q 196 781 207 813 q 185 707 185 750 q 208 616 185 661 q 296 543 231 571 q 397 722 335 638 q 530 869 458 806 q 677 969 601 932 q 819 1006 753 1006 q 898 986 861 1006 q 961 938 935 967 q 1003 874 988 908 q 1018 811 1018 840 q 978 692 1018 757 q 866 569 939 626 q 690 474 793 513 q 457 432 586 435 q 440 292 440 361 q 494 101 440 158 q 647 43 547 43 q 722 56 685 43 q 795 89 760 68 q 861 138 831 110 q 915 199 892 167 q 922 208 917 203 q 931 215 925 211 q 943 218 936 218 q 964 210 956 218 q 972 190 972 201 q 970 180 972 185 q 965 169 968 175 q 960 157 963 164 q 901 86 936 121 q 821 23 867 51 q 720 -23 775 -6 q 601 -40 665 -40 m 835 911 q 739 879 789 911 q 641 792 689 847 q 551 666 593 738 q 482 515 510 594 q 652 553 576 518 q 781 640 728 589 q 861 750 833 692 q 889 858 889 808 q 875 897 889 882 q 835 911 861 911 m 885 1274 q 905 1264 893 1274 q 928 1240 917 1254 q 948 1209 940 1225 q 956 1182 956 1193 q 949 1153 956 1165 q 922 1124 943 1142 q 872 1090 900 1104 q 815 1067 843 1076 q 761 1053 786 1058 q 719 1049 736 1049 q 701 1055 708 1049 q 694 1069 694 1061 q 699 1083 694 1078 q 717 1096 703 1089 q 784 1155 749 1115 q 851 1246 819 1194 q 867 1267 860 1260 q 885 1274 874 1274 z "},"Č":{"ha":915,"x_min":0,"x_max":1021,"o":"m 601 -40 q 472 -20 536 -40 q 358 41 408 0 q 275 145 307 82 q 243 296 243 208 q 249 374 243 335 q 265 451 254 413 q 154 491 203 467 q 71 545 106 515 q 18 608 36 575 q 0 675 0 642 q 35 783 0 733 q 119 869 71 833 q 217 926 167 906 q 296 947 267 947 q 319 932 319 947 q 312 917 319 922 q 293 901 304 911 q 259 874 278 890 q 224 835 240 858 q 196 781 207 813 q 185 707 185 750 q 208 616 185 661 q 296 543 231 571 q 397 722 335 638 q 530 869 458 806 q 677 969 601 932 q 819 1006 753 1006 q 898 986 861 1006 q 961 938 935 967 q 1003 874 988 908 q 1018 811 1018 840 q 978 692 1018 757 q 866 569 939 626 q 690 474 793 513 q 457 432 586 435 q 440 292 440 361 q 494 101 440 158 q 647 43 547 43 q 722 56 685 43 q 795 89 760 68 q 861 138 831 110 q 915 199 892 167 q 922 208 917 203 q 931 215 925 211 q 943 218 936 218 q 964 210 956 218 q 972 190 972 201 q 970 180 972 185 q 965 169 968 175 q 960 157 963 164 q 901 86 936 121 q 821 23 867 51 q 720 -23 775 -6 q 601 -40 665 -40 m 835 911 q 739 879 789 911 q 641 792 689 847 q 551 666 593 738 q 482 515 510 594 q 652 553 576 518 q 781 640 728 589 q 861 750 833 692 q 889 858 889 808 q 875 897 889 882 q 835 911 861 911 m 811 1061 q 783 1070 799 1061 q 751 1094 767 1079 q 719 1128 735 1110 q 692 1165 704 1146 q 663 1215 671 1196 q 654 1246 654 1233 q 660 1264 654 1258 q 674 1269 667 1269 q 692 1263 682 1269 q 717 1244 701 1256 q 781 1201 749 1215 q 840 1188 813 1188 q 950 1247 886 1188 q 976 1269 965 1261 q 999 1276 988 1276 q 1021 1254 1021 1276 q 1005 1215 1021 1240 q 940 1142 989 1190 q 872 1084 908 1107 q 811 1061 835 1061 z "},"Ç":{"ha":915,"x_min":0,"x_max":1018,"o":"m 960 157 q 906 91 938 124 q 835 31 875 58 q 746 -15 794 4 q 642 -39 697 -33 q 647 -74 642 -54 q 668 -94 651 -94 q 706 -92 686 -94 q 742 -89 726 -89 q 773 -103 763 -89 q 783 -139 783 -117 q 769 -201 783 -167 q 724 -265 754 -235 q 649 -315 694 -294 q 544 -335 604 -335 q 469 -317 500 -335 q 439 -268 439 -299 q 456 -226 439 -244 q 493 -207 472 -207 q 517 -214 508 -207 q 533 -229 525 -221 q 553 -244 542 -237 q 588 -251 565 -251 q 632 -242 610 -251 q 672 -222 654 -233 q 699 -198 689 -210 q 710 -179 710 -186 q 703 -172 710 -172 q 638 -183 671 -172 q 581 -193 604 -193 q 553 -181 563 -193 q 543 -157 543 -168 q 545 -126 543 -143 q 551 -91 547 -108 q 557 -59 554 -74 q 561 -37 560 -44 q 444 -10 501 -32 q 342 53 388 13 q 270 155 297 94 q 243 296 243 215 q 249 374 243 335 q 265 451 254 413 q 154 491 203 467 q 71 545 106 515 q 18 608 36 575 q 0 675 0 642 q 35 783 0 733 q 119 869 71 833 q 217 926 167 906 q 296 947 267 947 q 319 932 319 947 q 312 917 319 922 q 293 901 304 911 q 259 874 278 890 q 224 835 240 858 q 196 781 207 813 q 185 707 185 750 q 208 616 185 661 q 296 543 231 571 q 397 722 335 638 q 530 869 458 806 q 677 969 601 932 q 819 1006 753 1006 q 898 986 861 1006 q 961 938 935 967 q 1003 874 988 908 q 1018 811 1018 840 q 978 692 1018 757 q 866 569 939 626 q 690 474 793 513 q 457 432 586 435 q 440 292 440 361 q 494 101 440 158 q 647 43 547 43 q 722 56 685 43 q 795 89 760 68 q 861 138 831 110 q 915 199 892 167 q 922 208 917 203 q 931 215 925 211 q 943 218 936 218 q 964 210 956 218 q 972 190 972 201 q 970 180 972 185 q 965 169 968 175 q 960 157 963 164 m 835 911 q 739 879 789 911 q 641 792 689 847 q 551 666 593 738 q 482 515 510 594 q 652 553 576 518 q 781 640 728 589 q 861 750 833 692 q 889 858 889 808 q 875 897 889 882 q 835 911 861 911 z "},"D":{"ha":1289,"x_min":0,"x_max":1256,"o":"m 736 107 q 874 149 811 107 q 981 260 936 192 q 1051 415 1026 328 q 1076 592 1076 501 q 1049 742 1076 679 q 975 847 1021 806 q 869 907 929 888 q 747 926 810 926 q 576 901 651 926 q 448 834 500 876 q 369 735 396 792 q 342 615 342 678 q 352 562 342 583 q 376 526 363 540 q 399 502 389 511 q 410 486 410 493 q 381 460 410 460 q 315 472 353 460 q 242 508 276 485 q 184 565 208 532 q 160 639 160 597 q 210 783 160 717 q 344 899 261 850 q 533 977 426 949 q 750 1006 639 1006 q 918 979 829 1006 q 1082 897 1007 953 q 1206 755 1157 842 q 1256 547 1256 668 q 1222 341 1256 442 q 1129 161 1189 240 q 988 34 1069 82 q 808 -14 906 -14 q 635 17 718 -14 q 476 86 553 47 q 360 10 424 35 q 222 -14 296 -14 q 140 -3 179 -14 q 69 29 100 8 q 19 79 38 50 q 0 144 0 108 q 17 214 0 183 q 59 265 33 244 q 116 297 85 286 q 178 308 147 308 q 297 287 240 308 q 411 236 354 265 q 421 253 417 244 q 429 272 425 263 q 465 362 446 310 q 505 470 485 414 q 544 583 525 526 q 583 687 564 640 q 620 767 603 733 q 651 808 638 800 q 749 853 701 842 q 821 865 797 865 q 839 860 835 865 q 843 846 843 854 q 816 806 843 838 q 764 718 789 774 q 739 651 757 703 q 695 529 721 600 q 639 379 669 458 q 576 231 608 300 q 559 197 568 213 q 540 165 550 181 q 638 124 589 140 q 736 107 686 107 m 188 203 q 135 182 156 203 q 114 133 114 161 q 138 88 114 106 q 196 71 163 71 q 281 90 242 71 q 356 150 319 108 q 267 188 308 174 q 188 203 225 203 z "},"Ď":{"ha":1289,"x_min":0,"x_max":1256,"o":"m 736 107 q 874 149 811 107 q 981 260 936 192 q 1051 415 1026 328 q 1076 592 1076 501 q 1049 742 1076 679 q 975 847 1021 806 q 869 907 929 888 q 747 926 810 926 q 576 901 651 926 q 448 834 500 876 q 369 735 396 792 q 342 615 342 678 q 352 562 342 583 q 376 526 363 540 q 399 502 389 511 q 410 486 410 493 q 381 460 410 460 q 315 472 353 460 q 242 508 276 485 q 184 565 208 532 q 160 639 160 597 q 210 783 160 717 q 344 899 261 850 q 533 977 426 949 q 750 1006 639 1006 q 918 979 829 1006 q 1082 897 1007 953 q 1206 755 1157 842 q 1256 547 1256 668 q 1222 341 1256 442 q 1129 161 1189 240 q 988 34 1069 82 q 808 -14 906 -14 q 635 17 718 -14 q 476 86 553 47 q 360 10 424 35 q 222 -14 296 -14 q 140 -3 179 -14 q 69 29 100 8 q 19 79 38 50 q 0 144 0 108 q 17 214 0 183 q 59 265 33 244 q 116 297 85 286 q 178 308 147 308 q 297 287 240 308 q 411 236 354 265 q 421 253 417 244 q 429 272 425 263 q 465 362 446 310 q 505 470 485 414 q 544 583 525 526 q 583 687 564 640 q 620 767 603 733 q 651 808 638 800 q 749 853 701 842 q 821 865 797 865 q 839 860 835 865 q 843 846 843 854 q 816 806 843 838 q 764 718 789 774 q 739 651 757 703 q 695 529 721 600 q 639 379 669 458 q 576 231 608 300 q 559 197 568 213 q 540 165 550 181 q 638 124 589 140 q 736 107 686 107 m 751 1072 q 723 1081 739 1072 q 691 1106 707 1090 q 660 1139 675 1121 q 632 1176 644 1157 q 603 1226 611 1207 q 594 1257 594 1244 q 601 1275 594 1269 q 614 1281 607 1281 q 632 1274 622 1281 q 657 1256 642 1267 q 721 1213 689 1226 q 781 1199 753 1199 q 890 1258 826 1199 q 917 1280 906 1272 q 939 1288 928 1288 q 961 1265 961 1288 q 945 1226 961 1251 q 881 1153 929 1201 q 812 1095 849 1118 q 751 1072 775 1072 m 188 203 q 135 182 156 203 q 114 133 114 161 q 138 88 114 106 q 196 71 163 71 q 281 90 242 71 q 356 150 319 108 q 267 188 308 174 q 188 203 225 203 z "},"E":{"ha":661,"x_min":14,"x_max":796,"o":"m 358 -40 q 242 -26 300 -40 q 137 18 183 -12 q 60 97 90 49 q 31 211 31 144 q 51 318 31 271 q 103 403 72 365 q 172 467 135 440 q 240 511 208 493 q 295 538 272 529 q 322 549 318 547 q 307 556 321 549 q 276 580 293 564 q 244 621 260 596 q 224 682 229 646 q 66 724 118 692 q 14 806 14 756 q 34 874 14 840 q 82 933 54 907 q 138 976 110 960 q 182 993 167 993 q 192 989 189 993 q 194 981 194 985 q 182 956 194 974 q 169 914 169 939 q 189 852 169 881 q 243 801 208 824 q 306 882 265 844 q 398 947 347 919 q 506 990 449 975 q 617 1006 563 1006 q 687 997 654 1006 q 744 972 719 988 q 782 933 768 956 q 796 882 796 910 q 768 813 796 846 q 688 752 740 779 q 563 706 636 725 q 397 682 489 688 q 403 640 399 658 q 415 607 408 621 q 431 578 422 592 q 457 582 442 579 q 487 585 469 583 q 526 586 504 586 q 608 538 608 586 q 584 495 608 517 q 519 474 560 474 q 474 477 494 474 q 438 486 453 481 q 407 500 421 492 q 315 428 356 469 q 252 339 281 392 q 224 215 224 286 q 271 85 224 128 q 406 43 318 43 q 547 85 481 43 q 661 199 614 126 q 668 208 663 203 q 676 215 671 211 q 689 218 682 218 q 710 210 701 218 q 718 190 718 201 q 713 169 718 183 q 707 158 710 164 q 651 85 685 121 q 574 22 618 50 q 476 -23 531 -6 q 358 -40 422 -40 m 613 946 q 549 932 581 946 q 489 894 517 918 q 439 835 461 869 q 406 761 417 801 q 516 771 465 761 q 604 799 567 781 q 663 842 642 817 q 683 897 683 867 q 663 933 683 919 q 613 946 642 946 z "},"É":{"ha":661,"x_min":14,"x_max":796,"o":"m 358 -40 q 242 -26 300 -40 q 137 18 183 -12 q 60 97 90 49 q 31 211 31 144 q 51 318 31 271 q 103 403 72 365 q 172 467 135 440 q 240 511 208 493 q 295 538 272 529 q 322 549 318 547 q 307 556 321 549 q 276 580 293 564 q 244 621 260 596 q 224 682 229 646 q 66 724 118 692 q 14 806 14 756 q 34 874 14 840 q 82 933 54 907 q 138 976 110 960 q 182 993 167 993 q 192 989 189 993 q 194 981 194 985 q 182 956 194 974 q 169 914 169 939 q 189 852 169 881 q 243 801 208 824 q 306 882 265 844 q 398 947 347 919 q 506 990 449 975 q 617 1006 563 1006 q 687 997 654 1006 q 744 972 719 988 q 782 933 768 956 q 796 882 796 910 q 768 813 796 846 q 688 752 740 779 q 563 706 636 725 q 397 682 489 688 q 403 640 399 658 q 415 607 408 621 q 431 578 422 592 q 457 582 442 579 q 487 585 469 583 q 526 586 504 586 q 608 538 608 586 q 584 495 608 517 q 519 474 560 474 q 474 477 494 474 q 438 486 453 481 q 407 500 421 492 q 315 428 356 469 q 252 339 281 392 q 224 215 224 286 q 271 85 224 128 q 406 43 318 43 q 547 85 481 43 q 661 199 614 126 q 668 208 663 203 q 676 215 671 211 q 689 218 682 218 q 710 210 701 218 q 718 190 718 201 q 713 169 718 183 q 707 158 710 164 q 651 85 685 121 q 574 22 618 50 q 476 -23 531 -6 q 358 -40 422 -40 m 613 946 q 549 932 581 946 q 489 894 517 918 q 439 835 461 869 q 406 761 417 801 q 516 771 465 761 q 604 799 567 781 q 663 842 642 817 q 683 897 683 867 q 663 933 683 919 q 613 946 642 946 m 696 1288 q 716 1278 704 1288 q 740 1253 728 1268 q 759 1223 751 1239 q 767 1196 767 1207 q 760 1167 767 1179 q 733 1138 754 1156 q 683 1104 711 1118 q 626 1081 654 1090 q 572 1067 597 1072 q 531 1063 547 1063 q 513 1069 519 1063 q 506 1083 506 1075 q 510 1097 506 1092 q 528 1110 514 1103 q 595 1169 560 1129 q 663 1260 631 1208 q 678 1281 671 1274 q 696 1288 685 1288 z "},"Ĕ":{"ha":661,"x_min":14,"x_max":813,"o":"m 358 -40 q 242 -26 300 -40 q 137 18 183 -12 q 60 97 90 49 q 31 211 31 144 q 51 318 31 271 q 103 403 72 365 q 172 467 135 440 q 240 511 208 493 q 295 538 272 529 q 322 549 318 547 q 307 556 321 549 q 276 580 293 564 q 244 621 260 596 q 224 682 229 646 q 66 724 118 692 q 14 806 14 756 q 34 874 14 840 q 82 933 54 907 q 138 976 110 960 q 182 993 167 993 q 192 989 189 993 q 194 981 194 985 q 182 956 194 974 q 169 914 169 939 q 189 852 169 881 q 243 801 208 824 q 306 882 265 844 q 398 947 347 919 q 506 990 449 975 q 617 1006 563 1006 q 687 997 654 1006 q 744 972 719 988 q 782 933 768 956 q 796 882 796 910 q 768 813 796 846 q 688 752 740 779 q 563 706 636 725 q 397 682 489 688 q 403 640 399 658 q 415 607 408 621 q 431 578 422 592 q 457 582 442 579 q 487 585 469 583 q 526 586 504 586 q 608 538 608 586 q 584 495 608 517 q 519 474 560 474 q 474 477 494 474 q 438 486 453 481 q 407 500 421 492 q 315 428 356 469 q 252 339 281 392 q 224 215 224 286 q 271 85 224 128 q 406 43 318 43 q 547 85 481 43 q 661 199 614 126 q 668 208 663 203 q 676 215 671 211 q 689 218 682 218 q 710 210 701 218 q 718 190 718 201 q 713 169 718 183 q 707 158 710 164 q 651 85 685 121 q 574 22 618 50 q 476 -23 531 -6 q 358 -40 422 -40 m 594 1051 q 469 1089 518 1051 q 419 1193 419 1126 q 444 1252 419 1232 q 496 1272 468 1272 q 539 1229 539 1272 q 537 1214 539 1219 q 533 1203 535 1208 q 528 1193 531 1199 q 526 1179 526 1188 q 548 1148 526 1160 q 604 1136 569 1136 q 674 1156 653 1136 q 696 1203 696 1176 q 713 1254 696 1239 q 757 1269 729 1269 q 797 1255 781 1269 q 813 1215 813 1240 q 786 1140 813 1179 q 717 1080 764 1108 q 594 1051 671 1051 m 613 946 q 549 932 581 946 q 489 894 517 918 q 439 835 461 869 q 406 761 417 801 q 516 771 465 761 q 604 799 567 781 q 663 842 642 817 q 683 897 683 867 q 663 933 683 919 q 613 946 642 946 z "},"Ê":{"ha":661,"x_min":14,"x_max":810,"o":"m 358 -40 q 242 -26 300 -40 q 137 18 183 -12 q 60 97 90 49 q 31 211 31 144 q 51 318 31 271 q 103 403 72 365 q 172 467 135 440 q 240 511 208 493 q 295 538 272 529 q 322 549 318 547 q 307 556 321 549 q 276 580 293 564 q 244 621 260 596 q 224 682 229 646 q 66 724 118 692 q 14 806 14 756 q 34 874 14 840 q 82 933 54 907 q 138 976 110 960 q 182 993 167 993 q 192 989 189 993 q 194 981 194 985 q 182 956 194 974 q 169 914 169 939 q 189 852 169 881 q 243 801 208 824 q 306 882 265 844 q 398 947 347 919 q 506 990 449 975 q 617 1006 563 1006 q 687 997 654 1006 q 744 972 719 988 q 782 933 768 956 q 796 882 796 910 q 768 813 796 846 q 688 752 740 779 q 563 706 636 725 q 397 682 489 688 q 403 640 399 658 q 415 607 408 621 q 431 578 422 592 q 457 582 442 579 q 487 585 469 583 q 526 586 504 586 q 608 538 608 586 q 584 495 608 517 q 519 474 560 474 q 474 477 494 474 q 438 486 453 481 q 407 500 421 492 q 315 428 356 469 q 252 339 281 392 q 224 215 224 286 q 271 85 224 128 q 406 43 318 43 q 547 85 481 43 q 661 199 614 126 q 668 208 663 203 q 676 215 671 211 q 689 218 682 218 q 710 210 701 218 q 718 190 718 201 q 713 169 718 183 q 707 158 710 164 q 651 85 685 121 q 574 22 618 50 q 476 -23 531 -6 q 358 -40 422 -40 m 618 1125 q 610 1122 615 1125 q 599 1117 604 1119 q 549 1090 575 1103 q 499 1066 522 1076 q 458 1049 475 1056 q 433 1042 440 1042 q 415 1049 422 1042 q 408 1065 408 1057 q 431 1099 408 1083 q 497 1147 467 1122 q 567 1214 526 1171 q 595 1247 582 1233 q 636 1261 608 1261 q 659 1257 651 1261 q 672 1246 667 1253 q 682 1229 678 1239 q 693 1208 686 1219 q 738 1146 715 1172 q 785 1100 761 1119 q 804 1085 799 1090 q 810 1068 810 1079 q 802 1051 810 1060 q 783 1042 794 1042 q 764 1045 778 1042 q 730 1057 750 1049 q 685 1080 710 1065 q 633 1117 660 1094 q 618 1125 625 1125 m 613 946 q 549 932 581 946 q 489 894 517 918 q 439 835 461 869 q 406 761 417 801 q 516 771 465 761 q 604 799 567 781 q 663 842 642 817 q 683 897 683 867 q 663 933 683 919 q 613 946 642 946 z "},"Ë":{"ha":661,"x_min":14,"x_max":817,"o":"m 358 -40 q 242 -26 300 -40 q 137 18 183 -12 q 60 97 90 49 q 31 211 31 144 q 51 318 31 271 q 103 403 72 365 q 172 467 135 440 q 240 511 208 493 q 295 538 272 529 q 322 549 318 547 q 307 556 321 549 q 276 580 293 564 q 244 621 260 596 q 224 682 229 646 q 66 724 118 692 q 14 806 14 756 q 34 874 14 840 q 82 933 54 907 q 138 976 110 960 q 182 993 167 993 q 192 989 189 993 q 194 981 194 985 q 182 956 194 974 q 169 914 169 939 q 189 852 169 881 q 243 801 208 824 q 306 882 265 844 q 398 947 347 919 q 506 990 449 975 q 617 1006 563 1006 q 687 997 654 1006 q 744 972 719 988 q 782 933 768 956 q 796 882 796 910 q 768 813 796 846 q 688 752 740 779 q 563 706 636 725 q 397 682 489 688 q 403 640 399 658 q 415 607 408 621 q 431 578 422 592 q 457 582 442 579 q 487 585 469 583 q 526 586 504 586 q 608 538 608 586 q 584 495 608 517 q 519 474 560 474 q 474 477 494 474 q 438 486 453 481 q 407 500 421 492 q 315 428 356 469 q 252 339 281 392 q 224 215 224 286 q 271 85 224 128 q 406 43 318 43 q 547 85 481 43 q 661 199 614 126 q 668 208 663 203 q 676 215 671 211 q 689 218 682 218 q 710 210 701 218 q 718 190 718 201 q 713 169 718 183 q 707 158 710 164 q 651 85 685 121 q 574 22 618 50 q 476 -23 531 -6 q 358 -40 422 -40 m 613 946 q 549 932 581 946 q 489 894 517 918 q 439 835 461 869 q 406 761 417 801 q 516 771 465 761 q 604 799 567 781 q 663 842 642 817 q 683 897 683 867 q 663 933 683 919 q 613 946 642 946 m 461 1125 q 469 1162 461 1143 q 490 1196 476 1181 q 520 1222 503 1211 q 557 1232 538 1232 q 599 1213 583 1232 q 615 1165 615 1193 q 608 1128 615 1147 q 588 1093 601 1108 q 557 1067 575 1078 q 517 1057 539 1057 q 477 1076 493 1057 q 461 1125 461 1096 m 663 1125 q 670 1162 663 1143 q 691 1196 678 1181 q 722 1222 704 1211 q 758 1232 739 1232 q 801 1213 785 1232 q 817 1165 817 1193 q 810 1128 817 1147 q 790 1093 803 1108 q 758 1067 776 1078 q 718 1057 740 1057 q 678 1076 694 1057 q 663 1125 663 1096 z "},"È":{"ha":661,"x_min":14,"x_max":796,"o":"m 358 -40 q 242 -26 300 -40 q 137 18 183 -12 q 60 97 90 49 q 31 211 31 144 q 51 318 31 271 q 103 403 72 365 q 172 467 135 440 q 240 511 208 493 q 295 538 272 529 q 322 549 318 547 q 307 556 321 549 q 276 580 293 564 q 244 621 260 596 q 224 682 229 646 q 66 724 118 692 q 14 806 14 756 q 34 874 14 840 q 82 933 54 907 q 138 976 110 960 q 182 993 167 993 q 192 989 189 993 q 194 981 194 985 q 182 956 194 974 q 169 914 169 939 q 189 852 169 881 q 243 801 208 824 q 306 882 265 844 q 398 947 347 919 q 506 990 449 975 q 617 1006 563 1006 q 687 997 654 1006 q 744 972 719 988 q 782 933 768 956 q 796 882 796 910 q 768 813 796 846 q 688 752 740 779 q 563 706 636 725 q 397 682 489 688 q 403 640 399 658 q 415 607 408 621 q 431 578 422 592 q 457 582 442 579 q 487 585 469 583 q 526 586 504 586 q 608 538 608 586 q 584 495 608 517 q 519 474 560 474 q 474 477 494 474 q 438 486 453 481 q 407 500 421 492 q 315 428 356 469 q 252 339 281 392 q 224 215 224 286 q 271 85 224 128 q 406 43 318 43 q 547 85 481 43 q 661 199 614 126 q 668 208 663 203 q 676 215 671 211 q 689 218 682 218 q 710 210 701 218 q 718 190 718 201 q 713 169 718 183 q 707 158 710 164 q 651 85 685 121 q 574 22 618 50 q 476 -23 531 -6 q 358 -40 422 -40 m 613 946 q 549 932 581 946 q 489 894 517 918 q 439 835 461 869 q 406 761 417 801 q 516 771 465 761 q 604 799 567 781 q 663 842 642 817 q 683 897 683 867 q 663 933 683 919 q 613 946 642 946 m 557 1307 q 590 1279 579 1307 q 615 1229 600 1256 q 647 1180 629 1203 q 683 1138 665 1157 q 717 1110 701 1119 q 735 1097 731 1103 q 739 1083 739 1092 q 733 1069 739 1075 q 714 1063 726 1063 q 674 1070 699 1063 q 622 1091 650 1078 q 567 1121 594 1104 q 518 1157 540 1138 q 491 1187 497 1175 q 485 1215 485 1199 q 493 1242 485 1226 q 513 1273 501 1258 q 536 1297 524 1288 q 557 1307 549 1307 z "},"Ē":{"ha":661,"x_min":14,"x_max":821,"o":"m 358 -40 q 242 -26 300 -40 q 137 18 183 -12 q 60 97 90 49 q 31 211 31 144 q 51 318 31 271 q 103 403 72 365 q 172 467 135 440 q 240 511 208 493 q 295 538 272 529 q 322 549 318 547 q 307 556 321 549 q 276 580 293 564 q 244 621 260 596 q 224 682 229 646 q 66 724 118 692 q 14 806 14 756 q 34 874 14 840 q 82 933 54 907 q 138 976 110 960 q 182 993 167 993 q 192 989 189 993 q 194 981 194 985 q 182 956 194 974 q 169 914 169 939 q 189 852 169 881 q 243 801 208 824 q 306 882 265 844 q 398 947 347 919 q 506 990 449 975 q 617 1006 563 1006 q 687 997 654 1006 q 744 972 719 988 q 782 933 768 956 q 796 882 796 910 q 768 813 796 846 q 688 752 740 779 q 563 706 636 725 q 397 682 489 688 q 403 640 399 658 q 415 607 408 621 q 431 578 422 592 q 457 582 442 579 q 487 585 469 583 q 526 586 504 586 q 608 538 608 586 q 584 495 608 517 q 519 474 560 474 q 474 477 494 474 q 438 486 453 481 q 407 500 421 492 q 315 428 356 469 q 252 339 281 392 q 224 215 224 286 q 271 85 224 128 q 406 43 318 43 q 547 85 481 43 q 661 199 614 126 q 668 208 663 203 q 676 215 671 211 q 689 218 682 218 q 710 210 701 218 q 718 190 718 201 q 713 169 718 183 q 707 158 710 164 q 651 85 685 121 q 574 22 618 50 q 476 -23 531 -6 q 358 -40 422 -40 m 419 1051 q 397 1074 397 1051 q 401 1094 397 1081 q 410 1122 404 1108 q 423 1147 415 1136 q 440 1157 431 1157 l 794 1157 q 815 1153 810 1157 q 821 1136 821 1149 q 817 1115 821 1129 q 806 1086 813 1100 q 792 1062 800 1072 q 774 1051 783 1051 l 419 1051 m 613 946 q 549 932 581 946 q 489 894 517 918 q 439 835 461 869 q 406 761 417 801 q 516 771 465 761 q 604 799 567 781 q 663 842 642 817 q 683 897 683 867 q 663 933 683 919 q 613 946 642 946 z "},"Ę":{"ha":661,"x_min":14,"x_max":796,"o":"m 707 158 q 656 90 686 124 q 585 30 625 57 q 498 -16 546 3 q 393 -39 450 -35 q 351 -75 372 -53 q 331 -121 331 -97 q 358 -170 331 -147 q 438 -193 385 -193 q 454 -196 447 -193 q 461 -207 461 -199 q 455 -224 461 -215 q 440 -242 449 -233 q 394 -278 422 -261 q 338 -296 365 -296 q 297 -284 318 -296 q 260 -253 276 -272 q 232 -212 243 -235 q 221 -165 221 -189 q 245 -90 221 -122 q 301 -36 269 -58 q 201 -13 250 -31 q 115 34 153 4 q 53 108 76 64 q 31 211 31 151 q 51 318 31 271 q 103 403 72 365 q 172 467 135 440 q 240 511 208 493 q 295 538 272 529 q 322 549 318 547 q 307 556 321 549 q 276 580 293 564 q 244 621 260 596 q 224 682 229 646 q 66 724 118 692 q 14 806 14 756 q 34 874 14 840 q 82 933 54 907 q 138 976 110 960 q 182 993 167 993 q 192 989 189 993 q 194 981 194 985 q 182 956 194 974 q 169 914 169 939 q 189 852 169 881 q 243 801 208 824 q 306 882 265 844 q 398 947 347 919 q 506 990 449 975 q 617 1006 563 1006 q 687 997 654 1006 q 744 972 719 988 q 782 933 768 956 q 796 882 796 910 q 768 813 796 846 q 688 752 740 779 q 563 706 636 725 q 397 682 489 688 q 403 640 399 658 q 415 607 408 621 q 431 578 422 592 q 457 582 442 579 q 487 585 469 583 q 526 586 504 586 q 608 538 608 586 q 584 495 608 517 q 519 474 560 474 q 474 477 494 474 q 438 486 453 481 q 407 500 421 492 q 315 428 356 469 q 252 339 281 392 q 224 215 224 286 q 271 85 224 128 q 406 43 318 43 q 547 85 481 43 q 661 199 614 126 q 668 208 663 203 q 676 215 671 211 q 689 218 682 218 q 710 210 701 218 q 718 190 718 201 q 713 169 718 183 q 707 158 710 164 m 613 946 q 549 932 581 946 q 489 894 517 918 q 439 835 461 869 q 406 761 417 801 q 516 771 465 761 q 604 799 567 781 q 663 842 642 817 q 683 897 683 867 q 663 933 683 919 q 613 946 642 946 z "},"Ð":{"ha":1289,"x_min":0,"x_max":1256,"o":"m 406 453 q 456 453 433 453 q 499 456 479 453 q 540 572 519 514 q 581 680 561 631 q 619 764 601 729 q 651 808 636 799 q 749 853 701 842 q 821 865 797 865 q 839 860 835 865 q 843 846 843 854 q 816 806 843 838 q 764 718 789 774 q 751 687 760 710 q 731 631 743 664 q 705 556 719 597 q 674 471 690 515 l 676 471 q 715 456 694 471 q 753 423 736 442 q 783 385 771 404 q 794 358 794 367 q 787 343 794 350 q 774 336 779 336 q 741 350 765 336 q 682 364 717 364 q 632 360 654 364 q 604 294 618 326 q 576 231 590 261 q 559 197 568 213 q 540 165 550 181 q 638 124 589 140 q 736 107 686 107 q 874 149 811 107 q 981 260 936 192 q 1051 415 1026 328 q 1076 592 1076 501 q 1049 742 1076 679 q 975 847 1021 806 q 869 907 929 888 q 747 926 810 926 q 449 867 553 926 q 344 682 344 808 q 355 628 344 650 q 378 592 365 607 q 402 569 392 578 q 413 553 413 560 q 383 526 413 526 q 317 539 356 526 q 245 575 279 551 q 187 631 211 599 q 163 706 163 664 q 213 840 163 783 q 345 933 263 896 q 533 988 428 969 q 750 1006 639 1006 q 918 979 829 1006 q 1082 897 1007 953 q 1206 755 1157 842 q 1256 547 1256 668 q 1222 341 1256 442 q 1129 161 1189 240 q 988 34 1069 82 q 808 -14 906 -14 q 635 17 718 -14 q 476 86 553 47 q 360 10 424 35 q 222 -14 296 -14 q 140 -3 179 -14 q 69 29 100 8 q 19 79 38 50 q 0 144 0 108 q 17 214 0 183 q 59 265 33 244 q 116 297 85 286 q 178 308 147 308 q 297 287 240 308 q 411 236 354 265 q 421 253 417 244 q 429 272 425 263 l 443 304 l 433 304 q 381 326 406 304 q 338 375 357 347 q 308 429 319 403 q 297 467 297 456 q 303 481 297 475 q 315 486 308 486 q 331 481 322 486 q 349 469 339 475 q 374 458 360 463 q 406 453 388 453 m 188 203 q 135 182 156 203 q 114 133 114 161 q 138 88 114 106 q 196 71 163 71 q 281 90 242 71 q 356 150 319 108 q 267 188 308 174 q 188 203 225 203 z "},"€":{"ha":726,"x_min":-8,"x_max":800,"o":"m 558 824 q 485 802 524 824 q 413 745 447 781 q 351 665 379 710 q 308 575 324 621 l 474 575 q 494 571 489 575 q 499 556 499 567 q 494 535 499 549 q 483 508 490 522 q 467 485 476 494 q 450 475 458 475 l 286 475 q 279 431 282 453 q 275 389 276 410 l 446 389 q 466 385 461 389 q 471 369 471 381 q 467 349 471 363 q 456 322 463 336 q 440 299 449 308 q 422 289 431 289 l 271 289 q 285 217 271 251 q 324 156 299 182 q 385 115 349 131 q 465 99 421 99 q 522 107 496 99 q 570 127 549 115 q 608 152 592 139 q 636 176 625 165 q 655 192 647 188 q 671 197 663 197 q 690 178 690 197 q 672 131 690 163 q 615 67 653 99 q 521 10 578 35 q 389 -14 464 -14 q 271 6 326 -14 q 172 63 215 25 q 101 158 128 101 q 71 289 75 214 l 13 289 q -8 311 -8 289 q -5 331 -8 318 q 5 357 -1 344 q 19 379 11 369 q 36 389 28 389 l 74 389 q 80 433 76 411 q 88 475 83 454 l 40 475 q 19 497 19 475 q 23 517 19 504 q 33 543 26 531 q 47 565 39 556 q 64 575 56 575 l 115 575 q 194 717 144 653 q 305 826 243 781 q 438 896 367 871 q 583 921 510 921 q 678 908 638 921 q 747 873 719 894 q 787 824 774 851 q 800 765 800 796 q 778 696 800 729 q 728 635 757 663 q 668 592 699 608 q 619 576 638 576 q 597 600 597 576 q 602 620 597 607 q 613 651 607 633 q 623 692 618 669 q 628 744 628 715 q 607 806 628 789 q 558 824 586 824 z "},"F":{"ha":924,"x_min":3,"x_max":978,"o":"m 797 396 q 781 437 797 424 q 726 453 765 450 q 694 297 717 379 q 626 146 671 215 q 510 31 582 76 q 333 -14 439 -14 q 200 12 261 -14 q 95 75 139 38 q 27 156 51 113 q 3 236 3 200 q 29 305 3 272 q 94 363 56 338 q 174 403 132 388 q 246 418 215 418 q 281 394 281 418 q 276 380 281 385 q 256 364 271 375 q 222 336 239 353 q 191 299 204 319 q 169 255 178 278 q 160 207 160 232 q 169 157 160 181 q 197 116 179 133 q 238 88 214 99 q 289 78 261 78 q 391 110 347 78 q 466 194 435 142 q 519 311 497 246 q 556 442 540 376 q 497 435 524 439 q 457 432 471 432 q 380 453 408 432 q 351 506 351 474 q 369 556 351 532 q 409 597 386 579 q 454 624 432 614 q 488 633 476 633 q 501 619 501 633 q 491 597 501 613 q 481 558 481 582 q 508 525 481 535 q 569 515 536 515 l 571 515 l 590 633 q 618 747 601 703 q 650 818 635 792 q 686 865 667 849 q 592 894 654 882 q 447 907 531 907 q 345 878 385 907 q 306 801 306 850 q 317 748 306 769 q 340 712 328 726 q 364 688 353 697 q 375 671 375 678 q 346 644 375 644 q 282 657 318 644 q 214 693 246 669 q 160 749 182 717 q 138 824 138 782 q 165 913 138 878 q 234 968 193 947 q 323 997 275 989 q 411 1006 371 1006 q 542 994 482 1006 q 647 968 603 982 q 744 932 700 953 q 793 963 768 949 q 844 983 815 974 q 904 993 872 993 q 958 975 939 993 q 978 932 978 957 q 967 900 978 915 q 941 873 957 885 q 905 854 925 861 q 865 847 885 847 q 848 847 857 847 q 831 849 839 847 q 810 837 825 846 q 778 803 794 828 q 749 735 761 779 q 736 619 736 692 q 735 580 736 603 q 733 529 735 557 q 797 539 765 535 q 869 543 829 543 q 925 535 900 543 q 950 493 950 528 q 934 458 950 478 q 897 421 918 439 q 853 391 875 403 q 817 379 831 379 q 797 396 797 379 z "},"G":{"ha":979,"x_min":0,"x_max":1036,"o":"m 856 335 q 810 64 840 186 q 913 123 872 89 q 979 199 953 157 q 986 208 981 203 q 994 215 989 211 q 1007 218 1000 218 q 1028 210 1019 218 q 1036 190 1036 201 q 1031 171 1036 182 q 1025 160 1028 165 q 935 63 992 107 q 785 -18 879 19 q 716 -176 756 -106 q 630 -294 676 -246 q 531 -369 583 -343 q 421 -396 478 -396 q 322 -379 367 -396 q 246 -335 278 -362 q 197 -275 214 -308 q 179 -208 179 -242 q 215 -117 179 -154 q 309 -53 250 -79 q 444 -12 368 -28 q 601 14 521 3 l 657 22 q 690 117 676 69 q 708 214 703 165 q 633 156 674 181 q 555 116 599 133 q 467 99 511 99 q 368 115 413 99 q 291 163 324 132 q 240 238 258 194 q 222 338 222 282 q 243 474 222 407 q 146 503 190 485 q 69 547 101 521 q 19 604 38 572 q 0 675 0 636 q 33 783 0 733 q 113 869 67 833 q 206 926 158 906 q 282 947 253 947 q 306 932 306 947 q 298 915 306 922 q 279 900 290 908 q 247 874 265 889 q 211 835 228 858 q 183 781 194 813 q 172 707 172 750 q 199 625 172 664 q 278 563 225 586 q 386 733 319 653 q 530 874 453 814 q 686 970 607 935 q 832 1006 765 1006 q 909 991 874 1006 q 970 952 944 976 q 1010 898 996 928 q 1024 839 1024 868 q 979 713 1024 778 q 857 594 935 649 q 673 501 779 539 q 442 458 567 464 q 428 351 428 407 q 458 250 428 285 q 542 215 488 215 q 614 235 578 215 q 679 281 650 256 q 744 346 714 308 q 783 438 761 397 q 830 501 803 472 q 892 531 857 531 q 930 517 915 531 q 944 476 944 504 q 931 424 944 450 q 900 379 917 399 q 856 335 881 356 m 846 914 q 746 883 800 914 q 640 799 692 851 q 542 679 588 747 q 467 536 496 611 q 625 578 547 544 q 764 658 703 611 q 863 759 825 706 q 900 860 900 813 q 886 899 900 883 q 846 914 872 914 m 376 -308 q 431 -290 401 -308 q 492 -240 461 -272 q 553 -165 522 -208 q 611 -72 583 -122 l 589 -79 q 488 -111 536 -93 q 402 -151 439 -129 q 344 -197 365 -172 q 322 -249 322 -222 q 376 -308 322 -308 z "},"H":{"ha":1332,"x_min":0,"x_max":1399,"o":"m 1399 976 q 1365 926 1399 965 q 1326 861 1351 910 q 1271 745 1300 813 q 1211 598 1242 678 q 1156 439 1181 518 l 1168 439 q 1212 444 1192 439 q 1249 458 1232 450 q 1277 471 1265 465 q 1294 476 1289 476 q 1308 460 1308 476 q 1292 426 1308 449 q 1250 381 1276 404 q 1191 340 1224 358 q 1124 317 1158 321 q 1104 171 1104 232 q 1120 101 1104 122 q 1168 79 1136 79 q 1229 97 1200 79 q 1282 139 1258 115 q 1332 199 1308 164 q 1340 208 1335 203 q 1349 215 1344 211 q 1361 218 1354 218 q 1380 210 1371 218 q 1389 190 1389 203 q 1387 179 1389 185 q 1382 168 1385 174 q 1375 154 1378 163 q 1306 69 1344 106 q 1226 12 1272 38 q 1124 -14 1181 -14 q 1055 0 1089 -14 q 994 39 1021 14 q 950 99 967 64 q 933 178 933 135 q 939 255 933 213 q 956 343 944 297 q 851 376 906 358 q 742 410 797 394 q 674 234 713 313 q 586 101 636 156 q 472 16 536 46 q 324 -14 407 -14 q 192 7 251 -14 q 90 65 132 28 q 24 150 47 101 q 0 254 0 199 q 38 381 0 331 q 138 462 76 432 q 277 504 200 492 q 433 517 354 517 q 516 515 476 517 q 593 510 556 513 q 663 699 629 615 q 742 854 697 783 q 698 857 722 854 q 650 864 674 860 q 604 871 626 868 q 565 874 582 874 q 469 840 508 874 q 429 760 429 807 q 440 706 429 728 q 463 670 450 685 q 487 647 476 656 q 497 631 497 638 q 468 604 497 604 q 403 619 440 604 q 333 659 367 633 q 277 719 300 685 q 254 796 254 754 q 277 878 254 843 q 335 935 300 913 q 413 969 371 958 q 494 979 456 979 q 600 972 557 979 q 675 957 643 965 q 734 942 707 949 q 790 935 761 935 q 855 992 821 978 q 924 1006 889 1006 q 974 987 954 1006 q 993 943 993 968 q 983 909 993 926 q 956 878 972 892 q 922 856 940 865 q 888 843 904 846 q 840 730 868 815 q 765 488 813 644 q 876 468 822 478 q 985 451 931 458 q 1030 585 1006 518 q 1080 713 1054 653 q 1129 823 1106 774 q 1171 904 1153 872 q 1213 949 1188 932 q 1264 977 1238 967 q 1315 992 1290 988 q 1358 996 1340 996 q 1399 976 1399 996 m 275 81 q 377 111 333 81 q 456 192 421 142 q 518 308 490 243 q 571 443 546 374 q 544 445 557 444 q 517 446 531 446 q 368 426 435 446 q 254 372 301 406 q 181 294 207 339 q 156 201 156 250 q 165 153 156 175 q 192 115 175 131 q 230 90 208 99 q 275 81 251 81 z "},"I":{"ha":746,"x_min":11,"x_max":868,"o":"m 808 1006 q 850 991 832 1006 q 868 949 868 976 q 859 913 868 929 q 837 885 850 897 q 807 864 824 872 q 775 853 790 856 q 758 822 767 844 q 742 757 750 799 q 722 651 733 715 q 696 497 711 588 q 644 291 678 385 q 561 130 611 197 q 443 24 511 63 q 286 -14 375 -14 q 174 11 225 -14 q 88 72 124 36 q 31 149 51 108 q 11 222 11 190 q 16 242 11 233 q 32 250 21 250 q 46 244 42 250 q 54 233 50 239 q 79 201 64 218 q 115 167 94 183 q 162 141 136 151 q 219 131 188 131 q 332 160 282 131 q 422 240 382 189 q 491 361 461 290 q 543 515 521 432 q 584 660 565 599 q 618 764 603 722 q 650 847 635 813 q 483 775 557 821 q 422 730 451 756 q 369 672 393 704 q 332 599 346 639 q 318 510 318 558 q 335 443 318 465 q 367 408 351 421 q 381 396 374 401 q 389 382 389 390 q 361 364 389 364 q 301 379 336 364 q 235 422 267 394 q 181 490 203 450 q 158 578 158 529 q 183 675 158 631 q 248 756 207 719 q 342 819 289 792 q 453 869 396 847 q 569 907 511 892 q 678 932 628 922 q 743 990 710 975 q 808 1006 776 1006 z "},"Í":{"ha":746,"x_min":11,"x_max":868,"o":"m 808 1006 q 850 991 832 1006 q 868 949 868 976 q 859 913 868 929 q 837 885 850 897 q 807 864 824 872 q 775 853 790 856 q 758 822 767 844 q 742 757 750 799 q 722 651 733 715 q 696 497 711 588 q 644 291 678 385 q 561 130 611 197 q 443 24 511 63 q 286 -14 375 -14 q 174 11 225 -14 q 88 72 124 36 q 31 149 51 108 q 11 222 11 190 q 16 242 11 233 q 32 250 21 250 q 46 244 42 250 q 54 233 50 239 q 79 201 64 218 q 115 167 94 183 q 162 141 136 151 q 219 131 188 131 q 332 160 282 131 q 422 240 382 189 q 491 361 461 290 q 543 515 521 432 q 584 660 565 599 q 618 764 603 722 q 650 847 635 813 q 483 775 557 821 q 422 730 451 756 q 369 672 393 704 q 332 599 346 639 q 318 510 318 558 q 335 443 318 465 q 367 408 351 421 q 381 396 374 401 q 389 382 389 390 q 361 364 389 364 q 301 379 336 364 q 235 422 267 394 q 181 490 203 450 q 158 578 158 529 q 183 675 158 631 q 248 756 207 719 q 342 819 289 792 q 453 869 396 847 q 569 907 511 892 q 678 932 628 922 q 743 990 710 975 q 808 1006 776 1006 m 796 1263 q 816 1253 804 1263 q 840 1228 828 1243 q 859 1198 851 1214 q 867 1171 867 1182 q 860 1142 867 1154 q 833 1113 854 1131 q 783 1079 811 1093 q 726 1056 754 1065 q 672 1042 697 1047 q 631 1038 647 1038 q 613 1044 619 1038 q 606 1058 606 1050 q 610 1072 606 1067 q 628 1085 614 1078 q 695 1144 660 1104 q 763 1235 731 1183 q 778 1256 771 1249 q 796 1263 785 1263 z "},"Ĭ":{"ha":746,"x_min":11,"x_max":978,"o":"m 808 1006 q 850 991 832 1006 q 868 949 868 976 q 859 913 868 929 q 837 885 850 897 q 807 864 824 872 q 775 853 790 856 q 758 822 767 844 q 742 757 750 799 q 722 651 733 715 q 696 497 711 588 q 644 291 678 385 q 561 130 611 197 q 443 24 511 63 q 286 -14 375 -14 q 174 11 225 -14 q 88 72 124 36 q 31 149 51 108 q 11 222 11 190 q 16 242 11 233 q 32 250 21 250 q 46 244 42 250 q 54 233 50 239 q 79 201 64 218 q 115 167 94 183 q 162 141 136 151 q 219 131 188 131 q 332 160 282 131 q 422 240 382 189 q 491 361 461 290 q 543 515 521 432 q 584 660 565 599 q 618 764 603 722 q 650 847 635 813 q 483 775 557 821 q 422 730 451 756 q 369 672 393 704 q 332 599 346 639 q 318 510 318 558 q 335 443 318 465 q 367 408 351 421 q 381 396 374 401 q 389 382 389 390 q 361 364 389 364 q 301 379 336 364 q 235 422 267 394 q 181 490 203 450 q 158 578 158 529 q 183 675 158 631 q 248 756 207 719 q 342 819 289 792 q 453 869 396 847 q 569 907 511 892 q 678 932 628 922 q 743 990 710 975 q 808 1006 776 1006 m 760 1071 q 634 1108 683 1071 q 585 1213 585 1146 q 609 1272 585 1251 q 661 1292 633 1292 q 704 1249 704 1292 q 702 1233 704 1239 q 698 1223 700 1228 q 694 1213 696 1218 q 692 1199 692 1207 q 713 1167 692 1179 q 769 1156 735 1156 q 840 1176 818 1156 q 861 1222 861 1196 q 878 1274 861 1258 q 922 1289 894 1289 q 962 1274 946 1289 q 978 1235 978 1260 q 951 1160 978 1199 q 883 1099 929 1128 q 760 1071 836 1071 z "},"Î":{"ha":746,"x_min":11,"x_max":993,"o":"m 808 1006 q 850 991 832 1006 q 868 949 868 976 q 859 913 868 929 q 837 885 850 897 q 807 864 824 872 q 775 853 790 856 q 758 822 767 844 q 742 757 750 799 q 722 651 733 715 q 696 497 711 588 q 644 291 678 385 q 561 130 611 197 q 443 24 511 63 q 286 -14 375 -14 q 174 11 225 -14 q 88 72 124 36 q 31 149 51 108 q 11 222 11 190 q 16 242 11 233 q 32 250 21 250 q 46 244 42 250 q 54 233 50 239 q 79 201 64 218 q 115 167 94 183 q 162 141 136 151 q 219 131 188 131 q 332 160 282 131 q 422 240 382 189 q 491 361 461 290 q 543 515 521 432 q 584 660 565 599 q 618 764 603 722 q 650 847 635 813 q 483 775 557 821 q 422 730 451 756 q 369 672 393 704 q 332 599 346 639 q 318 510 318 558 q 335 443 318 465 q 367 408 351 421 q 381 396 374 401 q 389 382 389 390 q 361 364 389 364 q 301 379 336 364 q 235 422 267 394 q 181 490 203 450 q 158 578 158 529 q 183 675 158 631 q 248 756 207 719 q 342 819 289 792 q 453 869 396 847 q 569 907 511 892 q 678 932 628 922 q 743 990 710 975 q 808 1006 776 1006 m 801 1119 q 793 1117 799 1119 q 782 1111 788 1114 q 732 1084 758 1097 q 682 1060 706 1071 q 641 1043 658 1050 q 617 1036 624 1036 q 599 1044 606 1036 q 592 1060 592 1051 q 614 1093 592 1078 q 680 1141 650 1117 q 750 1208 710 1165 q 778 1242 765 1228 q 819 1256 792 1256 q 842 1251 835 1256 q 856 1240 850 1247 q 865 1224 861 1233 q 876 1203 869 1214 q 922 1140 899 1167 q 968 1094 944 1114 q 988 1079 982 1085 q 993 1063 993 1074 q 985 1045 993 1054 q 967 1036 978 1036 q 947 1040 961 1036 q 913 1051 933 1043 q 868 1074 893 1060 q 817 1111 843 1089 q 801 1119 808 1119 z "},"Ï":{"ha":746,"x_min":11,"x_max":992,"o":"m 808 1006 q 850 991 832 1006 q 868 949 868 976 q 859 913 868 929 q 837 885 850 897 q 807 864 824 872 q 775 853 790 856 q 758 822 767 844 q 742 757 750 799 q 722 651 733 715 q 696 497 711 588 q 644 291 678 385 q 561 130 611 197 q 443 24 511 63 q 286 -14 375 -14 q 174 11 225 -14 q 88 72 124 36 q 31 149 51 108 q 11 222 11 190 q 16 242 11 233 q 32 250 21 250 q 46 244 42 250 q 54 233 50 239 q 79 201 64 218 q 115 167 94 183 q 162 141 136 151 q 219 131 188 131 q 332 160 282 131 q 422 240 382 189 q 491 361 461 290 q 543 515 521 432 q 584 660 565 599 q 618 764 603 722 q 650 847 635 813 q 483 775 557 821 q 422 730 451 756 q 369 672 393 704 q 332 599 346 639 q 318 510 318 558 q 335 443 318 465 q 367 408 351 421 q 381 396 374 401 q 389 382 389 390 q 361 364 389 364 q 301 379 336 364 q 235 422 267 394 q 181 490 203 450 q 158 578 158 529 q 183 675 158 631 q 248 756 207 719 q 342 819 289 792 q 453 869 396 847 q 569 907 511 892 q 678 932 628 922 q 743 990 710 975 q 808 1006 776 1006 m 636 1128 q 644 1165 636 1146 q 665 1199 651 1183 q 695 1224 678 1214 q 732 1235 713 1235 q 774 1215 758 1235 q 790 1168 790 1196 q 783 1131 790 1150 q 763 1096 776 1111 q 732 1070 750 1081 q 692 1060 714 1060 q 652 1079 668 1060 q 636 1128 636 1099 m 838 1128 q 845 1165 838 1146 q 866 1199 853 1183 q 897 1224 879 1214 q 933 1235 914 1235 q 976 1215 960 1235 q 992 1168 992 1196 q 985 1131 992 1150 q 965 1096 978 1111 q 933 1070 951 1081 q 893 1060 915 1060 q 853 1079 869 1060 q 838 1128 838 1099 z "},"Ì":{"ha":746,"x_min":11,"x_max":894,"o":"m 808 1006 q 850 991 832 1006 q 868 949 868 976 q 859 913 868 929 q 837 885 850 897 q 807 864 824 872 q 775 853 790 856 q 758 822 767 844 q 742 757 750 799 q 722 651 733 715 q 696 497 711 588 q 644 291 678 385 q 561 130 611 197 q 443 24 511 63 q 286 -14 375 -14 q 174 11 225 -14 q 88 72 124 36 q 31 149 51 108 q 11 222 11 190 q 16 242 11 233 q 32 250 21 250 q 46 244 42 250 q 54 233 50 239 q 79 201 64 218 q 115 167 94 183 q 162 141 136 151 q 219 131 188 131 q 332 160 282 131 q 422 240 382 189 q 491 361 461 290 q 543 515 521 432 q 584 660 565 599 q 618 764 603 722 q 650 847 635 813 q 483 775 557 821 q 422 730 451 756 q 369 672 393 704 q 332 599 346 639 q 318 510 318 558 q 335 443 318 465 q 367 408 351 421 q 381 396 374 401 q 389 382 389 390 q 361 364 389 364 q 301 379 336 364 q 235 422 267 394 q 181 490 203 450 q 158 578 158 529 q 183 675 158 631 q 248 756 207 719 q 342 819 289 792 q 453 869 396 847 q 569 907 511 892 q 678 932 628 922 q 743 990 710 975 q 808 1006 776 1006 m 713 1313 q 746 1285 735 1313 q 770 1235 756 1261 q 803 1185 785 1208 q 839 1144 821 1163 q 872 1115 857 1125 q 890 1103 886 1108 q 894 1089 894 1097 q 888 1074 894 1081 q 869 1068 882 1068 q 830 1076 854 1068 q 778 1097 806 1083 q 723 1126 750 1110 q 674 1163 696 1143 q 647 1192 653 1181 q 640 1221 640 1204 q 649 1248 640 1232 q 668 1278 657 1264 q 692 1303 679 1293 q 713 1313 704 1313 z "},"Ī":{"ha":746,"x_min":11,"x_max":983,"o":"m 808 1006 q 850 991 832 1006 q 868 949 868 976 q 859 913 868 929 q 837 885 850 897 q 807 864 824 872 q 775 853 790 856 q 758 822 767 844 q 742 757 750 799 q 722 651 733 715 q 696 497 711 588 q 644 291 678 385 q 561 130 611 197 q 443 24 511 63 q 286 -14 375 -14 q 174 11 225 -14 q 88 72 124 36 q 31 149 51 108 q 11 222 11 190 q 16 242 11 233 q 32 250 21 250 q 46 244 42 250 q 54 233 50 239 q 79 201 64 218 q 115 167 94 183 q 162 141 136 151 q 219 131 188 131 q 332 160 282 131 q 422 240 382 189 q 491 361 461 290 q 543 515 521 432 q 584 660 565 599 q 618 764 603 722 q 650 847 635 813 q 483 775 557 821 q 422 730 451 756 q 369 672 393 704 q 332 599 346 639 q 318 510 318 558 q 335 443 318 465 q 367 408 351 421 q 381 396 374 401 q 389 382 389 390 q 361 364 389 364 q 301 379 336 364 q 235 422 267 394 q 181 490 203 450 q 158 578 158 529 q 183 675 158 631 q 248 756 207 719 q 342 819 289 792 q 453 869 396 847 q 569 907 511 892 q 678 932 628 922 q 743 990 710 975 q 808 1006 776 1006 m 582 1051 q 560 1074 560 1051 q 563 1094 560 1081 q 572 1122 567 1108 q 585 1147 578 1136 q 603 1157 593 1157 l 957 1157 q 978 1153 972 1157 q 983 1136 983 1149 q 979 1115 983 1129 q 969 1086 975 1100 q 954 1062 963 1072 q 936 1051 946 1051 l 582 1051 z "},"J":{"ha":811,"x_min":0,"x_max":908,"o":"m 583 515 q 622 651 607 599 q 647 735 636 704 q 667 788 658 771 q 508 678 578 740 q 451 619 479 651 q 400 548 422 586 q 365 467 378 510 q 351 375 351 424 q 368 308 351 331 q 400 272 385 286 q 415 261 407 267 q 422 247 422 256 q 394 229 422 229 q 333 244 368 229 q 267 288 299 260 q 214 355 236 315 q 192 443 192 394 q 216 544 192 496 q 281 634 240 592 q 375 714 322 676 q 484 783 428 751 q 597 842 540 815 q 700 892 653 869 q 766 970 732 935 q 836 1006 800 1006 q 889 988 869 1006 q 908 943 908 969 q 899 906 908 924 q 874 874 889 888 q 842 851 860 860 q 810 838 825 842 q 791 806 801 829 q 769 739 781 782 q 747 631 758 696 q 722 476 735 567 q 689 260 707 367 q 644 56 671 153 q 745 119 707 83 q 811 199 783 156 q 818 208 813 203 q 826 215 821 211 q 839 218 832 218 q 860 210 851 218 q 868 190 868 201 q 866 181 868 186 q 861 169 864 175 q 856 157 858 164 q 768 54 821 101 q 619 -29 715 7 q 559 -177 593 -110 q 481 -293 525 -244 q 381 -369 436 -342 q 256 -396 325 -396 q 155 -378 201 -396 q 74 -333 108 -361 q 19 -269 39 -304 q 0 -201 0 -235 q 37 -114 0 -147 q 134 -60 74 -81 q 271 -26 194 -39 q 426 -1 347 -14 q 506 244 467 111 q 583 515 544 376 m 206 -317 q 303 -255 257 -317 q 392 -90 349 -193 q 292 -119 338 -103 q 211 -157 246 -136 q 157 -201 176 -178 q 138 -250 138 -225 q 158 -297 138 -278 q 206 -317 179 -317 z "},"K":{"ha":1256,"x_min":93,"x_max":1394,"o":"m 1300 157 q 1232 71 1268 108 q 1158 13 1200 39 q 1067 -14 1115 -14 q 964 9 1003 -14 q 904 71 925 32 q 877 163 883 110 q 871 275 871 215 q 866 342 871 314 q 855 388 861 369 q 841 418 849 407 q 828 436 833 429 l 826 436 l 776 436 q 736 274 760 354 q 673 129 713 193 q 571 26 633 65 q 415 -14 508 -14 q 293 10 351 -14 q 190 71 235 35 q 119 149 146 107 q 93 226 93 190 q 119 303 93 268 q 184 364 146 339 q 264 403 222 389 q 336 418 306 418 q 361 412 351 418 q 371 397 371 406 q 364 378 371 386 q 343 357 357 371 q 317 331 332 347 q 288 292 301 314 q 265 247 275 271 q 256 199 256 224 q 287 116 256 146 q 358 86 318 86 q 461 126 418 86 q 536 229 504 167 q 592 367 568 292 q 635 515 615 443 q 683 676 663 613 q 718 775 703 739 q 749 839 735 818 q 586 813 657 836 q 526 788 556 803 q 474 751 497 772 q 438 699 451 729 q 424 629 424 668 q 440 563 424 585 q 472 526 457 540 q 487 515 479 521 q 494 501 494 510 q 467 483 494 483 q 406 496 442 483 q 335 533 369 508 q 276 593 300 557 q 251 678 251 629 q 276 760 251 724 q 342 824 301 796 q 438 872 383 853 q 550 905 492 892 q 668 925 608 918 q 779 933 728 932 q 840 991 811 976 q 901 1006 869 1006 q 951 989 933 1006 q 969 944 969 972 q 959 909 969 925 q 933 881 949 893 q 899 860 917 868 q 865 847 881 851 q 850 817 857 839 q 835 756 843 794 q 818 659 828 717 q 793 521 808 601 q 865 565 831 538 q 929 628 899 593 q 988 701 960 663 q 1040 776 1015 740 q 1118 879 1082 838 q 1186 946 1154 921 q 1249 982 1218 971 q 1311 993 1279 993 q 1342 985 1326 993 q 1369 967 1357 978 q 1388 946 1381 957 q 1394 929 1394 935 q 1374 911 1394 911 q 1333 905 1356 911 q 1284 879 1311 899 q 1226 824 1257 860 q 1163 729 1196 789 q 1111 640 1135 682 q 1063 565 1088 599 q 1011 505 1038 531 q 951 463 985 479 q 970 446 960 457 q 992 415 981 435 q 1012 365 1003 396 q 1028 289 1021 333 q 1069 154 1040 193 q 1133 115 1097 115 q 1196 139 1164 115 q 1256 199 1228 163 q 1263 208 1257 203 q 1271 215 1265 211 q 1283 218 1276 218 q 1303 210 1294 218 q 1313 190 1313 201 q 1310 180 1313 185 q 1306 169 1308 175 q 1300 157 1303 164 z "},"L":{"ha":1214,"x_min":-1,"x_max":1271,"o":"m 1258 157 q 1190 71 1229 108 q 1110 13 1157 39 q 1003 -14 1063 -14 q 903 2 950 -14 q 811 44 856 18 q 724 102 767 69 q 639 168 681 135 q 505 38 585 90 q 311 -14 425 -14 q 189 8 246 -14 q 90 65 132 29 q 23 148 47 101 q -1 246 -1 194 q 17 331 -1 293 q 67 397 36 369 q 140 438 99 424 q 225 453 181 453 q 384 426 304 453 q 543 358 464 399 q 575 429 560 393 q 606 501 590 465 q 444 541 519 514 q 311 607 368 568 q 221 693 254 646 q 188 790 188 740 q 209 881 188 843 q 265 944 231 919 q 343 981 300 969 q 429 993 386 993 q 559 962 507 993 q 651 890 611 931 q 665 873 660 882 q 671 857 671 864 q 665 842 671 849 q 653 835 660 835 q 635 840 643 835 q 617 851 628 844 q 553 886 586 874 q 483 899 519 899 q 405 876 435 899 q 375 803 375 854 q 392 732 375 767 q 443 668 410 697 q 526 617 476 639 q 642 585 576 594 l 654 610 q 749 792 703 717 q 842 915 794 867 q 940 984 889 963 q 1049 1006 990 1006 q 1135 989 1097 1006 q 1199 947 1172 972 q 1238 888 1225 921 q 1251 825 1251 856 q 1219 715 1251 771 q 1126 614 1186 660 q 980 536 1065 568 q 790 496 894 504 q 751 388 772 446 q 700 272 729 331 q 892 176 799 218 q 1072 133 985 133 q 1130 140 1106 133 q 1170 157 1154 147 q 1197 178 1186 167 q 1214 199 1207 190 q 1221 208 1215 203 q 1229 215 1224 211 q 1242 218 1235 218 q 1262 210 1253 218 q 1271 190 1271 201 q 1269 180 1271 185 q 1264 169 1267 175 q 1258 157 1261 164 m 258 94 q 395 144 338 94 q 499 274 453 194 q 400 323 450 304 q 296 342 350 342 q 175 306 219 342 q 131 207 131 271 q 167 126 131 158 q 258 94 204 94 m 1079 915 q 1023 902 1050 915 q 966 853 996 889 q 903 753 936 817 q 828 589 869 689 q 944 634 890 603 q 1040 705 999 665 q 1103 788 1081 744 q 1126 868 1126 831 q 1114 901 1126 886 q 1079 915 1101 915 z "},"Ĺ":{"ha":1214,"x_min":-1,"x_max":1271,"o":"m 1258 157 q 1190 71 1229 108 q 1110 13 1157 39 q 1003 -14 1063 -14 q 903 2 950 -14 q 811 44 856 18 q 724 102 767 69 q 639 168 681 135 q 505 38 585 90 q 311 -14 425 -14 q 189 8 246 -14 q 90 65 132 29 q 23 148 47 101 q -1 246 -1 194 q 17 331 -1 293 q 67 397 36 369 q 140 438 99 424 q 225 453 181 453 q 384 426 304 453 q 543 358 464 399 q 575 429 560 393 q 606 501 590 465 q 444 541 519 514 q 311 607 368 568 q 221 693 254 646 q 188 790 188 740 q 209 881 188 843 q 265 944 231 919 q 343 981 300 969 q 429 993 386 993 q 559 962 507 993 q 651 890 611 931 q 665 873 660 882 q 671 857 671 864 q 665 842 671 849 q 653 835 660 835 q 635 840 643 835 q 617 851 628 844 q 553 886 586 874 q 483 899 519 899 q 405 876 435 899 q 375 803 375 854 q 392 732 375 767 q 443 668 410 697 q 526 617 476 639 q 642 585 576 594 l 654 610 q 749 792 703 717 q 842 915 794 867 q 940 984 889 963 q 1049 1006 990 1006 q 1135 989 1097 1006 q 1199 947 1172 972 q 1238 888 1225 921 q 1251 825 1251 856 q 1219 715 1251 771 q 1126 614 1186 660 q 980 536 1065 568 q 790 496 894 504 q 751 388 772 446 q 700 272 729 331 q 892 176 799 218 q 1072 133 985 133 q 1130 140 1106 133 q 1170 157 1154 147 q 1197 178 1186 167 q 1214 199 1207 190 q 1221 208 1215 203 q 1229 215 1224 211 q 1242 218 1235 218 q 1262 210 1253 218 q 1271 190 1271 201 q 1269 180 1271 185 q 1264 169 1267 175 q 1258 157 1261 164 m 258 94 q 395 144 338 94 q 499 274 453 194 q 400 323 450 304 q 296 342 350 342 q 175 306 219 342 q 131 207 131 271 q 167 126 131 158 q 258 94 204 94 m 1079 915 q 1023 902 1050 915 q 966 853 996 889 q 903 753 936 817 q 828 589 869 689 q 944 634 890 603 q 1040 705 999 665 q 1103 788 1081 744 q 1126 868 1126 831 q 1114 901 1126 886 q 1079 915 1101 915 m 1149 1285 q 1169 1275 1157 1285 q 1192 1251 1181 1265 q 1212 1220 1204 1236 q 1219 1193 1219 1204 q 1213 1165 1219 1176 q 1186 1135 1207 1153 q 1135 1101 1164 1115 q 1078 1078 1107 1088 q 1025 1065 1050 1069 q 983 1060 1000 1060 q 965 1066 972 1060 q 958 1081 958 1072 q 963 1094 958 1089 q 981 1107 967 1100 q 1048 1166 1013 1126 q 1115 1257 1083 1206 q 1131 1278 1124 1271 q 1149 1285 1138 1285 z "},"Ľ":{"ha":1214,"x_min":-1,"x_max":1463,"o":"m 1258 157 q 1190 71 1229 108 q 1110 13 1157 39 q 1003 -14 1063 -14 q 903 2 950 -14 q 811 44 856 18 q 724 102 767 69 q 639 168 681 135 q 505 38 585 90 q 311 -14 425 -14 q 189 8 246 -14 q 90 65 132 29 q 23 148 47 101 q -1 246 -1 194 q 17 331 -1 293 q 67 397 36 369 q 140 438 99 424 q 225 453 181 453 q 384 426 304 453 q 543 358 464 399 q 575 429 560 393 q 606 501 590 465 q 444 541 519 514 q 311 607 368 568 q 221 693 254 646 q 188 790 188 740 q 209 881 188 843 q 265 944 231 919 q 343 981 300 969 q 429 993 386 993 q 559 962 507 993 q 651 890 611 931 q 665 873 660 882 q 671 857 671 864 q 665 842 671 849 q 653 835 660 835 q 635 840 643 835 q 617 851 628 844 q 553 886 586 874 q 483 899 519 899 q 405 876 435 899 q 375 803 375 854 q 392 732 375 767 q 443 668 410 697 q 526 617 476 639 q 642 585 576 594 l 654 610 q 749 792 703 717 q 842 915 794 867 q 940 984 889 963 q 1049 1006 990 1006 q 1135 989 1097 1006 q 1199 947 1172 972 q 1238 888 1225 921 q 1251 825 1251 856 q 1219 715 1251 771 q 1126 614 1186 660 q 980 536 1065 568 q 790 496 894 504 q 751 388 772 446 q 700 272 729 331 q 892 176 799 218 q 1072 133 985 133 q 1130 140 1106 133 q 1170 157 1154 147 q 1197 178 1186 167 q 1214 199 1207 190 q 1221 208 1215 203 q 1229 215 1224 211 q 1242 218 1235 218 q 1262 210 1253 218 q 1271 190 1271 201 q 1269 180 1271 185 q 1264 169 1267 175 q 1258 157 1261 164 m 258 94 q 395 144 338 94 q 499 274 453 194 q 400 323 450 304 q 296 342 350 342 q 175 306 219 342 q 131 207 131 271 q 167 126 131 158 q 258 94 204 94 m 1079 915 q 1023 902 1050 915 q 966 853 996 889 q 903 753 936 817 q 828 589 869 689 q 944 634 890 603 q 1040 705 999 665 q 1103 788 1081 744 q 1126 868 1126 831 q 1114 901 1126 886 q 1079 915 1101 915 m 1301 926 q 1325 981 1301 958 q 1385 1004 1349 1004 q 1463 925 1463 1004 q 1441 847 1463 886 q 1392 778 1419 808 q 1337 728 1364 747 q 1299 710 1310 710 q 1276 728 1276 710 q 1284 749 1276 738 q 1300 776 1292 761 q 1316 811 1308 792 q 1324 858 1324 831 q 1313 892 1324 879 q 1301 926 1301 904 z "},"Ł":{"ha":1214,"x_min":-1,"x_max":1271,"o":"m 1258 157 q 1190 71 1229 108 q 1110 13 1157 39 q 1003 -14 1063 -14 q 903 2 950 -14 q 811 44 856 18 q 724 102 767 69 q 639 168 681 135 q 505 38 585 90 q 311 -14 425 -14 q 189 8 246 -14 q 90 65 132 29 q 23 148 47 101 q -1 246 -1 194 q 17 331 -1 293 q 67 397 36 369 q 140 438 99 424 q 225 453 181 453 q 384 426 304 453 q 543 358 464 399 l 551 376 q 509 404 528 389 q 478 434 490 419 q 458 462 465 449 q 451 482 451 475 q 457 496 451 490 q 469 501 463 501 q 485 495 475 501 q 510 481 496 489 q 542 466 524 474 q 586 454 561 458 l 606 501 q 444 541 519 514 q 311 607 368 568 q 221 693 254 646 q 188 790 188 740 q 209 881 188 843 q 265 944 231 919 q 343 981 300 969 q 429 993 386 993 q 559 962 507 993 q 651 890 611 931 q 665 873 660 882 q 671 857 671 864 q 665 842 671 849 q 653 835 660 835 q 635 840 643 835 q 617 851 628 844 q 553 886 586 874 q 483 899 519 899 q 405 876 435 899 q 375 803 375 854 q 392 732 375 767 q 443 668 410 697 q 526 617 476 639 q 642 585 576 594 l 654 610 q 749 792 703 717 q 842 915 794 867 q 940 984 889 963 q 1049 1006 990 1006 q 1135 989 1097 1006 q 1199 947 1172 972 q 1238 888 1225 921 q 1251 825 1251 856 q 1219 715 1251 771 q 1126 614 1186 660 q 980 536 1065 568 q 790 496 894 504 l 778 460 l 782 460 q 821 445 800 460 q 859 412 842 431 q 888 374 876 393 q 900 347 900 356 q 892 332 900 339 q 879 325 885 325 q 867 330 875 325 q 846 341 858 335 q 818 353 833 347 q 786 358 803 358 q 766 358 778 358 q 739 357 754 358 l 700 272 q 892 176 799 218 q 1072 133 985 133 q 1130 140 1106 133 q 1170 157 1154 147 q 1197 178 1186 167 q 1214 199 1207 190 q 1221 208 1215 203 q 1229 215 1224 211 q 1242 218 1235 218 q 1262 210 1253 218 q 1271 190 1271 201 q 1269 180 1271 185 q 1264 169 1267 175 q 1258 157 1261 164 m 258 94 q 395 144 338 94 q 499 274 453 194 q 400 323 450 304 q 296 342 350 342 q 175 306 219 342 q 131 207 131 271 q 167 126 131 158 q 258 94 204 94 m 1079 915 q 1023 902 1050 915 q 966 853 996 889 q 903 753 936 817 q 828 589 869 689 q 944 634 890 603 q 1040 705 999 665 q 1103 788 1081 744 q 1126 868 1126 831 q 1114 901 1126 886 q 1079 915 1101 915 z "},"M":{"ha":1504,"x_min":0,"x_max":1571,"o":"m 1356 79 q 1410 97 1383 79 q 1458 139 1438 115 q 1504 199 1483 164 q 1511 208 1506 203 q 1519 215 1514 211 q 1532 218 1525 218 q 1552 210 1543 218 q 1561 190 1561 201 q 1559 180 1561 185 q 1554 169 1557 175 q 1549 157 1551 164 q 1481 71 1518 108 q 1405 13 1449 39 q 1310 -14 1361 -14 q 1238 0 1274 -14 q 1175 39 1203 14 q 1130 99 1147 64 q 1113 178 1113 135 q 1126 296 1113 229 q 1161 434 1139 363 q 1210 578 1183 506 q 1265 717 1238 651 q 1204 627 1238 681 q 1137 512 1171 574 q 1069 385 1103 450 q 1008 263 1036 321 q 959 162 981 206 q 928 96 938 118 q 900 54 918 74 q 862 19 882 35 q 824 -5 842 4 q 799 -14 807 -14 q 765 -1 782 -14 q 732 33 747 11 q 707 83 717 56 q 697 143 697 111 q 700 201 697 164 q 707 286 703 239 q 717 385 711 333 q 726 488 722 438 q 733 581 731 538 q 736 654 736 625 q 694 519 717 593 q 642 372 671 446 q 580 228 614 297 q 506 105 546 158 q 421 19 467 51 q 324 -14 375 -14 q 201 10 260 -14 q 98 71 143 35 q 26 149 53 107 q 0 226 0 190 q 26 303 0 268 q 91 364 53 339 q 171 403 129 389 q 243 418 213 418 q 278 397 278 418 q 272 377 278 385 q 250 357 265 369 q 224 333 239 349 q 194 297 208 317 q 172 251 181 276 q 163 199 163 226 q 191 126 163 154 q 260 97 219 97 q 347 142 299 97 q 443 256 394 186 q 538 414 492 326 q 619 586 583 501 q 677 744 656 671 q 699 860 699 817 q 682 903 699 885 q 626 922 665 922 q 549 901 594 922 q 463 843 504 879 q 393 760 422 807 q 364 663 364 713 q 375 607 364 631 q 399 567 386 583 q 422 539 411 550 q 433 521 433 528 q 404 493 433 493 q 338 508 376 493 q 265 549 300 522 q 207 610 231 575 q 183 686 183 644 q 228 808 183 750 q 342 910 274 867 q 494 980 411 954 q 653 1006 576 1006 q 728 991 686 1006 q 808 947 771 976 q 872 873 846 918 q 897 768 897 828 q 892 613 897 700 q 880 444 886 526 q 868 295 874 361 q 863 203 863 229 q 893 259 872 219 q 942 354 914 299 q 1007 476 971 410 q 1083 613 1043 543 q 1167 753 1124 683 q 1257 883 1211 822 q 1314 940 1282 918 q 1381 974 1346 961 q 1455 991 1417 986 q 1531 996 1493 996 q 1571 976 1571 996 q 1563 958 1571 969 q 1536 926 1556 947 q 1498 863 1522 910 q 1445 749 1474 815 q 1387 606 1417 683 q 1332 449 1357 528 q 1292 298 1307 371 q 1276 171 1276 225 q 1299 101 1276 122 q 1356 79 1321 79 z "},"N":{"ha":1188,"x_min":0,"x_max":1465,"o":"m 994 96 q 966 54 985 74 q 928 19 947 35 q 890 -5 908 4 q 864 -14 872 -14 q 832 -1 849 -14 q 801 33 815 11 q 778 83 788 56 q 764 143 768 111 q 757 241 760 175 q 751 381 754 307 q 747 527 749 456 q 746 643 746 599 q 706 512 728 583 q 655 367 683 440 q 592 226 626 294 q 517 103 558 157 q 428 18 476 50 q 324 -14 379 -14 q 201 10 260 -14 q 98 71 143 35 q 26 149 53 107 q 0 226 0 190 q 26 303 0 268 q 91 364 53 339 q 171 403 129 389 q 243 418 213 418 q 268 412 258 418 q 278 397 278 406 q 272 378 278 386 q 250 357 265 369 q 224 333 239 347 q 194 299 208 319 q 172 254 181 279 q 163 199 163 229 q 191 126 163 154 q 260 97 219 97 q 347 142 299 97 q 443 256 394 186 q 538 414 492 326 q 619 586 583 501 q 677 744 656 671 q 699 860 699 817 q 682 903 699 885 q 626 922 665 922 q 549 901 594 922 q 463 843 504 879 q 393 760 422 807 q 364 663 364 713 q 375 607 364 631 q 399 567 386 583 q 422 539 411 550 q 433 521 433 528 q 404 493 433 493 q 338 508 376 493 q 265 549 300 522 q 207 610 231 575 q 183 686 183 644 q 228 808 183 750 q 342 910 274 867 q 494 980 411 954 q 653 1006 576 1006 q 728 991 686 1006 q 807 947 769 976 q 871 873 844 918 q 900 768 897 828 q 904 633 903 704 q 909 488 906 561 q 917 343 913 415 q 932 207 922 271 q 952 268 939 225 q 983 370 965 311 q 1024 498 1001 429 q 1074 636 1047 567 q 1128 770 1100 706 q 1186 884 1157 835 q 1245 963 1215 933 q 1303 993 1275 993 q 1361 983 1332 993 q 1413 960 1390 974 q 1451 930 1436 946 q 1465 901 1465 914 q 1458 882 1465 889 q 1440 875 1451 875 q 1337 828 1386 875 q 1244 708 1288 782 q 1163 545 1201 635 q 1094 369 1125 456 q 1038 209 1063 282 q 994 96 1013 136 z "},"A":{"ha":1356,"x_min":0,"x_max":1413,"o":"m 1161 -14 q 1086 0 1122 -14 q 1023 39 1050 14 q 980 99 996 64 q 964 178 964 135 q 985 354 964 260 q 896 401 942 375 q 799 456 850 428 q 690 262 739 349 q 590 114 642 175 q 479 19 539 53 q 338 -14 419 -14 q 216 16 276 -14 q 108 97 156 46 q 30 213 60 147 q 0 351 0 279 q 24 478 0 419 q 94 581 49 538 q 203 650 139 625 q 346 675 267 675 q 535 649 442 675 q 718 586 628 622 q 836 769 782 690 q 941 901 890 849 q 1041 979 992 953 q 1144 1006 1090 1006 q 1218 989 1188 1006 q 1256 965 1249 972 q 1315 990 1285 983 q 1368 996 1346 996 q 1410 976 1410 996 q 1402 960 1410 969 q 1376 931 1394 951 q 1338 865 1363 914 q 1286 747 1314 815 q 1229 599 1258 679 q 1176 438 1200 518 l 1193 438 q 1230 443 1213 438 q 1262 455 1247 449 q 1287 467 1276 461 q 1304 472 1297 472 q 1313 468 1308 472 q 1317 456 1317 464 q 1302 425 1317 446 q 1264 382 1288 404 q 1210 340 1240 360 q 1146 315 1179 321 q 1133 238 1138 275 q 1128 171 1128 201 q 1151 101 1128 122 q 1207 79 1175 79 q 1262 97 1235 79 q 1310 139 1289 115 q 1356 199 1335 164 q 1363 208 1357 203 q 1371 215 1365 211 q 1383 218 1376 218 q 1403 210 1394 218 q 1413 190 1413 201 q 1410 180 1413 185 q 1406 169 1408 175 q 1400 157 1403 164 q 1332 71 1369 108 q 1256 13 1300 39 q 1161 -14 1213 -14 m 306 126 q 397 150 356 126 q 481 222 439 174 q 570 342 524 269 q 675 513 617 415 q 566 547 622 533 q 450 560 510 560 q 215 488 300 560 q 131 297 131 417 q 144 228 131 260 q 182 174 158 196 q 238 139 206 151 q 306 126 269 126 m 843 533 q 930 499 888 515 q 1014 469 972 482 q 1102 710 1050 593 q 1206 921 1154 828 q 1192 925 1199 924 q 1175 926 1186 926 q 1103 904 1138 926 q 1031 835 1069 882 q 948 713 993 788 q 843 533 903 638 z "},"Ń":{"ha":1188,"x_min":0,"x_max":1465,"o":"m 994 96 q 966 54 985 74 q 928 19 947 35 q 890 -5 908 4 q 864 -14 872 -14 q 832 -1 849 -14 q 801 33 815 11 q 778 83 788 56 q 764 143 768 111 q 757 241 760 175 q 751 381 754 307 q 747 527 749 456 q 746 643 746 599 q 706 512 728 583 q 655 367 683 440 q 592 226 626 294 q 517 103 558 157 q 428 18 476 50 q 324 -14 379 -14 q 201 10 260 -14 q 98 71 143 35 q 26 149 53 107 q 0 226 0 190 q 26 303 0 268 q 91 364 53 339 q 171 403 129 389 q 243 418 213 418 q 268 412 258 418 q 278 397 278 406 q 272 378 278 386 q 250 357 265 369 q 224 333 239 347 q 194 299 208 319 q 172 254 181 279 q 163 199 163 229 q 191 126 163 154 q 260 97 219 97 q 347 142 299 97 q 443 256 394 186 q 538 414 492 326 q 619 586 583 501 q 677 744 656 671 q 699 860 699 817 q 682 903 699 885 q 626 922 665 922 q 549 901 594 922 q 463 843 504 879 q 393 760 422 807 q 364 663 364 713 q 375 607 364 631 q 399 567 386 583 q 422 539 411 550 q 433 521 433 528 q 404 493 433 493 q 338 508 376 493 q 265 549 300 522 q 207 610 231 575 q 183 686 183 644 q 228 808 183 750 q 342 910 274 867 q 494 980 411 954 q 653 1006 576 1006 q 728 991 686 1006 q 807 947 769 976 q 871 873 844 918 q 900 768 897 828 q 904 633 903 704 q 909 488 906 561 q 917 343 913 415 q 932 207 922 271 q 952 268 939 225 q 983 370 965 311 q 1024 498 1001 429 q 1074 636 1047 567 q 1128 770 1100 706 q 1186 884 1157 835 q 1245 963 1215 933 q 1303 993 1275 993 q 1361 983 1332 993 q 1413 960 1390 974 q 1451 930 1436 946 q 1465 901 1465 914 q 1458 882 1465 889 q 1440 875 1451 875 q 1337 828 1386 875 q 1244 708 1288 782 q 1163 545 1201 635 q 1094 369 1125 456 q 1038 209 1063 282 q 994 96 1013 136 m 1138 1242 q 1158 1232 1146 1242 q 1181 1208 1169 1222 q 1201 1177 1193 1193 q 1208 1150 1208 1161 q 1202 1122 1208 1133 q 1175 1092 1196 1110 q 1124 1058 1153 1072 q 1067 1035 1096 1044 q 1014 1022 1039 1026 q 972 1017 989 1017 q 954 1023 961 1017 q 947 1038 947 1029 q 951 1051 947 1046 q 969 1064 956 1057 q 1037 1123 1001 1083 q 1104 1214 1072 1163 q 1119 1235 1113 1228 q 1138 1242 1126 1242 z "},"Ň":{"ha":1188,"x_min":0,"x_max":1465,"o":"m 994 96 q 966 54 985 74 q 928 19 947 35 q 890 -5 908 4 q 864 -14 872 -14 q 832 -1 849 -14 q 801 33 815 11 q 778 83 788 56 q 764 143 768 111 q 757 241 760 175 q 751 381 754 307 q 747 527 749 456 q 746 643 746 599 q 706 512 728 583 q 655 367 683 440 q 592 226 626 294 q 517 103 558 157 q 428 18 476 50 q 324 -14 379 -14 q 201 10 260 -14 q 98 71 143 35 q 26 149 53 107 q 0 226 0 190 q 26 303 0 268 q 91 364 53 339 q 171 403 129 389 q 243 418 213 418 q 268 412 258 418 q 278 397 278 406 q 272 378 278 386 q 250 357 265 369 q 224 333 239 347 q 194 299 208 319 q 172 254 181 279 q 163 199 163 229 q 191 126 163 154 q 260 97 219 97 q 347 142 299 97 q 443 256 394 186 q 538 414 492 326 q 619 586 583 501 q 677 744 656 671 q 699 860 699 817 q 682 903 699 885 q 626 922 665 922 q 549 901 594 922 q 463 843 504 879 q 393 760 422 807 q 364 663 364 713 q 375 607 364 631 q 399 567 386 583 q 422 539 411 550 q 433 521 433 528 q 404 493 433 493 q 338 508 376 493 q 265 549 300 522 q 207 610 231 575 q 183 686 183 644 q 228 808 183 750 q 342 910 274 867 q 494 980 411 954 q 653 1006 576 1006 q 728 991 686 1006 q 807 947 769 976 q 871 873 844 918 q 900 768 897 828 q 904 633 903 704 q 909 488 906 561 q 917 343 913 415 q 932 207 922 271 q 952 268 939 225 q 983 370 965 311 q 1024 498 1001 429 q 1074 636 1047 567 q 1128 770 1100 706 q 1186 884 1157 835 q 1245 963 1215 933 q 1303 993 1275 993 q 1361 983 1332 993 q 1413 960 1390 974 q 1451 930 1436 946 q 1465 901 1465 914 q 1458 882 1465 889 q 1440 875 1451 875 q 1337 828 1386 875 q 1244 708 1288 782 q 1163 545 1201 635 q 1094 369 1125 456 q 1038 209 1063 282 q 994 96 1013 136 m 1024 1033 q 995 1042 1011 1033 q 963 1067 979 1051 q 932 1100 947 1082 q 904 1138 917 1118 q 875 1187 883 1168 q 867 1218 867 1206 q 873 1236 867 1231 q 886 1242 879 1242 q 904 1235 894 1242 q 929 1217 914 1228 q 993 1174 961 1188 q 1053 1160 1025 1160 q 1163 1219 1099 1160 q 1189 1241 1178 1233 q 1211 1249 1200 1249 q 1233 1226 1233 1249 q 1217 1188 1233 1213 q 1153 1114 1201 1163 q 1084 1056 1121 1079 q 1024 1033 1047 1033 z "},"Ñ":{"ha":1188,"x_min":0,"x_max":1465,"o":"m 994 96 q 966 54 985 74 q 928 19 947 35 q 890 -5 908 4 q 864 -14 872 -14 q 832 -1 849 -14 q 801 33 815 11 q 778 83 788 56 q 764 143 768 111 q 757 241 760 175 q 751 381 754 307 q 747 527 749 456 q 746 643 746 599 q 706 512 728 583 q 655 367 683 440 q 592 226 626 294 q 517 103 558 157 q 428 18 476 50 q 324 -14 379 -14 q 201 10 260 -14 q 98 71 143 35 q 26 149 53 107 q 0 226 0 190 q 26 303 0 268 q 91 364 53 339 q 171 403 129 389 q 243 418 213 418 q 268 412 258 418 q 278 397 278 406 q 272 378 278 386 q 250 357 265 369 q 224 333 239 347 q 194 299 208 319 q 172 254 181 279 q 163 199 163 229 q 191 126 163 154 q 260 97 219 97 q 347 142 299 97 q 443 256 394 186 q 538 414 492 326 q 619 586 583 501 q 677 744 656 671 q 699 860 699 817 q 682 903 699 885 q 626 922 665 922 q 549 901 594 922 q 463 843 504 879 q 393 760 422 807 q 364 663 364 713 q 375 607 364 631 q 399 567 386 583 q 422 539 411 550 q 433 521 433 528 q 404 493 433 493 q 338 508 376 493 q 265 549 300 522 q 207 610 231 575 q 183 686 183 644 q 228 808 183 750 q 342 910 274 867 q 494 980 411 954 q 653 1006 576 1006 q 728 991 686 1006 q 807 947 769 976 q 871 873 844 918 q 900 768 897 828 q 904 633 903 704 q 909 488 906 561 q 917 343 913 415 q 932 207 922 271 q 952 268 939 225 q 983 370 965 311 q 1024 498 1001 429 q 1074 636 1047 567 q 1128 770 1100 706 q 1186 884 1157 835 q 1245 963 1215 933 q 1303 993 1275 993 q 1361 983 1332 993 q 1413 960 1390 974 q 1451 930 1436 946 q 1465 901 1465 914 q 1458 882 1465 889 q 1440 875 1451 875 q 1337 828 1386 875 q 1244 708 1288 782 q 1163 545 1201 635 q 1094 369 1125 456 q 1038 209 1063 282 q 994 96 1013 136 m 1132 1032 q 1075 1040 1107 1032 q 1010 1057 1043 1047 q 945 1074 976 1067 q 889 1082 914 1082 q 839 1068 863 1082 q 804 1054 815 1054 q 792 1059 797 1054 q 786 1072 786 1064 q 791 1088 786 1079 q 801 1104 796 1097 q 824 1132 810 1117 q 856 1160 839 1147 q 891 1181 872 1172 q 928 1190 910 1190 q 983 1182 953 1190 q 1043 1164 1013 1174 q 1103 1146 1074 1154 q 1160 1138 1133 1138 q 1191 1142 1176 1138 q 1218 1153 1206 1147 q 1240 1165 1231 1160 q 1256 1169 1250 1169 q 1268 1166 1263 1169 q 1274 1156 1274 1163 q 1271 1142 1274 1149 q 1265 1129 1268 1135 q 1208 1063 1242 1094 q 1132 1032 1175 1032 z "},"O":{"ha":801,"x_min":1,"x_max":846,"o":"m 529 1006 q 653 982 596 1006 q 754 917 711 958 q 822 818 797 875 q 846 693 846 761 q 827 532 846 615 q 774 370 808 449 q 690 222 739 292 q 580 99 640 151 q 449 17 519 47 q 301 -14 379 -14 q 188 10 242 -14 q 92 77 133 35 q 26 178 50 119 q 1 308 1 238 q 24 488 1 400 q 85 652 46 575 q 175 794 124 729 q 285 906 226 860 q 406 979 343 953 q 529 1006 468 1006 m 568 929 q 489 908 528 929 q 419 851 450 888 q 370 767 389 815 q 351 663 351 718 q 360 605 351 631 q 382 561 368 579 q 414 533 396 543 q 450 524 432 524 q 471 526 465 524 q 483 529 476 529 q 500 513 500 529 q 493 497 500 506 q 472 478 486 488 q 435 462 458 468 q 382 456 413 456 q 326 470 354 456 q 274 511 297 485 q 237 574 251 538 q 222 653 222 610 q 196 574 207 619 q 177 476 185 533 q 169 340 169 418 q 183 226 169 276 q 220 142 197 176 q 272 90 243 108 q 332 72 301 72 q 422 105 379 72 q 503 192 465 138 q 572 321 540 247 q 624 476 603 394 q 658 642 646 557 q 669 806 669 726 q 639 897 669 865 q 568 929 608 929 z "},"Œ":{"ha":1171,"x_min":1,"x_max":1306,"o":"m 1193 897 q 1172 933 1193 919 q 1122 946 1151 946 q 1047 926 1085 946 q 977 874 1008 907 q 926 794 946 840 q 907 693 907 747 q 912 646 907 667 q 924 610 917 625 q 940 578 931 592 q 967 582 951 579 q 997 585 979 583 q 1036 586 1014 586 q 1118 538 1118 586 q 1094 495 1118 517 q 1029 474 1069 474 q 983 477 1004 474 q 947 486 963 481 q 917 500 931 492 q 825 428 865 469 q 762 339 790 392 q 733 215 733 286 q 781 85 733 128 q 915 43 828 43 q 990 58 953 43 q 1060 94 1026 72 q 1122 144 1093 117 q 1171 199 1150 172 q 1179 208 1174 203 q 1188 215 1183 211 q 1200 218 1193 218 q 1221 210 1213 218 q 1229 190 1229 201 q 1226 180 1229 185 q 1221 169 1224 175 q 1214 157 1217 164 q 1162 95 1194 129 q 1085 31 1129 61 q 986 -19 1040 1 q 868 -40 932 -40 q 782 -33 825 -40 q 699 -8 739 -25 q 626 33 660 8 q 572 93 593 58 q 444 15 513 43 q 301 -14 376 -14 q 188 10 242 -14 q 92 77 133 35 q 26 178 50 119 q 1 308 1 238 q 24 488 1 400 q 85 652 46 575 q 175 794 124 729 q 285 906 226 860 q 406 979 343 953 q 529 1006 468 1006 q 685 967 615 1006 q 797 864 756 929 q 865 922 826 896 q 947 966 903 947 q 1036 995 990 985 q 1126 1006 1082 1006 q 1197 997 1164 1006 q 1253 972 1229 988 q 1292 933 1278 956 q 1306 882 1306 910 q 1286 826 1306 854 q 1241 776 1267 799 q 1190 740 1215 754 q 1156 726 1165 726 q 1138 731 1143 726 q 1132 743 1132 736 q 1142 767 1132 753 q 1163 799 1151 781 q 1183 842 1174 818 q 1193 897 1193 867 m 568 929 q 489 908 528 929 q 419 851 450 888 q 370 767 389 815 q 351 663 351 718 q 360 605 351 631 q 382 561 368 579 q 414 533 396 543 q 450 524 432 524 q 471 526 465 524 q 483 529 476 529 q 500 513 500 529 q 493 497 500 506 q 472 478 486 488 q 435 462 458 468 q 382 456 413 456 q 326 470 354 456 q 274 511 297 485 q 237 574 251 538 q 222 653 222 610 q 196 574 207 619 q 177 476 185 533 q 169 340 169 418 q 183 226 169 276 q 220 142 197 176 q 272 90 243 108 q 332 72 301 72 q 408 105 368 72 q 485 192 447 138 q 556 321 522 247 q 615 476 589 394 q 655 642 640 557 q 669 806 669 726 q 639 897 669 865 q 568 929 608 929 z "},"Ó":{"ha":801,"x_min":1,"x_max":846,"o":"m 529 1006 q 653 982 596 1006 q 754 917 711 958 q 822 818 797 875 q 846 693 846 761 q 827 532 846 615 q 774 370 808 449 q 690 222 739 292 q 580 99 640 151 q 449 17 519 47 q 301 -14 379 -14 q 188 10 242 -14 q 92 77 133 35 q 26 178 50 119 q 1 308 1 238 q 24 488 1 400 q 85 652 46 575 q 175 794 124 729 q 285 906 226 860 q 406 979 343 953 q 529 1006 468 1006 m 568 929 q 489 908 528 929 q 419 851 450 888 q 370 767 389 815 q 351 663 351 718 q 360 605 351 631 q 382 561 368 579 q 414 533 396 543 q 450 524 432 524 q 471 526 465 524 q 483 529 476 529 q 500 513 500 529 q 493 497 500 506 q 472 478 486 488 q 435 462 458 468 q 382 456 413 456 q 326 470 354 456 q 274 511 297 485 q 237 574 251 538 q 222 653 222 610 q 196 574 207 619 q 177 476 185 533 q 169 340 169 418 q 183 226 169 276 q 220 142 197 176 q 272 90 243 108 q 332 72 301 72 q 422 105 379 72 q 503 192 465 138 q 572 321 540 247 q 624 476 603 394 q 658 642 646 557 q 669 806 669 726 q 639 897 669 865 q 568 929 608 929 m 656 1296 q 676 1286 664 1296 q 699 1262 688 1276 q 719 1231 711 1247 q 726 1204 726 1215 q 720 1176 726 1188 q 693 1146 714 1164 q 642 1113 671 1126 q 585 1090 614 1099 q 532 1076 557 1081 q 490 1071 507 1071 q 472 1077 479 1071 q 465 1092 465 1083 q 469 1106 465 1100 q 488 1118 474 1111 q 555 1177 519 1138 q 622 1268 590 1217 q 638 1289 631 1282 q 656 1296 644 1296 z "},"Ŏ":{"ha":801,"x_min":1,"x_max":846,"o":"m 529 1006 q 653 982 596 1006 q 754 917 711 958 q 822 818 797 875 q 846 693 846 761 q 827 532 846 615 q 774 370 808 449 q 690 222 739 292 q 580 99 640 151 q 449 17 519 47 q 301 -14 379 -14 q 188 10 242 -14 q 92 77 133 35 q 26 178 50 119 q 1 308 1 238 q 24 488 1 400 q 85 652 46 575 q 175 794 124 729 q 285 906 226 860 q 406 979 343 953 q 529 1006 468 1006 m 568 929 q 489 908 528 929 q 419 851 450 888 q 370 767 389 815 q 351 663 351 718 q 360 605 351 631 q 382 561 368 579 q 414 533 396 543 q 450 524 432 524 q 471 526 465 524 q 483 529 476 529 q 500 513 500 529 q 493 497 500 506 q 472 478 486 488 q 435 462 458 468 q 382 456 413 456 q 326 470 354 456 q 274 511 297 485 q 237 574 251 538 q 222 653 222 610 q 196 574 207 619 q 177 476 185 533 q 169 340 169 418 q 183 226 169 276 q 220 142 197 176 q 272 90 243 108 q 332 72 301 72 q 422 105 379 72 q 503 192 465 138 q 572 321 540 247 q 624 476 603 394 q 658 642 646 557 q 669 806 669 726 q 639 897 669 865 q 568 929 608 929 m 567 1082 q 441 1119 490 1082 q 392 1224 392 1157 q 416 1283 392 1263 q 468 1303 440 1303 q 511 1260 511 1303 q 509 1244 511 1250 q 505 1234 507 1239 q 501 1224 503 1229 q 499 1210 499 1218 q 520 1178 499 1190 q 576 1167 542 1167 q 647 1187 625 1167 q 668 1233 668 1207 q 685 1285 668 1269 q 729 1300 701 1300 q 769 1285 753 1300 q 785 1246 785 1271 q 758 1171 785 1210 q 690 1110 736 1139 q 567 1082 643 1082 z "},"Ô":{"ha":801,"x_min":1,"x_max":846,"o":"m 529 1006 q 653 982 596 1006 q 754 917 711 958 q 822 818 797 875 q 846 693 846 761 q 827 532 846 615 q 774 370 808 449 q 690 222 739 292 q 580 99 640 151 q 449 17 519 47 q 301 -14 379 -14 q 188 10 242 -14 q 92 77 133 35 q 26 178 50 119 q 1 308 1 238 q 24 488 1 400 q 85 652 46 575 q 175 794 124 729 q 285 906 226 860 q 406 979 343 953 q 529 1006 468 1006 m 568 929 q 489 908 528 929 q 419 851 450 888 q 370 767 389 815 q 351 663 351 718 q 360 605 351 631 q 382 561 368 579 q 414 533 396 543 q 450 524 432 524 q 471 526 465 524 q 483 529 476 529 q 500 513 500 529 q 493 497 500 506 q 472 478 486 488 q 435 462 458 468 q 382 456 413 456 q 326 470 354 456 q 274 511 297 485 q 237 574 251 538 q 222 653 222 610 q 196 574 207 619 q 177 476 185 533 q 169 340 169 418 q 183 226 169 276 q 220 142 197 176 q 272 90 243 108 q 332 72 301 72 q 422 105 379 72 q 503 192 465 138 q 572 321 540 247 q 624 476 603 394 q 658 642 646 557 q 669 806 669 726 q 639 897 669 865 q 568 929 608 929 m 569 1143 q 561 1140 567 1143 q 550 1135 556 1138 q 500 1108 526 1121 q 450 1084 474 1094 q 409 1067 426 1074 q 385 1060 392 1060 q 367 1067 374 1060 q 360 1083 360 1075 q 382 1117 360 1101 q 448 1165 418 1140 q 518 1232 478 1189 q 547 1265 533 1251 q 588 1279 560 1279 q 610 1275 603 1279 q 624 1264 618 1271 q 633 1247 629 1257 q 644 1226 638 1238 q 690 1164 667 1190 q 736 1118 713 1138 q 756 1103 750 1108 q 761 1086 761 1097 q 753 1069 761 1078 q 735 1060 746 1060 q 715 1063 729 1060 q 681 1075 701 1067 q 636 1098 661 1083 q 585 1135 611 1113 q 569 1143 576 1143 z "},"Ö":{"ha":801,"x_min":1,"x_max":846,"o":"m 529 1006 q 653 982 596 1006 q 754 917 711 958 q 822 818 797 875 q 846 693 846 761 q 827 532 846 615 q 774 370 808 449 q 690 222 739 292 q 580 99 640 151 q 449 17 519 47 q 301 -14 379 -14 q 188 10 242 -14 q 92 77 133 35 q 26 178 50 119 q 1 308 1 238 q 24 488 1 400 q 85 652 46 575 q 175 794 124 729 q 285 906 226 860 q 406 979 343 953 q 529 1006 468 1006 m 568 929 q 489 908 528 929 q 419 851 450 888 q 370 767 389 815 q 351 663 351 718 q 360 605 351 631 q 382 561 368 579 q 414 533 396 543 q 450 524 432 524 q 471 526 465 524 q 483 529 476 529 q 500 513 500 529 q 493 497 500 506 q 472 478 486 488 q 435 462 458 468 q 382 456 413 456 q 326 470 354 456 q 274 511 297 485 q 237 574 251 538 q 222 653 222 610 q 196 574 207 619 q 177 476 185 533 q 169 340 169 418 q 183 226 169 276 q 220 142 197 176 q 272 90 243 108 q 332 72 301 72 q 422 105 379 72 q 503 192 465 138 q 572 321 540 247 q 624 476 603 394 q 658 642 646 557 q 669 806 669 726 q 639 897 669 865 q 568 929 608 929 m 401 1135 q 409 1172 401 1153 q 430 1206 417 1190 q 460 1231 443 1221 q 497 1242 478 1242 q 540 1222 524 1242 q 556 1175 556 1203 q 549 1138 556 1157 q 528 1103 542 1118 q 497 1077 515 1088 q 457 1067 479 1067 q 417 1086 433 1067 q 401 1135 401 1106 m 603 1135 q 610 1172 603 1153 q 631 1206 618 1190 q 662 1231 644 1221 q 699 1242 679 1242 q 741 1222 725 1242 q 757 1175 757 1203 q 750 1138 757 1157 q 730 1103 743 1118 q 699 1077 717 1088 q 658 1067 681 1067 q 619 1086 635 1067 q 603 1135 603 1106 z "},"Ò":{"ha":801,"x_min":1,"x_max":846,"o":"m 529 1006 q 653 982 596 1006 q 754 917 711 958 q 822 818 797 875 q 846 693 846 761 q 827 532 846 615 q 774 370 808 449 q 690 222 739 292 q 580 99 640 151 q 449 17 519 47 q 301 -14 379 -14 q 188 10 242 -14 q 92 77 133 35 q 26 178 50 119 q 1 308 1 238 q 24 488 1 400 q 85 652 46 575 q 175 794 124 729 q 285 906 226 860 q 406 979 343 953 q 529 1006 468 1006 m 568 929 q 489 908 528 929 q 419 851 450 888 q 370 767 389 815 q 351 663 351 718 q 360 605 351 631 q 382 561 368 579 q 414 533 396 543 q 450 524 432 524 q 471 526 465 524 q 483 529 476 529 q 500 513 500 529 q 493 497 500 506 q 472 478 486 488 q 435 462 458 468 q 382 456 413 456 q 326 470 354 456 q 274 511 297 485 q 237 574 251 538 q 222 653 222 610 q 196 574 207 619 q 177 476 185 533 q 169 340 169 418 q 183 226 169 276 q 220 142 197 176 q 272 90 243 108 q 332 72 301 72 q 422 105 379 72 q 503 192 465 138 q 572 321 540 247 q 624 476 603 394 q 658 642 646 557 q 669 806 669 726 q 639 897 669 865 q 568 929 608 929 m 569 1294 q 603 1267 592 1294 q 627 1217 613 1243 q 660 1167 642 1190 q 696 1126 678 1144 q 729 1097 714 1107 q 747 1085 743 1090 q 751 1071 751 1079 q 745 1056 751 1063 q 726 1050 739 1050 q 687 1058 711 1050 q 635 1078 663 1065 q 580 1108 607 1092 q 531 1144 553 1125 q 503 1174 510 1163 q 497 1203 497 1186 q 506 1230 497 1214 q 525 1260 514 1246 q 549 1285 536 1275 q 569 1294 561 1294 z "},"Ő":{"ha":801,"x_min":1,"x_max":886,"o":"m 529 1006 q 653 982 596 1006 q 754 917 711 958 q 822 818 797 875 q 846 693 846 761 q 827 532 846 615 q 774 370 808 449 q 690 222 739 292 q 580 99 640 151 q 449 17 519 47 q 301 -14 379 -14 q 188 10 242 -14 q 92 77 133 35 q 26 178 50 119 q 1 308 1 238 q 24 488 1 400 q 85 652 46 575 q 175 794 124 729 q 285 906 226 860 q 406 979 343 953 q 529 1006 468 1006 m 568 929 q 489 908 528 929 q 419 851 450 888 q 370 767 389 815 q 351 663 351 718 q 360 605 351 631 q 382 561 368 579 q 414 533 396 543 q 450 524 432 524 q 471 526 465 524 q 483 529 476 529 q 500 513 500 529 q 493 497 500 506 q 472 478 486 488 q 435 462 458 468 q 382 456 413 456 q 326 470 354 456 q 274 511 297 485 q 237 574 251 538 q 222 653 222 610 q 196 574 207 619 q 177 476 185 533 q 169 340 169 418 q 183 226 169 276 q 220 142 197 176 q 272 90 243 108 q 332 72 301 72 q 422 105 379 72 q 503 192 465 138 q 572 321 540 247 q 624 476 603 394 q 658 642 646 557 q 669 806 669 726 q 639 897 669 865 q 568 929 608 929 m 582 1297 q 602 1288 590 1297 q 626 1264 614 1278 q 645 1234 638 1250 q 653 1207 653 1218 q 647 1178 653 1189 q 619 1149 640 1167 q 572 1115 597 1129 q 519 1091 546 1100 q 470 1077 493 1082 q 432 1072 447 1072 q 413 1079 419 1072 q 407 1093 407 1086 q 411 1108 407 1101 q 429 1121 415 1114 q 494 1174 461 1140 q 549 1269 528 1207 q 582 1297 558 1297 m 815 1297 q 835 1288 824 1297 q 859 1264 847 1278 q 878 1234 871 1250 q 886 1207 886 1218 q 880 1178 886 1189 q 853 1149 874 1167 q 805 1115 831 1129 q 753 1091 779 1100 q 703 1077 726 1082 q 665 1072 681 1072 q 647 1079 653 1072 q 640 1093 640 1086 q 644 1108 640 1101 q 663 1121 649 1114 q 728 1174 694 1140 q 782 1269 761 1207 q 815 1297 792 1297 z "},"Ō":{"ha":801,"x_min":1,"x_max":846,"o":"m 529 1006 q 653 982 596 1006 q 754 917 711 958 q 822 818 797 875 q 846 693 846 761 q 827 532 846 615 q 774 370 808 449 q 690 222 739 292 q 580 99 640 151 q 449 17 519 47 q 301 -14 379 -14 q 188 10 242 -14 q 92 77 133 35 q 26 178 50 119 q 1 308 1 238 q 24 488 1 400 q 85 652 46 575 q 175 794 124 729 q 285 906 226 860 q 406 979 343 953 q 529 1006 468 1006 m 568 929 q 489 908 528 929 q 419 851 450 888 q 370 767 389 815 q 351 663 351 718 q 360 605 351 631 q 382 561 368 579 q 414 533 396 543 q 450 524 432 524 q 471 526 465 524 q 483 529 476 529 q 500 513 500 529 q 493 497 500 506 q 472 478 486 488 q 435 462 458 468 q 382 456 413 456 q 326 470 354 456 q 274 511 297 485 q 237 574 251 538 q 222 653 222 610 q 196 574 207 619 q 177 476 185 533 q 169 340 169 418 q 183 226 169 276 q 220 142 197 176 q 272 90 243 108 q 332 72 301 72 q 422 105 379 72 q 503 192 465 138 q 572 321 540 247 q 624 476 603 394 q 658 642 646 557 q 669 806 669 726 q 639 897 669 865 q 568 929 608 929 m 408 1060 q 386 1082 386 1060 q 390 1103 386 1089 q 399 1131 393 1117 q 412 1155 404 1144 q 429 1165 419 1165 l 783 1165 q 804 1161 799 1165 q 810 1144 810 1157 q 806 1123 810 1138 q 795 1094 801 1108 q 781 1070 789 1081 q 763 1060 772 1060 l 408 1060 z "},"Ω":{"ha":829,"x_min":10,"x_max":951,"o":"m 786 -3 q 695 12 743 -3 q 593 26 647 26 q 561 22 575 26 q 535 13 547 18 q 512 3 522 7 q 492 -1 501 -1 q 480 4 485 -1 q 475 21 475 10 q 483 56 475 32 q 505 106 492 79 q 533 157 518 132 q 561 196 549 182 q 608 263 578 214 q 668 380 639 311 q 719 531 697 449 q 742 700 742 614 q 701 874 742 822 q 585 926 661 926 q 503 902 543 926 q 434 833 464 878 q 386 726 404 789 q 368 585 368 663 q 376 403 368 476 q 394 281 385 331 q 413 197 404 231 q 421 136 421 164 q 410 101 421 125 q 381 55 399 78 q 342 15 364 32 q 300 -3 321 -3 q 225 7 257 -3 q 157 17 193 17 q 103 13 125 17 q 67 3 82 8 q 44 -6 53 -1 q 26 -10 35 -10 q 15 -4 19 -10 q 10 13 10 1 q 22 53 10 26 q 57 104 35 79 q 108 148 79 129 q 174 167 138 167 q 260 155 224 167 q 335 143 297 143 q 288 201 317 161 q 231 297 258 240 q 183 426 203 354 q 163 579 163 497 q 197 754 163 675 q 290 889 232 833 q 425 975 349 944 q 585 1006 501 1006 q 735 982 668 1006 q 851 915 803 958 q 925 808 899 871 q 951 668 951 746 q 917 501 951 583 q 835 351 883 419 q 737 233 788 282 q 653 164 686 183 q 728 153 696 161 q 806 144 761 144 q 856 151 840 144 q 883 158 872 158 q 907 136 907 158 q 896 101 907 125 q 867 55 885 78 q 828 15 849 32 q 786 -3 807 -3 z "},"Ø":{"ha":801,"x_min":1,"x_max":846,"o":"m 688 1040 q 686 1022 688 1031 q 682 1004 685 1013 l 669 975 q 797 865 749 939 q 846 693 846 790 q 827 532 846 615 q 774 370 808 449 q 690 222 739 292 q 580 99 640 151 q 449 17 519 47 q 301 -14 379 -14 q 256 -10 278 -14 l 240 -47 q 231 -64 238 -58 q 218 -69 225 -69 l 176 -69 q 153 -66 164 -69 q 142 -44 142 -62 q 143 -31 142 -37 q 147 -17 144 -25 l 163 21 q 47 135 92 61 q 1 308 1 210 q 24 488 1 400 q 85 652 46 575 q 175 794 124 729 q 285 906 226 860 q 406 979 343 953 q 529 1006 468 1006 q 549 1005 539 1006 q 568 1003 558 1004 l 589 1051 q 597 1067 592 1060 q 610 1075 603 1075 q 662 1065 636 1075 q 688 1040 688 1056 m 669 806 q 661 860 669 836 q 638 899 653 883 l 293 79 q 332 72 314 72 q 422 105 379 72 q 503 192 465 138 q 572 321 540 247 q 624 476 603 394 q 658 642 646 557 q 669 806 669 726 m 169 340 q 182 231 169 278 q 215 149 194 183 l 538 926 q 390 867 457 918 q 273 735 322 815 q 197 552 224 654 q 169 340 169 450 z "},"Õ":{"ha":801,"x_min":1,"x_max":876,"o":"m 529 1006 q 653 982 596 1006 q 754 917 711 958 q 822 818 797 875 q 846 693 846 761 q 827 532 846 615 q 774 370 808 449 q 690 222 739 292 q 580 99 640 151 q 449 17 519 47 q 301 -14 379 -14 q 188 10 242 -14 q 92 77 133 35 q 26 178 50 119 q 1 308 1 238 q 24 488 1 400 q 85 652 46 575 q 175 794 124 729 q 285 906 226 860 q 406 979 343 953 q 529 1006 468 1006 m 568 929 q 489 908 528 929 q 419 851 450 888 q 370 767 389 815 q 351 663 351 718 q 360 605 351 631 q 382 561 368 579 q 414 533 396 543 q 450 524 432 524 q 471 526 465 524 q 483 529 476 529 q 500 513 500 529 q 493 497 500 506 q 472 478 486 488 q 435 462 458 468 q 382 456 413 456 q 326 470 354 456 q 274 511 297 485 q 237 574 251 538 q 222 653 222 610 q 196 574 207 619 q 177 476 185 533 q 169 340 169 418 q 183 226 169 276 q 220 142 197 176 q 272 90 243 108 q 332 72 301 72 q 422 105 379 72 q 503 192 465 138 q 572 321 540 247 q 624 476 603 394 q 658 642 646 557 q 669 806 669 726 q 639 897 669 865 q 568 929 608 929 m 735 1056 q 678 1063 710 1056 q 613 1081 646 1071 q 548 1098 579 1090 q 492 1106 517 1106 q 442 1092 465 1106 q 407 1078 418 1078 q 394 1083 400 1078 q 389 1096 389 1088 q 394 1112 389 1103 q 404 1128 399 1121 q 427 1156 413 1140 q 458 1183 442 1171 q 494 1205 475 1196 q 531 1214 513 1214 q 585 1206 556 1214 q 646 1188 615 1197 q 706 1169 676 1178 q 763 1161 736 1161 q 794 1166 779 1161 q 821 1177 808 1171 q 843 1188 833 1183 q 858 1193 853 1193 q 871 1190 865 1193 q 876 1179 876 1186 q 874 1165 876 1172 q 868 1153 871 1158 q 811 1087 844 1118 q 735 1056 778 1056 z "},"P":{"ha":1131,"x_min":-1,"x_max":1226,"o":"m 817 332 q 737 344 758 332 q 715 367 715 356 q 722 383 715 376 q 736 390 728 390 q 846 413 792 390 q 943 478 900 436 q 1013 577 986 519 q 1039 704 1039 635 q 967 865 1039 806 q 761 925 894 925 q 588 904 664 925 q 460 846 513 883 q 381 756 408 808 q 354 642 354 704 q 365 588 354 610 q 389 552 376 567 q 413 528 401 538 q 424 513 424 519 q 394 486 424 486 q 328 499 367 486 q 256 534 290 511 q 198 590 222 557 q 174 664 174 622 q 224 805 174 742 q 358 913 275 868 q 547 981 440 957 q 764 1006 653 1006 q 956 981 869 1006 q 1101 914 1042 957 q 1194 814 1161 871 q 1226 690 1226 757 q 1183 538 1226 604 q 1078 425 1140 471 q 944 356 1015 379 q 817 332 872 332 m 636 796 q 679 826 653 813 q 732 848 706 839 q 780 861 758 857 q 808 865 801 865 q 835 846 835 865 q 827 833 835 842 q 808 810 819 825 q 783 772 797 794 q 756 718 768 750 q 735 668 744 692 q 717 613 726 644 q 697 537 708 582 q 669 421 685 492 q 608 214 642 297 q 532 80 574 131 q 440 8 490 29 q 329 -14 389 -14 q 196 12 257 -14 q 91 75 135 38 q 23 156 47 113 q -1 236 -1 200 q 25 305 -1 272 q 90 363 51 338 q 169 403 128 388 q 242 418 211 418 q 276 396 276 418 q 272 379 276 385 q 251 364 267 374 q 185 298 215 340 q 156 207 156 256 q 165 157 156 181 q 192 116 175 133 q 233 88 210 99 q 285 78 257 78 q 403 165 349 78 q 507 447 458 253 q 540 580 525 525 q 568 674 554 635 q 598 742 582 714 q 636 796 614 771 z "},"Q":{"ha":892,"x_min":0,"x_max":949,"o":"m 757 793 q 720 891 757 856 q 629 926 683 926 q 457 879 539 926 q 313 756 375 832 q 215 586 251 681 q 179 399 179 492 q 204 313 179 342 q 268 283 229 283 q 340 313 307 283 q 399 389 374 343 q 438 489 424 435 q 451 592 451 543 q 446 638 451 618 q 433 669 440 657 q 419 690 425 682 q 414 706 414 699 q 423 722 414 714 q 439 729 432 729 q 485 716 458 729 q 535 680 511 703 q 576 626 560 657 q 593 563 593 596 q 565 442 593 504 q 488 327 536 379 q 376 242 440 275 q 242 208 313 208 q 166 222 208 208 q 87 262 124 235 q 25 331 50 289 q 0 433 0 374 q 22 565 0 497 q 85 696 44 632 q 184 816 126 760 q 312 915 242 872 q 463 981 382 957 q 632 1006 544 1006 q 760 983 701 1006 q 860 922 818 961 q 925 833 901 883 q 949 726 949 782 q 906 526 949 628 q 792 333 863 425 q 629 163 721 240 q 442 38 538 86 q 512 -17 478 10 q 579 -64 546 -43 q 645 -97 613 -85 q 711 -110 678 -110 q 762 -103 739 -110 q 801 -87 785 -96 q 831 -71 818 -78 q 850 -64 843 -64 q 864 -68 857 -64 q 871 -82 871 -72 q 851 -124 871 -93 q 802 -187 832 -154 q 736 -244 772 -219 q 665 -269 700 -269 q 585 -244 625 -269 q 503 -178 544 -218 q 419 -93 461 -139 q 336 -7 378 -47 q 264 -25 300 -18 q 193 -32 228 -32 q 100 -10 140 -32 q 60 57 60 13 q 91 113 60 88 q 171 138 122 138 q 350 82 257 138 q 503 213 429 131 q 633 392 576 294 q 723 595 689 490 q 757 793 757 700 z "},"R":{"ha":1215,"x_min":-1,"x_max":1272,"o":"m 1021 -14 q 890 14 943 -14 q 814 100 836 42 q 797 181 801 133 q 793 296 793 229 q 785 354 793 332 q 765 389 776 376 q 689 385 728 385 l 661 385 q 600 196 633 272 q 526 73 567 119 q 436 6 485 26 q 329 -14 388 -14 q 196 12 257 -14 q 91 75 135 38 q 23 156 47 113 q -1 236 -1 200 q 25 315 -1 279 q 90 377 51 351 q 169 417 128 403 q 242 432 211 432 q 267 425 257 432 q 276 410 276 418 q 272 394 276 399 q 251 378 267 389 q 223 350 239 368 q 194 310 207 332 q 172 262 181 288 q 163 211 163 236 q 172 161 163 185 q 197 119 181 138 q 235 89 213 100 q 285 78 257 78 q 403 165 349 78 q 507 447 458 253 q 540 578 525 524 q 568 674 554 633 q 598 742 582 714 q 636 796 614 771 q 679 826 653 813 q 732 848 706 839 q 780 861 758 857 q 808 865 801 865 q 835 846 835 865 q 827 833 835 842 q 808 810 819 825 q 783 772 797 794 q 756 718 768 750 q 738 672 746 693 q 721 624 729 651 q 702 560 713 597 q 679 468 692 524 q 806 492 746 469 q 913 551 867 514 q 985 639 958 589 q 1013 746 1013 689 q 953 877 1013 829 q 761 925 894 925 q 588 905 664 925 q 460 849 513 885 q 381 767 408 814 q 354 668 354 721 q 365 615 354 636 q 389 578 376 593 q 413 555 401 564 q 424 539 424 546 q 394 513 424 513 q 328 525 367 513 q 256 560 290 538 q 198 616 222 583 q 174 690 174 649 q 224 813 174 756 q 358 913 275 871 q 547 981 440 956 q 764 1006 653 1006 q 951 985 869 1006 q 1088 928 1033 964 q 1172 844 1143 893 q 1200 739 1200 794 q 1174 631 1200 682 q 1105 539 1149 581 q 1003 465 1061 497 q 881 414 944 433 q 919 376 900 403 q 944 296 938 349 q 988 130 961 181 q 1067 79 1014 79 q 1122 97 1094 79 q 1169 139 1149 115 q 1215 199 1194 164 q 1222 208 1217 203 q 1231 215 1225 211 q 1243 218 1236 218 q 1263 210 1254 218 q 1272 190 1272 201 q 1270 180 1272 185 q 1265 169 1268 175 q 1260 157 1263 164 q 1192 71 1229 108 q 1116 13 1160 39 q 1021 -14 1072 -14 z "},"Ŕ":{"ha":1215,"x_min":-1,"x_max":1272,"o":"m 1021 -14 q 890 14 943 -14 q 814 100 836 42 q 797 181 801 133 q 793 296 793 229 q 785 354 793 332 q 765 389 776 376 q 689 385 728 385 l 661 385 q 600 196 633 272 q 526 73 567 119 q 436 6 485 26 q 329 -14 388 -14 q 196 12 257 -14 q 91 75 135 38 q 23 156 47 113 q -1 236 -1 200 q 25 315 -1 279 q 90 377 51 351 q 169 417 128 403 q 242 432 211 432 q 267 425 257 432 q 276 410 276 418 q 272 394 276 399 q 251 378 267 389 q 223 350 239 368 q 194 310 207 332 q 172 262 181 288 q 163 211 163 236 q 172 161 163 185 q 197 119 181 138 q 235 89 213 100 q 285 78 257 78 q 403 165 349 78 q 507 447 458 253 q 540 578 525 524 q 568 674 554 633 q 598 742 582 714 q 636 796 614 771 q 679 826 653 813 q 732 848 706 839 q 780 861 758 857 q 808 865 801 865 q 835 846 835 865 q 827 833 835 842 q 808 810 819 825 q 783 772 797 794 q 756 718 768 750 q 738 672 746 693 q 721 624 729 651 q 702 560 713 597 q 679 468 692 524 q 806 492 746 469 q 913 551 867 514 q 985 639 958 589 q 1013 746 1013 689 q 953 877 1013 829 q 761 925 894 925 q 588 905 664 925 q 460 849 513 885 q 381 767 408 814 q 354 668 354 721 q 365 615 354 636 q 389 578 376 593 q 413 555 401 564 q 424 539 424 546 q 394 513 424 513 q 328 525 367 513 q 256 560 290 538 q 198 616 222 583 q 174 690 174 649 q 224 813 174 756 q 358 913 275 871 q 547 981 440 956 q 764 1006 653 1006 q 951 985 869 1006 q 1088 928 1033 964 q 1172 844 1143 893 q 1200 739 1200 794 q 1174 631 1200 682 q 1105 539 1149 581 q 1003 465 1061 497 q 881 414 944 433 q 919 376 900 403 q 944 296 938 349 q 988 130 961 181 q 1067 79 1014 79 q 1122 97 1094 79 q 1169 139 1149 115 q 1215 199 1194 164 q 1222 208 1217 203 q 1231 215 1225 211 q 1243 218 1236 218 q 1263 210 1254 218 q 1272 190 1272 201 q 1270 180 1272 185 q 1265 169 1268 175 q 1260 157 1263 164 q 1192 71 1229 108 q 1116 13 1160 39 q 1021 -14 1072 -14 m 936 1285 q 956 1275 944 1285 q 980 1251 968 1265 q 999 1220 992 1236 q 1007 1193 1007 1204 q 1001 1165 1007 1176 q 974 1135 994 1153 q 923 1101 951 1115 q 866 1078 894 1088 q 813 1065 838 1069 q 771 1060 788 1060 q 753 1066 760 1060 q 746 1081 746 1072 q 750 1094 746 1089 q 768 1107 754 1100 q 835 1166 800 1126 q 903 1257 871 1206 q 918 1278 911 1271 q 936 1285 925 1285 z "},"Ř":{"ha":1215,"x_min":-1,"x_max":1272,"o":"m 1021 -14 q 890 14 943 -14 q 814 100 836 42 q 797 181 801 133 q 793 296 793 229 q 785 354 793 332 q 765 389 776 376 q 689 385 728 385 l 661 385 q 600 196 633 272 q 526 73 567 119 q 436 6 485 26 q 329 -14 388 -14 q 196 12 257 -14 q 91 75 135 38 q 23 156 47 113 q -1 236 -1 200 q 25 315 -1 279 q 90 377 51 351 q 169 417 128 403 q 242 432 211 432 q 267 425 257 432 q 276 410 276 418 q 272 394 276 399 q 251 378 267 389 q 223 350 239 368 q 194 310 207 332 q 172 262 181 288 q 163 211 163 236 q 172 161 163 185 q 197 119 181 138 q 235 89 213 100 q 285 78 257 78 q 403 165 349 78 q 507 447 458 253 q 540 578 525 524 q 568 674 554 633 q 598 742 582 714 q 636 796 614 771 q 679 826 653 813 q 732 848 706 839 q 780 861 758 857 q 808 865 801 865 q 835 846 835 865 q 827 833 835 842 q 808 810 819 825 q 783 772 797 794 q 756 718 768 750 q 738 672 746 693 q 721 624 729 651 q 702 560 713 597 q 679 468 692 524 q 806 492 746 469 q 913 551 867 514 q 985 639 958 589 q 1013 746 1013 689 q 953 877 1013 829 q 761 925 894 925 q 588 905 664 925 q 460 849 513 885 q 381 767 408 814 q 354 668 354 721 q 365 615 354 636 q 389 578 376 593 q 413 555 401 564 q 424 539 424 546 q 394 513 424 513 q 328 525 367 513 q 256 560 290 538 q 198 616 222 583 q 174 690 174 649 q 224 813 174 756 q 358 913 275 871 q 547 981 440 956 q 764 1006 653 1006 q 951 985 869 1006 q 1088 928 1033 964 q 1172 844 1143 893 q 1200 739 1200 794 q 1174 631 1200 682 q 1105 539 1149 581 q 1003 465 1061 497 q 881 414 944 433 q 919 376 900 403 q 944 296 938 349 q 988 130 961 181 q 1067 79 1014 79 q 1122 97 1094 79 q 1169 139 1149 115 q 1215 199 1194 164 q 1222 208 1217 203 q 1231 215 1225 211 q 1243 218 1236 218 q 1263 210 1254 218 q 1272 190 1272 201 q 1270 180 1272 185 q 1265 169 1268 175 q 1260 157 1263 164 q 1192 71 1229 108 q 1116 13 1160 39 q 1021 -14 1072 -14 m 788 1072 q 759 1081 775 1072 q 727 1106 743 1090 q 696 1139 711 1121 q 668 1176 681 1157 q 639 1226 647 1207 q 631 1257 631 1244 q 637 1275 631 1269 q 650 1281 643 1281 q 668 1274 658 1281 q 693 1256 678 1267 q 757 1213 725 1226 q 817 1199 789 1199 q 926 1258 863 1199 q 953 1280 942 1272 q 975 1288 964 1288 q 997 1265 997 1288 q 981 1226 997 1251 q 917 1153 965 1201 q 848 1095 885 1118 q 788 1072 811 1072 z "},"S":{"ha":811,"x_min":24,"x_max":908,"o":"m 697 924 q 631 910 661 924 q 578 876 600 897 q 543 826 556 854 q 531 767 531 797 q 546 682 531 724 q 583 600 561 640 q 632 519 606 560 q 681 439 658 479 q 718 358 703 399 q 733 276 733 318 q 704 161 733 214 q 627 69 675 108 q 519 8 579 31 q 396 -14 458 -14 q 238 10 307 -14 q 121 72 168 35 q 49 156 74 110 q 24 246 24 201 q 56 328 24 289 q 133 397 88 368 q 226 444 178 426 q 308 461 275 461 q 332 438 332 461 q 325 422 332 428 q 303 404 318 415 q 269 376 286 390 q 240 343 253 361 q 218 302 226 325 q 210 249 210 279 q 222 192 210 221 q 255 140 233 164 q 307 101 276 117 q 375 86 338 86 q 503 132 454 86 q 551 257 551 178 q 520 364 551 308 q 452 478 489 419 q 384 601 415 538 q 353 731 353 664 q 386 847 353 796 q 472 933 419 897 q 588 987 524 968 q 715 1006 653 1006 q 789 999 754 1006 q 850 978 824 992 q 892 942 876 964 q 908 892 908 921 q 885 818 908 854 q 829 753 861 782 q 764 706 797 724 q 713 688 731 688 q 696 694 703 688 q 689 708 689 701 q 692 722 689 715 q 707 742 696 728 q 746 799 726 765 q 765 867 765 833 q 747 909 765 894 q 697 924 728 924 z "},"Ś":{"ha":811,"x_min":24,"x_max":911,"o":"m 697 924 q 631 910 661 924 q 578 876 600 897 q 543 826 556 854 q 531 767 531 797 q 546 682 531 724 q 583 600 561 640 q 632 519 606 560 q 681 439 658 479 q 718 358 703 399 q 733 276 733 318 q 704 161 733 214 q 627 69 675 108 q 519 8 579 31 q 396 -14 458 -14 q 238 10 307 -14 q 121 72 168 35 q 49 156 74 110 q 24 246 24 201 q 56 328 24 289 q 133 397 88 368 q 226 444 178 426 q 308 461 275 461 q 332 438 332 461 q 325 422 332 428 q 303 404 318 415 q 269 376 286 390 q 240 343 253 361 q 218 302 226 325 q 210 249 210 279 q 222 192 210 221 q 255 140 233 164 q 307 101 276 117 q 375 86 338 86 q 503 132 454 86 q 551 257 551 178 q 520 364 551 308 q 452 478 489 419 q 384 601 415 538 q 353 731 353 664 q 386 847 353 796 q 472 933 419 897 q 588 987 524 968 q 715 1006 653 1006 q 789 999 754 1006 q 850 978 824 992 q 892 942 876 964 q 908 892 908 921 q 885 818 908 854 q 829 753 861 782 q 764 706 797 724 q 713 688 731 688 q 696 694 703 688 q 689 708 689 701 q 692 722 689 715 q 707 742 696 728 q 746 799 726 765 q 765 867 765 833 q 747 909 765 894 q 697 924 728 924 m 840 1293 q 860 1283 849 1293 q 884 1259 872 1274 q 903 1228 896 1244 q 911 1201 911 1213 q 905 1173 911 1185 q 878 1143 899 1161 q 827 1110 856 1124 q 770 1087 799 1096 q 717 1073 742 1078 q 675 1068 692 1068 q 657 1074 664 1068 q 650 1089 650 1081 q 654 1103 650 1097 q 672 1115 658 1108 q 740 1174 704 1135 q 807 1265 775 1214 q 822 1286 815 1279 q 840 1293 829 1293 z "},"Š":{"ha":811,"x_min":24,"x_max":944,"o":"m 697 924 q 631 910 661 924 q 578 876 600 897 q 543 826 556 854 q 531 767 531 797 q 546 682 531 724 q 583 600 561 640 q 632 519 606 560 q 681 439 658 479 q 718 358 703 399 q 733 276 733 318 q 704 161 733 214 q 627 69 675 108 q 519 8 579 31 q 396 -14 458 -14 q 238 10 307 -14 q 121 72 168 35 q 49 156 74 110 q 24 246 24 201 q 56 328 24 289 q 133 397 88 368 q 226 444 178 426 q 308 461 275 461 q 332 438 332 461 q 325 422 332 428 q 303 404 318 415 q 269 376 286 390 q 240 343 253 361 q 218 302 226 325 q 210 249 210 279 q 222 192 210 221 q 255 140 233 164 q 307 101 276 117 q 375 86 338 86 q 503 132 454 86 q 551 257 551 178 q 520 364 551 308 q 452 478 489 419 q 384 601 415 538 q 353 731 353 664 q 386 847 353 796 q 472 933 419 897 q 588 987 524 968 q 715 1006 653 1006 q 789 999 754 1006 q 850 978 824 992 q 892 942 876 964 q 908 892 908 921 q 885 818 908 854 q 829 753 861 782 q 764 706 797 724 q 713 688 731 688 q 696 694 703 688 q 689 708 689 701 q 692 722 689 715 q 707 742 696 728 q 746 799 726 765 q 765 867 765 833 q 747 909 765 894 q 697 924 728 924 m 735 1075 q 706 1084 722 1075 q 674 1108 690 1093 q 643 1142 658 1124 q 615 1179 628 1160 q 586 1228 594 1210 q 578 1260 578 1247 q 584 1278 578 1272 q 597 1283 590 1283 q 615 1276 606 1283 q 640 1258 625 1269 q 704 1215 672 1229 q 764 1201 736 1201 q 874 1261 810 1201 q 900 1283 889 1275 q 922 1290 911 1290 q 944 1268 944 1290 q 928 1229 944 1254 q 864 1156 913 1204 q 795 1098 832 1121 q 735 1075 758 1075 z "},"Ș":{"ha":811,"x_min":24,"x_max":908,"o":"m 697 924 q 631 910 661 924 q 578 876 600 897 q 543 826 556 854 q 531 767 531 797 q 546 682 531 724 q 583 600 561 640 q 632 519 606 560 q 681 439 658 479 q 718 358 703 399 q 733 276 733 318 q 704 161 733 214 q 627 69 675 108 q 519 8 579 31 q 396 -14 458 -14 q 238 10 307 -14 q 121 72 168 35 q 49 156 74 110 q 24 246 24 201 q 56 328 24 289 q 133 397 88 368 q 226 444 178 426 q 308 461 275 461 q 332 438 332 461 q 325 422 332 428 q 303 404 318 415 q 269 376 286 390 q 240 343 253 361 q 218 302 226 325 q 210 249 210 279 q 222 192 210 221 q 255 140 233 164 q 307 101 276 117 q 375 86 338 86 q 503 132 454 86 q 551 257 551 178 q 520 364 551 308 q 452 478 489 419 q 384 601 415 538 q 353 731 353 664 q 386 847 353 796 q 472 933 419 897 q 588 987 524 968 q 715 1006 653 1006 q 789 999 754 1006 q 850 978 824 992 q 892 942 876 964 q 908 892 908 921 q 885 818 908 854 q 829 753 861 782 q 764 706 797 724 q 713 688 731 688 q 696 694 703 688 q 689 708 689 701 q 692 722 689 715 q 707 742 696 728 q 746 799 726 765 q 765 867 765 833 q 747 909 765 894 q 697 924 728 924 m 279 -156 q 303 -101 279 -124 q 363 -78 326 -78 q 440 -157 440 -78 q 419 -235 440 -196 q 369 -304 397 -274 q 315 -353 342 -335 q 276 -372 288 -372 q 254 -354 254 -372 q 262 -333 254 -344 q 278 -306 269 -321 q 294 -271 286 -290 q 301 -224 301 -251 q 290 -190 301 -203 q 279 -156 279 -178 z "},"T":{"ha":649,"x_min":26,"x_max":1033,"o":"m 51 103 q 78 99 65 103 q 111 96 92 96 q 233 148 182 96 q 324 280 285 200 q 390 454 363 360 q 442 633 418 549 q 490 757 463 713 q 542 825 518 801 q 600 858 569 851 q 499 891 568 875 q 347 907 431 907 q 245 878 285 907 q 206 801 206 850 q 216 748 206 769 q 240 712 226 726 q 263 688 253 697 q 274 671 274 678 q 244 644 274 644 q 181 657 217 644 q 114 693 146 669 q 60 749 82 717 q 38 824 38 782 q 65 913 38 878 q 134 968 93 947 q 223 997 175 989 q 311 1006 271 1006 q 436 999 381 1006 q 549 983 492 992 q 671 967 606 974 q 825 960 736 960 q 911 967 879 960 q 961 983 943 974 q 988 999 979 992 q 1004 1006 997 1006 q 1025 997 1017 1006 q 1033 978 1033 989 q 1017 942 1033 968 q 974 888 1001 915 q 913 840 947 861 q 842 818 879 818 q 779 822 808 818 q 728 829 750 825 q 681 842 703 835 q 667 829 675 839 q 647 795 658 819 q 623 728 636 771 q 596 619 610 686 q 572 495 583 564 q 542 356 560 426 q 500 219 525 286 q 438 101 475 153 q 349 17 401 49 q 226 -14 297 -14 q 148 -5 185 -14 q 84 18 111 4 q 42 48 57 32 q 26 76 26 64 q 33 97 26 90 q 51 103 40 103 z "},"":{"ha":1294,"x_min":26,"x_max":1351,"o":"m 838 161 q 853 89 838 118 q 897 60 869 60 q 942 78 919 60 q 932 103 932 90 q 940 126 932 114 q 958 149 947 139 q 981 165 969 158 q 1001 171 993 171 l 1006 171 q 1043 276 1029 219 q 1057 381 1057 332 q 1047 443 1057 421 q 1003 465 1038 465 q 956 447 985 465 q 901 390 928 428 q 856 296 875 353 q 838 161 838 239 m 1113 846 q 1086 874 1113 874 q 1040 840 1067 874 q 985 750 1014 806 q 930 622 957 694 q 883 474 903 550 q 958 558 918 507 q 1033 662 999 608 q 1090 765 1068 715 q 1113 846 1113 814 m 1065 42 q 988 1 1031 15 q 897 -14 946 -14 q 824 2 861 -14 q 754 47 786 18 q 702 113 722 75 q 682 196 682 151 q 694 351 682 271 q 726 511 706 432 q 778 664 747 590 q 846 797 808 738 q 792 812 821 804 q 739 826 764 819 q 681 842 710 833 q 667 829 675 839 q 647 795 658 819 q 623 728 636 771 q 596 619 610 686 q 572 495 583 564 q 542 356 560 426 q 500 219 525 286 q 438 101 475 153 q 349 17 401 49 q 226 -14 297 -14 q 148 -5 185 -14 q 84 18 111 4 q 42 48 57 32 q 26 76 26 64 q 33 97 26 90 q 51 103 40 103 q 78 99 65 103 q 111 96 92 96 q 233 148 182 96 q 324 280 285 200 q 390 454 363 360 q 442 633 418 549 q 490 757 463 713 q 542 825 518 801 q 600 858 569 851 q 499 891 568 875 q 347 907 431 907 q 245 878 285 907 q 206 801 206 850 q 216 748 206 769 q 240 712 226 726 q 263 688 253 697 q 274 671 274 678 q 244 644 274 644 q 181 657 217 644 q 114 693 146 669 q 60 749 82 717 q 38 824 38 782 q 65 913 38 878 q 134 968 93 947 q 223 997 175 989 q 311 1006 271 1006 q 454 992 381 1006 q 603 963 528 979 q 757 933 679 946 q 913 919 835 919 q 955 927 933 919 q 997 943 976 935 q 1035 959 1017 951 q 1069 967 1054 967 q 1115 955 1092 967 q 1155 924 1138 943 q 1183 884 1172 906 q 1194 844 1194 863 q 1180 780 1194 815 q 1144 708 1165 744 q 1096 635 1122 671 q 1047 572 1069 600 q 1010 527 1025 544 q 993 508 994 510 q 1004 515 994 510 q 1027 527 1014 521 q 1058 538 1040 533 q 1093 543 1075 543 q 1146 530 1121 543 q 1190 495 1171 517 q 1219 447 1208 474 q 1231 394 1231 421 q 1205 245 1231 324 q 1131 104 1179 167 q 1196 119 1167 104 q 1247 151 1225 133 q 1294 199 1272 172 q 1301 208 1296 203 q 1310 215 1304 211 q 1322 218 1315 218 q 1342 210 1333 218 q 1351 190 1351 201 q 1349 180 1351 185 q 1344 169 1347 175 q 1339 157 1342 164 q 1279 97 1315 122 q 1203 56 1249 74 q 1097 38 1158 38 q 1088 38 1093 38 q 1078 39 1083 38 q 1065 42 1072 40 z "},"":{"ha":1075,"x_min":26,"x_max":1186,"o":"m 1115 846 q 1086 874 1115 874 q 1038 830 1067 874 q 977 715 1010 786 q 913 555 944 644 q 854 374 881 465 q 905 426 876 390 q 963 508 933 463 q 1019 603 992 553 q 1067 701 1046 654 q 1102 786 1089 747 q 1115 846 1115 825 m 775 46 q 769 -11 772 18 q 765 -66 767 -36 q 764 -124 764 -96 q 783 -237 764 -206 q 819 -269 801 -269 q 841 -260 832 -269 q 856 -237 850 -251 q 864 -206 861 -224 q 867 -172 867 -189 q 852 -87 867 -128 q 821 -18 838 -47 q 775 46 800 17 m 1119 157 q 1085 112 1104 136 q 1037 67 1065 88 q 969 32 1008 46 q 876 18 929 18 q 915 -29 899 -1 q 943 -88 931 -53 q 956 -168 956 -124 q 946 -223 956 -194 q 918 -276 936 -251 q 874 -315 900 -300 q 814 -331 847 -331 q 747 -319 783 -331 q 681 -279 711 -307 q 629 -206 650 -251 q 608 -94 608 -161 q 626 140 608 18 q 676 378 644 261 q 751 600 708 494 q 844 786 794 706 q 785 803 814 793 q 732 821 756 813 q 681 842 706 831 q 667 829 675 839 q 647 795 658 819 q 623 728 636 771 q 596 619 610 686 q 572 495 583 564 q 542 356 560 426 q 500 219 525 286 q 438 101 475 153 q 349 17 401 49 q 226 -14 297 -14 q 148 -5 185 -14 q 84 18 111 4 q 42 48 57 32 q 26 76 26 64 q 33 97 26 90 q 51 103 40 103 q 78 99 65 103 q 111 96 92 96 q 233 148 182 96 q 324 280 285 200 q 390 454 363 360 q 442 633 418 549 q 490 757 463 713 q 542 825 518 801 q 600 858 569 851 q 499 891 568 875 q 347 907 431 907 q 245 878 285 907 q 206 801 206 850 q 216 748 206 769 q 240 712 226 726 q 263 688 253 697 q 274 671 274 678 q 244 644 274 644 q 181 657 217 644 q 114 693 146 669 q 60 749 82 717 q 38 824 38 782 q 65 913 38 878 q 134 968 93 947 q 223 997 175 989 q 311 1006 271 1006 q 448 992 381 1006 q 586 963 515 979 q 734 933 657 946 q 900 919 811 919 q 935 927 915 919 q 975 943 954 935 q 1017 959 996 951 q 1058 967 1039 967 q 1105 955 1082 967 q 1146 924 1128 943 q 1175 884 1164 906 q 1186 844 1186 863 q 1169 769 1186 815 q 1124 669 1153 724 q 1059 554 1096 614 q 981 440 1022 494 q 898 338 940 385 q 818 260 856 290 q 800 192 807 228 q 790 119 793 156 q 814 99 800 107 q 842 85 825 92 q 881 79 858 79 q 946 90 917 79 q 999 119 975 101 q 1041 158 1022 136 q 1075 199 1060 179 q 1082 208 1076 203 q 1090 215 1085 211 q 1103 218 1096 218 q 1123 210 1114 218 q 1132 190 1132 201 q 1130 180 1132 185 q 1125 169 1128 175 q 1119 157 1122 164 z "},"":{"ha":1354,"x_min":26,"x_max":1411,"o":"m 1161 132 q 1173 94 1161 108 q 1206 79 1185 79 q 1260 97 1233 79 q 1308 139 1288 115 q 1354 199 1333 164 q 1361 208 1356 203 q 1369 215 1364 211 q 1382 218 1375 218 q 1402 210 1393 218 q 1411 190 1411 201 q 1409 180 1411 185 q 1404 169 1407 175 q 1399 157 1401 164 q 1331 71 1368 108 q 1255 13 1299 39 q 1160 -14 1211 -14 q 1032 28 1081 -14 q 983 139 983 71 q 994 219 983 182 q 1019 289 1006 257 q 1044 347 1033 321 q 1056 392 1056 372 q 1025 432 1056 432 q 951 402 989 432 q 884 317 914 372 q 835 185 854 263 q 817 14 817 108 q 812 -6 817 1 q 792 -14 807 -14 q 747 -10 771 -14 q 703 3 724 -6 q 669 27 682 13 q 656 61 656 42 q 671 210 656 119 q 715 401 686 300 q 785 603 744 501 q 876 786 826 704 q 812 801 846 793 q 749 819 778 810 q 681 842 714 829 q 667 829 675 839 q 647 795 658 819 q 623 728 636 771 q 596 619 610 686 q 572 495 583 564 q 542 356 560 426 q 500 219 525 286 q 438 101 475 153 q 349 17 401 49 q 226 -14 297 -14 q 148 -5 185 -14 q 84 18 111 4 q 42 48 57 32 q 26 76 26 64 q 33 97 26 90 q 51 103 40 103 q 78 99 65 103 q 111 96 92 96 q 233 148 182 96 q 324 280 285 200 q 390 454 363 360 q 442 633 418 549 q 490 757 463 713 q 542 825 518 801 q 600 858 569 851 q 499 891 568 875 q 347 907 431 907 q 245 878 285 907 q 206 801 206 850 q 216 748 206 769 q 240 712 226 726 q 263 688 253 697 q 274 671 274 678 q 244 644 274 644 q 181 657 217 644 q 114 693 146 669 q 60 749 82 717 q 38 824 38 782 q 65 913 38 878 q 134 968 93 947 q 223 997 175 989 q 311 1006 271 1006 q 452 992 381 1006 q 600 963 524 979 q 758 933 676 946 q 928 919 839 919 q 976 927 954 919 q 1020 943 999 935 q 1063 959 1042 951 q 1107 967 1083 967 q 1153 955 1131 967 q 1193 924 1175 943 q 1222 884 1211 906 q 1232 844 1232 863 q 1219 781 1232 815 q 1187 710 1207 746 q 1144 640 1167 675 q 1100 578 1121 606 q 1064 531 1079 550 q 1046 508 1049 513 q 1085 528 1053 513 q 1161 543 1117 543 q 1192 535 1176 543 q 1221 513 1208 526 q 1242 482 1233 499 q 1250 447 1250 465 q 1236 377 1250 415 q 1206 298 1222 339 q 1175 215 1189 257 q 1161 132 1161 172 m 1164 846 q 1138 874 1164 874 q 1091 841 1118 874 q 1033 751 1064 808 q 967 614 1001 693 q 900 442 933 535 q 953 493 924 461 q 1011 563 982 525 q 1068 642 1040 600 q 1117 722 1096 683 q 1151 792 1138 760 q 1164 846 1164 825 z "},"":{"ha":1275,"x_min":26,"x_max":1332,"o":"m 1136 846 q 1111 874 1136 874 q 1065 843 1092 874 q 1006 757 1038 813 q 941 624 975 701 q 874 456 907 547 q 925 507 897 476 q 982 574 953 538 q 1039 650 1011 611 q 1088 725 1067 689 q 1123 793 1110 761 q 1136 846 1136 825 m 1081 -14 q 1002 9 1043 -14 q 926 66 961 32 q 869 139 892 100 q 847 210 847 178 q 878 241 847 224 q 947 282 910 258 q 1015 336 983 306 q 1046 408 1046 367 q 1014 447 1046 447 q 937 417 976 447 q 864 330 897 386 q 810 194 831 274 q 789 14 789 114 q 784 -6 789 1 q 764 -14 779 -14 q 727 -10 750 -14 q 682 1 704 -7 q 644 24 660 10 q 628 60 628 38 q 643 212 628 121 q 688 404 658 303 q 758 606 717 506 q 849 786 799 706 q 788 801 818 793 q 735 819 758 810 q 681 842 707 829 q 667 829 675 839 q 647 795 658 819 q 623 728 636 771 q 596 619 610 686 q 572 495 583 564 q 542 356 560 426 q 500 219 525 286 q 438 101 475 153 q 349 17 401 49 q 226 -14 297 -14 q 148 -5 185 -14 q 84 18 111 4 q 42 48 57 32 q 26 76 26 64 q 33 97 26 90 q 51 103 40 103 q 78 99 65 103 q 111 96 92 96 q 233 148 182 96 q 324 280 285 200 q 390 454 363 360 q 442 633 418 549 q 490 757 463 713 q 542 825 518 801 q 600 858 569 851 q 499 891 568 875 q 347 907 431 907 q 245 878 285 907 q 206 801 206 850 q 216 748 206 769 q 240 712 226 726 q 263 688 253 697 q 274 671 274 678 q 244 644 274 644 q 181 657 217 644 q 114 693 146 669 q 60 749 82 717 q 38 824 38 782 q 65 913 38 878 q 134 968 93 947 q 223 997 175 989 q 311 1006 271 1006 q 448 992 381 1006 q 586 963 515 979 q 734 933 657 946 q 900 919 811 919 q 949 927 926 919 q 992 943 971 935 q 1035 959 1014 951 q 1081 967 1057 967 q 1125 955 1103 967 q 1165 924 1147 943 q 1194 884 1183 906 q 1204 844 1204 863 q 1190 780 1204 815 q 1153 708 1175 744 q 1107 636 1132 671 q 1060 574 1082 601 q 1022 530 1038 547 q 1006 511 1007 513 q 1018 517 1007 513 q 1045 528 1029 522 q 1082 538 1061 533 q 1125 543 1103 543 q 1190 511 1161 543 q 1218 436 1218 479 q 1183 361 1218 396 q 1107 299 1149 326 q 997 239 1058 267 q 1007 207 997 228 q 1035 164 1017 186 q 1081 126 1054 142 q 1139 110 1107 110 q 1194 124 1169 110 q 1238 154 1219 138 q 1275 199 1258 174 q 1282 208 1276 203 q 1290 215 1285 211 q 1303 218 1296 218 q 1323 210 1314 218 q 1332 190 1332 201 q 1330 180 1332 185 q 1325 169 1328 175 q 1319 157 1322 164 q 1250 71 1288 108 q 1174 13 1218 39 q 1081 -14 1131 -14 z "},"":{"ha":1047,"x_min":26,"x_max":1192,"o":"m 1122 854 q 1106 874 1122 874 q 1055 831 1086 874 q 990 718 1024 788 q 922 563 956 649 q 868 389 889 476 q 920 444 892 408 q 976 526 949 481 q 1031 619 1004 571 q 1077 713 1057 668 q 1110 796 1097 758 q 1122 854 1122 833 m 853 -14 q 785 0 818 -14 q 726 39 751 14 q 684 99 700 64 q 668 178 668 135 q 682 326 668 246 q 721 489 696 407 q 781 649 746 571 q 856 790 815 726 q 797 806 828 797 q 740 824 767 815 q 681 842 710 832 q 667 829 675 839 q 647 795 658 819 q 623 728 636 771 q 596 619 610 686 q 572 495 583 564 q 542 356 560 426 q 500 219 525 286 q 438 101 475 153 q 349 17 401 49 q 226 -14 297 -14 q 148 -5 185 -14 q 84 18 111 4 q 42 48 57 32 q 26 76 26 64 q 33 97 26 90 q 51 103 40 103 q 78 99 65 103 q 111 96 92 96 q 233 148 182 96 q 324 280 285 200 q 390 454 363 360 q 442 633 418 549 q 490 757 463 713 q 542 825 518 801 q 600 858 569 851 q 499 891 568 875 q 347 907 431 907 q 245 878 285 907 q 206 801 206 850 q 216 748 206 769 q 240 712 226 726 q 263 688 253 697 q 274 671 274 678 q 244 644 274 644 q 181 657 217 644 q 114 693 146 669 q 60 749 82 717 q 38 824 38 782 q 65 913 38 878 q 134 968 93 947 q 223 997 175 989 q 311 1006 271 1006 q 452 992 381 1006 q 600 963 524 979 q 758 933 676 946 q 928 919 839 919 q 963 927 947 919 q 995 943 979 935 q 1030 959 1011 951 q 1075 967 1049 967 q 1119 956 1099 967 q 1156 928 1140 944 q 1182 891 1172 911 q 1192 853 1192 871 q 1176 778 1192 824 q 1133 681 1160 733 q 1072 574 1107 629 q 998 466 1036 518 q 921 369 960 414 q 847 294 882 324 q 839 251 843 274 q 834 210 836 232 q 832 171 832 189 q 850 101 832 122 q 899 79 868 79 q 953 97 926 79 q 1001 139 981 115 q 1047 199 1026 164 q 1054 208 1049 203 q 1063 215 1057 211 q 1075 218 1068 218 q 1095 210 1086 218 q 1104 190 1104 201 q 1102 180 1104 185 q 1097 169 1100 175 q 1092 157 1094 164 q 1024 71 1061 108 q 948 13 992 39 q 853 -14 904 -14 z "},"Ť":{"ha":649,"x_min":26,"x_max":1033,"o":"m 51 103 q 78 99 65 103 q 111 96 92 96 q 233 148 182 96 q 324 280 285 200 q 390 454 363 360 q 442 633 418 549 q 490 757 463 713 q 542 825 518 801 q 600 858 569 851 q 499 891 568 875 q 347 907 431 907 q 245 878 285 907 q 206 801 206 850 q 216 748 206 769 q 240 712 226 726 q 263 688 253 697 q 274 671 274 678 q 244 644 274 644 q 181 657 217 644 q 114 693 146 669 q 60 749 82 717 q 38 824 38 782 q 65 913 38 878 q 134 968 93 947 q 223 997 175 989 q 311 1006 271 1006 q 436 999 381 1006 q 549 983 492 992 q 671 967 606 974 q 825 960 736 960 q 911 967 879 960 q 961 983 943 974 q 988 999 979 992 q 1004 1006 997 1006 q 1025 997 1017 1006 q 1033 978 1033 989 q 1017 942 1033 968 q 974 888 1001 915 q 913 840 947 861 q 842 818 879 818 q 779 822 808 818 q 728 829 750 825 q 681 842 703 835 q 667 829 675 839 q 647 795 658 819 q 623 728 636 771 q 596 619 610 686 q 572 495 583 564 q 542 356 560 426 q 500 219 525 286 q 438 101 475 153 q 349 17 401 49 q 226 -14 297 -14 q 148 -5 185 -14 q 84 18 111 4 q 42 48 57 32 q 26 76 26 64 q 33 97 26 90 q 51 103 40 103 m 714 1033 q 685 1042 701 1033 q 653 1067 669 1051 q 622 1100 638 1082 q 594 1138 607 1118 q 565 1187 574 1168 q 557 1218 557 1206 q 563 1236 557 1231 q 576 1242 569 1242 q 594 1235 585 1242 q 619 1217 604 1228 q 683 1174 651 1188 q 743 1160 715 1160 q 853 1219 789 1160 q 879 1241 868 1233 q 901 1249 890 1249 q 924 1226 924 1249 q 908 1188 924 1213 q 843 1114 892 1163 q 774 1056 811 1079 q 714 1033 738 1033 z "},"Ţ":{"ha":649,"x_min":26,"x_max":1033,"o":"m 51 103 q 78 99 65 103 q 111 96 92 96 q 233 148 182 96 q 324 280 285 200 q 390 454 363 360 q 442 633 418 549 q 490 757 463 713 q 542 825 518 801 q 600 858 569 851 q 499 891 568 875 q 347 907 431 907 q 245 878 285 907 q 206 801 206 850 q 216 748 206 769 q 240 712 226 726 q 263 688 253 697 q 274 671 274 678 q 244 644 274 644 q 181 657 217 644 q 114 693 146 669 q 60 749 82 717 q 38 824 38 782 q 65 913 38 878 q 134 968 93 947 q 223 997 175 989 q 311 1006 271 1006 q 436 999 381 1006 q 549 983 492 992 q 671 967 606 974 q 825 960 736 960 q 911 967 879 960 q 961 983 943 974 q 988 999 979 992 q 1004 1006 997 1006 q 1025 997 1017 1006 q 1033 978 1033 989 q 1017 942 1033 968 q 974 888 1001 915 q 913 840 947 861 q 842 818 879 818 q 779 822 808 818 q 728 829 750 825 q 681 842 703 835 q 667 829 675 839 q 647 795 658 819 q 623 728 636 771 q 596 619 610 686 q 572 495 583 564 q 542 356 560 426 q 500 219 525 286 q 438 101 475 153 q 349 17 401 49 q 226 -14 297 -14 q 148 -5 185 -14 q 84 18 111 4 q 42 48 57 32 q 26 76 26 64 q 33 97 26 90 q 51 103 40 103 m 124 -147 q 135 -182 124 -169 q 146 -215 146 -194 q 138 -262 146 -243 q 122 -297 131 -282 q 106 -324 114 -312 q 99 -346 99 -336 q 121 -364 99 -364 q 159 -345 132 -364 q 214 -296 186 -326 q 263 -226 242 -265 q 285 -149 285 -187 q 207 -69 285 -69 q 147 -92 171 -69 q 124 -147 124 -115 z "},"U":{"ha":1161,"x_min":-14,"x_max":1229,"o":"m 967 -14 q 893 0 929 -14 q 828 39 857 14 q 782 99 800 64 q 764 178 764 135 q 764 201 764 189 q 767 228 764 214 q 706 148 742 190 q 627 69 671 106 q 533 10 583 33 q 426 -14 482 -14 q 353 -1 388 -14 q 292 33 318 11 q 249 85 265 56 q 233 146 233 114 q 253 249 233 190 q 303 374 274 308 q 368 507 333 439 q 433 639 403 575 q 483 760 463 703 q 503 860 503 817 q 492 903 503 885 q 443 922 482 922 q 365 901 411 922 q 274 843 318 879 q 199 760 231 807 q 168 663 168 713 q 179 607 168 631 q 203 567 190 583 q 226 539 215 550 q 238 521 238 528 q 208 493 238 493 q 142 508 181 493 q 69 549 104 522 q 10 610 35 575 q -14 686 -14 644 q 35 808 -14 750 q 159 910 85 867 q 320 980 233 954 q 483 1006 407 1006 q 623 966 568 1006 q 678 860 678 926 q 659 755 678 814 q 612 632 640 696 q 551 501 583 568 q 490 372 518 435 q 442 253 461 308 q 424 157 424 199 q 485 97 424 97 q 562 133 518 97 q 651 220 606 168 q 738 329 696 272 q 810 431 781 386 q 855 571 829 500 q 907 705 881 642 q 958 820 933 768 q 1001 904 982 872 q 1043 949 1018 932 q 1094 977 1068 967 q 1146 992 1121 988 q 1189 996 1171 996 q 1229 976 1229 996 q 1196 926 1229 965 q 1158 863 1182 910 q 1104 749 1133 815 q 1045 606 1075 683 q 990 449 1015 528 q 950 298 965 371 q 935 171 935 225 q 958 101 935 122 q 1013 79 981 79 q 1067 97 1040 79 q 1115 139 1094 115 q 1161 199 1140 164 q 1168 208 1163 203 q 1176 215 1171 211 q 1189 218 1182 218 q 1209 210 1200 218 q 1218 190 1218 201 q 1216 180 1218 185 q 1211 169 1214 175 q 1206 157 1208 164 q 1138 71 1175 108 q 1062 13 1106 39 q 967 -14 1018 -14 z "},"Ú":{"ha":1161,"x_min":-14,"x_max":1229,"o":"m 967 -14 q 893 0 929 -14 q 828 39 857 14 q 782 99 800 64 q 764 178 764 135 q 764 201 764 189 q 767 228 764 214 q 706 148 742 190 q 627 69 671 106 q 533 10 583 33 q 426 -14 482 -14 q 353 -1 388 -14 q 292 33 318 11 q 249 85 265 56 q 233 146 233 114 q 253 249 233 190 q 303 374 274 308 q 368 507 333 439 q 433 639 403 575 q 483 760 463 703 q 503 860 503 817 q 492 903 503 885 q 443 922 482 922 q 365 901 411 922 q 274 843 318 879 q 199 760 231 807 q 168 663 168 713 q 179 607 168 631 q 203 567 190 583 q 226 539 215 550 q 238 521 238 528 q 208 493 238 493 q 142 508 181 493 q 69 549 104 522 q 10 610 35 575 q -14 686 -14 644 q 35 808 -14 750 q 159 910 85 867 q 320 980 233 954 q 483 1006 407 1006 q 623 966 568 1006 q 678 860 678 926 q 659 755 678 814 q 612 632 640 696 q 551 501 583 568 q 490 372 518 435 q 442 253 461 308 q 424 157 424 199 q 485 97 424 97 q 562 133 518 97 q 651 220 606 168 q 738 329 696 272 q 810 431 781 386 q 855 571 829 500 q 907 705 881 642 q 958 820 933 768 q 1001 904 982 872 q 1043 949 1018 932 q 1094 977 1068 967 q 1146 992 1121 988 q 1189 996 1171 996 q 1229 976 1229 996 q 1196 926 1229 965 q 1158 863 1182 910 q 1104 749 1133 815 q 1045 606 1075 683 q 990 449 1015 528 q 950 298 965 371 q 935 171 935 225 q 958 101 935 122 q 1013 79 981 79 q 1067 97 1040 79 q 1115 139 1094 115 q 1161 199 1140 164 q 1168 208 1163 203 q 1176 215 1171 211 q 1189 218 1182 218 q 1209 210 1200 218 q 1218 190 1218 201 q 1216 180 1218 185 q 1211 169 1214 175 q 1206 157 1208 164 q 1138 71 1175 108 q 1062 13 1106 39 q 967 -14 1018 -14 m 979 1222 q 999 1213 988 1222 q 1023 1188 1011 1203 q 1042 1158 1035 1174 q 1050 1131 1050 1142 q 1044 1102 1050 1114 q 1017 1072 1038 1090 q 966 1039 994 1053 q 909 1016 938 1025 q 856 1002 881 1007 q 814 997 831 997 q 796 1003 803 997 q 789 1018 789 1010 q 793 1032 789 1026 q 811 1044 797 1038 q 878 1103 843 1064 q 946 1194 914 1143 q 961 1215 954 1208 q 979 1222 968 1222 z "},"Ŭ":{"ha":1161,"x_min":-14,"x_max":1229,"o":"m 967 -14 q 893 0 929 -14 q 828 39 857 14 q 782 99 800 64 q 764 178 764 135 q 764 201 764 189 q 767 228 764 214 q 706 148 742 190 q 627 69 671 106 q 533 10 583 33 q 426 -14 482 -14 q 353 -1 388 -14 q 292 33 318 11 q 249 85 265 56 q 233 146 233 114 q 253 249 233 190 q 303 374 274 308 q 368 507 333 439 q 433 639 403 575 q 483 760 463 703 q 503 860 503 817 q 492 903 503 885 q 443 922 482 922 q 365 901 411 922 q 274 843 318 879 q 199 760 231 807 q 168 663 168 713 q 179 607 168 631 q 203 567 190 583 q 226 539 215 550 q 238 521 238 528 q 208 493 238 493 q 142 508 181 493 q 69 549 104 522 q 10 610 35 575 q -14 686 -14 644 q 35 808 -14 750 q 159 910 85 867 q 320 980 233 954 q 483 1006 407 1006 q 623 966 568 1006 q 678 860 678 926 q 659 755 678 814 q 612 632 640 696 q 551 501 583 568 q 490 372 518 435 q 442 253 461 308 q 424 157 424 199 q 485 97 424 97 q 562 133 518 97 q 651 220 606 168 q 738 329 696 272 q 810 431 781 386 q 855 571 829 500 q 907 705 881 642 q 958 820 933 768 q 1001 904 982 872 q 1043 949 1018 932 q 1094 977 1068 967 q 1146 992 1121 988 q 1189 996 1171 996 q 1229 976 1229 996 q 1196 926 1229 965 q 1158 863 1182 910 q 1104 749 1133 815 q 1045 606 1075 683 q 990 449 1015 528 q 950 298 965 371 q 935 171 935 225 q 958 101 935 122 q 1013 79 981 79 q 1067 97 1040 79 q 1115 139 1094 115 q 1161 199 1140 164 q 1168 208 1163 203 q 1176 215 1171 211 q 1189 218 1182 218 q 1209 210 1200 218 q 1218 190 1218 201 q 1216 180 1218 185 q 1211 169 1214 175 q 1206 157 1208 164 q 1138 71 1175 108 q 1062 13 1106 39 q 967 -14 1018 -14 m 861 1028 q 735 1065 785 1028 q 686 1169 686 1103 q 710 1228 686 1208 q 763 1249 735 1249 q 806 1206 806 1249 q 803 1190 806 1196 q 799 1180 801 1185 q 795 1169 797 1175 q 793 1156 793 1164 q 815 1124 793 1136 q 871 1113 836 1113 q 941 1133 919 1113 q 963 1179 963 1153 q 979 1231 963 1215 q 1024 1246 996 1246 q 1063 1231 1047 1246 q 1079 1192 1079 1217 q 1053 1117 1079 1156 q 984 1056 1031 1085 q 861 1028 938 1028 z "},"Û":{"ha":1161,"x_min":-14,"x_max":1229,"o":"m 967 -14 q 893 0 929 -14 q 828 39 857 14 q 782 99 800 64 q 764 178 764 135 q 764 201 764 189 q 767 228 764 214 q 706 148 742 190 q 627 69 671 106 q 533 10 583 33 q 426 -14 482 -14 q 353 -1 388 -14 q 292 33 318 11 q 249 85 265 56 q 233 146 233 114 q 253 249 233 190 q 303 374 274 308 q 368 507 333 439 q 433 639 403 575 q 483 760 463 703 q 503 860 503 817 q 492 903 503 885 q 443 922 482 922 q 365 901 411 922 q 274 843 318 879 q 199 760 231 807 q 168 663 168 713 q 179 607 168 631 q 203 567 190 583 q 226 539 215 550 q 238 521 238 528 q 208 493 238 493 q 142 508 181 493 q 69 549 104 522 q 10 610 35 575 q -14 686 -14 644 q 35 808 -14 750 q 159 910 85 867 q 320 980 233 954 q 483 1006 407 1006 q 623 966 568 1006 q 678 860 678 926 q 659 755 678 814 q 612 632 640 696 q 551 501 583 568 q 490 372 518 435 q 442 253 461 308 q 424 157 424 199 q 485 97 424 97 q 562 133 518 97 q 651 220 606 168 q 738 329 696 272 q 810 431 781 386 q 855 571 829 500 q 907 705 881 642 q 958 820 933 768 q 1001 904 982 872 q 1043 949 1018 932 q 1094 977 1068 967 q 1146 992 1121 988 q 1189 996 1171 996 q 1229 976 1229 996 q 1196 926 1229 965 q 1158 863 1182 910 q 1104 749 1133 815 q 1045 606 1075 683 q 990 449 1015 528 q 950 298 965 371 q 935 171 935 225 q 958 101 935 122 q 1013 79 981 79 q 1067 97 1040 79 q 1115 139 1094 115 q 1161 199 1140 164 q 1168 208 1163 203 q 1176 215 1171 211 q 1189 218 1182 218 q 1209 210 1200 218 q 1218 190 1218 201 q 1216 180 1218 185 q 1211 169 1214 175 q 1206 157 1208 164 q 1138 71 1175 108 q 1062 13 1106 39 q 967 -14 1018 -14 m 876 1126 q 868 1124 874 1126 q 857 1118 863 1121 q 807 1091 833 1104 q 757 1067 781 1078 q 716 1050 733 1057 q 692 1043 699 1043 q 674 1051 681 1043 q 667 1067 667 1058 q 689 1100 667 1085 q 755 1148 725 1124 q 825 1215 785 1172 q 853 1249 840 1235 q 894 1263 867 1263 q 917 1258 910 1263 q 931 1247 925 1254 q 940 1231 936 1240 q 951 1210 944 1221 q 997 1147 974 1174 q 1043 1101 1019 1121 q 1063 1086 1057 1092 q 1068 1069 1068 1081 q 1060 1052 1068 1061 q 1042 1043 1053 1043 q 1022 1047 1036 1043 q 988 1058 1008 1050 q 943 1081 968 1067 q 892 1118 918 1096 q 876 1126 883 1126 z "},"Ü":{"ha":1161,"x_min":-14,"x_max":1229,"o":"m 967 -14 q 893 0 929 -14 q 828 39 857 14 q 782 99 800 64 q 764 178 764 135 q 764 201 764 189 q 767 228 764 214 q 706 148 742 190 q 627 69 671 106 q 533 10 583 33 q 426 -14 482 -14 q 353 -1 388 -14 q 292 33 318 11 q 249 85 265 56 q 233 146 233 114 q 253 249 233 190 q 303 374 274 308 q 368 507 333 439 q 433 639 403 575 q 483 760 463 703 q 503 860 503 817 q 492 903 503 885 q 443 922 482 922 q 365 901 411 922 q 274 843 318 879 q 199 760 231 807 q 168 663 168 713 q 179 607 168 631 q 203 567 190 583 q 226 539 215 550 q 238 521 238 528 q 208 493 238 493 q 142 508 181 493 q 69 549 104 522 q 10 610 35 575 q -14 686 -14 644 q 35 808 -14 750 q 159 910 85 867 q 320 980 233 954 q 483 1006 407 1006 q 623 966 568 1006 q 678 860 678 926 q 659 755 678 814 q 612 632 640 696 q 551 501 583 568 q 490 372 518 435 q 442 253 461 308 q 424 157 424 199 q 485 97 424 97 q 562 133 518 97 q 651 220 606 168 q 738 329 696 272 q 810 431 781 386 q 855 571 829 500 q 907 705 881 642 q 958 820 933 768 q 1001 904 982 872 q 1043 949 1018 932 q 1094 977 1068 967 q 1146 992 1121 988 q 1189 996 1171 996 q 1229 976 1229 996 q 1196 926 1229 965 q 1158 863 1182 910 q 1104 749 1133 815 q 1045 606 1075 683 q 990 449 1015 528 q 950 298 965 371 q 935 171 935 225 q 958 101 935 122 q 1013 79 981 79 q 1067 97 1040 79 q 1115 139 1094 115 q 1161 199 1140 164 q 1168 208 1163 203 q 1176 215 1171 211 q 1189 218 1182 218 q 1209 210 1200 218 q 1218 190 1218 201 q 1216 180 1218 185 q 1211 169 1214 175 q 1206 157 1208 164 q 1138 71 1175 108 q 1062 13 1106 39 q 967 -14 1018 -14 m 881 1089 q 888 1126 881 1107 q 909 1160 896 1144 q 940 1185 922 1175 q 976 1196 957 1196 q 1019 1176 1003 1196 q 1035 1129 1035 1157 q 1028 1092 1035 1111 q 1008 1057 1021 1072 q 976 1031 994 1042 q 936 1021 958 1021 q 897 1040 913 1021 q 881 1089 881 1060 m 679 1089 q 687 1126 679 1107 q 708 1160 694 1144 q 738 1185 721 1175 q 775 1196 756 1196 q 817 1176 801 1196 q 833 1129 833 1157 q 826 1092 833 1111 q 806 1057 819 1072 q 775 1031 793 1042 q 735 1021 757 1021 q 695 1040 711 1021 q 679 1089 679 1060 z "},"Ù":{"ha":1161,"x_min":-14,"x_max":1229,"o":"m 967 -14 q 893 0 929 -14 q 828 39 857 14 q 782 99 800 64 q 764 178 764 135 q 764 201 764 189 q 767 228 764 214 q 706 148 742 190 q 627 69 671 106 q 533 10 583 33 q 426 -14 482 -14 q 353 -1 388 -14 q 292 33 318 11 q 249 85 265 56 q 233 146 233 114 q 253 249 233 190 q 303 374 274 308 q 368 507 333 439 q 433 639 403 575 q 483 760 463 703 q 503 860 503 817 q 492 903 503 885 q 443 922 482 922 q 365 901 411 922 q 274 843 318 879 q 199 760 231 807 q 168 663 168 713 q 179 607 168 631 q 203 567 190 583 q 226 539 215 550 q 238 521 238 528 q 208 493 238 493 q 142 508 181 493 q 69 549 104 522 q 10 610 35 575 q -14 686 -14 644 q 35 808 -14 750 q 159 910 85 867 q 320 980 233 954 q 483 1006 407 1006 q 623 966 568 1006 q 678 860 678 926 q 659 755 678 814 q 612 632 640 696 q 551 501 583 568 q 490 372 518 435 q 442 253 461 308 q 424 157 424 199 q 485 97 424 97 q 562 133 518 97 q 651 220 606 168 q 738 329 696 272 q 810 431 781 386 q 855 571 829 500 q 907 705 881 642 q 958 820 933 768 q 1001 904 982 872 q 1043 949 1018 932 q 1094 977 1068 967 q 1146 992 1121 988 q 1189 996 1171 996 q 1229 976 1229 996 q 1196 926 1229 965 q 1158 863 1182 910 q 1104 749 1133 815 q 1045 606 1075 683 q 990 449 1015 528 q 950 298 965 371 q 935 171 935 225 q 958 101 935 122 q 1013 79 981 79 q 1067 97 1040 79 q 1115 139 1094 115 q 1161 199 1140 164 q 1168 208 1163 203 q 1176 215 1171 211 q 1189 218 1182 218 q 1209 210 1200 218 q 1218 190 1218 201 q 1216 180 1218 185 q 1211 169 1214 175 q 1206 157 1208 164 q 1138 71 1175 108 q 1062 13 1106 39 q 967 -14 1018 -14 m 768 1250 q 801 1222 790 1250 q 826 1172 811 1199 q 858 1123 840 1146 q 894 1081 876 1100 q 928 1053 913 1063 q 946 1040 942 1046 q 950 1026 950 1035 q 944 1012 950 1018 q 925 1006 938 1006 q 885 1013 910 1006 q 833 1034 861 1021 q 778 1064 806 1047 q 729 1100 751 1081 q 702 1130 708 1118 q 696 1158 696 1142 q 704 1185 696 1169 q 724 1216 713 1201 q 747 1240 735 1231 q 768 1250 760 1250 z "},"Ű":{"ha":1161,"x_min":-14,"x_max":1229,"o":"m 967 -14 q 893 0 929 -14 q 828 39 857 14 q 782 99 800 64 q 764 178 764 135 q 764 201 764 189 q 767 228 764 214 q 706 148 742 190 q 627 69 671 106 q 533 10 583 33 q 426 -14 482 -14 q 353 -1 388 -14 q 292 33 318 11 q 249 85 265 56 q 233 146 233 114 q 253 249 233 190 q 303 374 274 308 q 368 507 333 439 q 433 639 403 575 q 483 760 463 703 q 503 860 503 817 q 492 903 503 885 q 443 922 482 922 q 365 901 411 922 q 274 843 318 879 q 199 760 231 807 q 168 663 168 713 q 179 607 168 631 q 203 567 190 583 q 226 539 215 550 q 238 521 238 528 q 208 493 238 493 q 142 508 181 493 q 69 549 104 522 q 10 610 35 575 q -14 686 -14 644 q 35 808 -14 750 q 159 910 85 867 q 320 980 233 954 q 483 1006 407 1006 q 623 966 568 1006 q 678 860 678 926 q 659 755 678 814 q 612 632 640 696 q 551 501 583 568 q 490 372 518 435 q 442 253 461 308 q 424 157 424 199 q 485 97 424 97 q 562 133 518 97 q 651 220 606 168 q 738 329 696 272 q 810 431 781 386 q 855 571 829 500 q 907 705 881 642 q 958 820 933 768 q 1001 904 982 872 q 1043 949 1018 932 q 1094 977 1068 967 q 1146 992 1121 988 q 1189 996 1171 996 q 1229 976 1229 996 q 1196 926 1229 965 q 1158 863 1182 910 q 1104 749 1133 815 q 1045 606 1075 683 q 990 449 1015 528 q 950 298 965 371 q 935 171 935 225 q 958 101 935 122 q 1013 79 981 79 q 1067 97 1040 79 q 1115 139 1094 115 q 1161 199 1140 164 q 1168 208 1163 203 q 1176 215 1171 211 q 1189 218 1182 218 q 1209 210 1200 218 q 1218 190 1218 201 q 1216 180 1218 185 q 1211 169 1214 175 q 1206 157 1208 164 q 1138 71 1175 108 q 1062 13 1106 39 q 967 -14 1018 -14 m 1081 1281 q 1101 1271 1089 1281 q 1124 1247 1113 1261 q 1144 1217 1136 1233 q 1151 1190 1151 1201 q 1145 1161 1151 1172 q 1118 1132 1139 1150 q 1070 1098 1096 1113 q 1018 1074 1044 1083 q 969 1060 992 1065 q 931 1056 946 1056 q 912 1063 918 1056 q 906 1076 906 1069 q 910 1091 906 1085 q 928 1104 914 1097 q 993 1157 960 1124 q 1047 1253 1026 1190 q 1081 1281 1057 1281 m 847 1281 q 867 1271 856 1281 q 891 1247 879 1261 q 910 1217 903 1233 q 918 1190 918 1201 q 912 1161 918 1172 q 885 1132 906 1150 q 837 1098 863 1113 q 785 1074 811 1083 q 735 1060 758 1065 q 697 1056 713 1056 q 678 1063 685 1056 q 672 1076 672 1069 q 676 1091 672 1085 q 694 1104 681 1097 q 760 1157 726 1124 q 814 1253 793 1190 q 847 1281 824 1281 z "},"Ū":{"ha":1161,"x_min":-14,"x_max":1229,"o":"m 967 -14 q 893 0 929 -14 q 828 39 857 14 q 782 99 800 64 q 764 178 764 135 q 764 201 764 189 q 767 228 764 214 q 706 148 742 190 q 627 69 671 106 q 533 10 583 33 q 426 -14 482 -14 q 353 -1 388 -14 q 292 33 318 11 q 249 85 265 56 q 233 146 233 114 q 253 249 233 190 q 303 374 274 308 q 368 507 333 439 q 433 639 403 575 q 483 760 463 703 q 503 860 503 817 q 492 903 503 885 q 443 922 482 922 q 365 901 411 922 q 274 843 318 879 q 199 760 231 807 q 168 663 168 713 q 179 607 168 631 q 203 567 190 583 q 226 539 215 550 q 238 521 238 528 q 208 493 238 493 q 142 508 181 493 q 69 549 104 522 q 10 610 35 575 q -14 686 -14 644 q 35 808 -14 750 q 159 910 85 867 q 320 980 233 954 q 483 1006 407 1006 q 623 966 568 1006 q 678 860 678 926 q 659 755 678 814 q 612 632 640 696 q 551 501 583 568 q 490 372 518 435 q 442 253 461 308 q 424 157 424 199 q 485 97 424 97 q 562 133 518 97 q 651 220 606 168 q 738 329 696 272 q 810 431 781 386 q 855 571 829 500 q 907 705 881 642 q 958 820 933 768 q 1001 904 982 872 q 1043 949 1018 932 q 1094 977 1068 967 q 1146 992 1121 988 q 1189 996 1171 996 q 1229 976 1229 996 q 1196 926 1229 965 q 1158 863 1182 910 q 1104 749 1133 815 q 1045 606 1075 683 q 990 449 1015 528 q 950 298 965 371 q 935 171 935 225 q 958 101 935 122 q 1013 79 981 79 q 1067 97 1040 79 q 1115 139 1094 115 q 1161 199 1140 164 q 1168 208 1163 203 q 1176 215 1171 211 q 1189 218 1182 218 q 1209 210 1200 218 q 1218 190 1218 201 q 1216 180 1218 185 q 1211 169 1214 175 q 1206 157 1208 164 q 1138 71 1175 108 q 1062 13 1106 39 q 967 -14 1018 -14 m 696 1064 q 674 1086 674 1064 q 677 1107 674 1093 q 686 1135 681 1121 q 699 1159 692 1149 q 717 1169 707 1169 l 1071 1169 q 1092 1165 1086 1169 q 1097 1149 1097 1161 q 1093 1127 1097 1142 q 1083 1099 1089 1113 q 1068 1074 1076 1085 q 1050 1064 1060 1064 l 696 1064 z "},"Ů":{"ha":1161,"x_min":-14,"x_max":1229,"o":"m 967 -14 q 893 0 929 -14 q 828 39 857 14 q 782 99 800 64 q 764 178 764 135 q 764 201 764 189 q 767 228 764 214 q 706 148 742 190 q 627 69 671 106 q 533 10 583 33 q 426 -14 482 -14 q 353 -1 388 -14 q 292 33 318 11 q 249 85 265 56 q 233 146 233 114 q 253 249 233 190 q 303 374 274 308 q 368 507 333 439 q 433 639 403 575 q 483 760 463 703 q 503 860 503 817 q 492 903 503 885 q 443 922 482 922 q 365 901 411 922 q 274 843 318 879 q 199 760 231 807 q 168 663 168 713 q 179 607 168 631 q 203 567 190 583 q 226 539 215 550 q 238 521 238 528 q 208 493 238 493 q 142 508 181 493 q 69 549 104 522 q 10 610 35 575 q -14 686 -14 644 q 35 808 -14 750 q 159 910 85 867 q 320 980 233 954 q 483 1006 407 1006 q 623 966 568 1006 q 678 860 678 926 q 659 755 678 814 q 612 632 640 696 q 551 501 583 568 q 490 372 518 435 q 442 253 461 308 q 424 157 424 199 q 485 97 424 97 q 562 133 518 97 q 651 220 606 168 q 738 329 696 272 q 810 431 781 386 q 855 571 829 500 q 907 705 881 642 q 958 820 933 768 q 1001 904 982 872 q 1043 949 1018 932 q 1094 977 1068 967 q 1146 992 1121 988 q 1189 996 1171 996 q 1229 976 1229 996 q 1196 926 1229 965 q 1158 863 1182 910 q 1104 749 1133 815 q 1045 606 1075 683 q 990 449 1015 528 q 950 298 965 371 q 935 171 935 225 q 958 101 935 122 q 1013 79 981 79 q 1067 97 1040 79 q 1115 139 1094 115 q 1161 199 1140 164 q 1168 208 1163 203 q 1176 215 1171 211 q 1189 218 1182 218 q 1209 210 1200 218 q 1218 190 1218 201 q 1216 180 1218 185 q 1211 169 1214 175 q 1206 157 1208 164 q 1138 71 1175 108 q 1062 13 1106 39 q 967 -14 1018 -14 m 719 1165 q 761 1268 719 1226 q 864 1310 803 1310 q 967 1268 925 1310 q 1008 1165 1008 1226 q 967 1063 1008 1104 q 864 1021 925 1021 q 761 1063 803 1021 q 719 1165 719 1104 m 803 1165 q 821 1122 803 1140 q 864 1104 839 1104 q 906 1122 889 1104 q 922 1165 922 1140 q 906 1207 922 1190 q 864 1224 889 1224 q 821 1207 839 1224 q 803 1165 803 1190 z "},"V":{"ha":1026,"x_min":14,"x_max":1200,"o":"m 582 168 q 731 320 653 231 q 874 511 808 410 q 983 719 940 613 q 1026 921 1026 825 q 1021 962 1026 944 q 1015 988 1015 979 q 1032 1006 1015 1006 q 1081 994 1051 1006 q 1136 965 1110 983 q 1181 921 1163 946 q 1200 867 1200 896 q 1172 738 1200 807 q 1098 596 1144 669 q 991 447 1051 522 q 865 301 931 372 q 731 165 799 229 q 606 47 664 100 q 554 4 578 22 q 511 -14 531 -14 q 478 1 497 -14 q 441 38 458 15 q 411 88 424 61 q 399 139 399 114 q 413 249 399 188 q 447 375 426 310 q 490 508 467 440 q 534 640 514 576 q 568 760 554 704 q 582 860 582 817 q 568 903 582 885 q 522 922 554 922 q 414 888 469 922 q 313 803 358 854 q 238 692 267 751 q 208 582 208 632 q 219 515 208 542 q 242 471 229 489 q 266 443 256 453 q 276 426 276 433 q 247 400 276 400 q 180 417 219 400 q 103 461 140 433 q 40 526 67 489 q 14 606 14 564 q 40 703 14 654 q 111 797 67 753 q 213 880 156 842 q 331 946 269 918 q 451 990 392 974 q 563 1006 511 1006 q 639 993 604 1006 q 699 960 674 981 q 738 910 724 939 q 751 847 751 881 q 739 740 751 799 q 708 617 726 681 q 667 490 689 554 q 626 366 644 425 q 594 256 607 307 q 582 168 582 204 z "},"W":{"ha":1393,"x_min":14,"x_max":1465,"o":"m 1290 863 q 1282 949 1290 922 q 1274 988 1274 976 q 1290 1006 1274 1006 q 1340 994 1310 1006 q 1397 965 1369 983 q 1445 921 1425 946 q 1465 867 1465 896 q 1447 683 1465 781 q 1393 487 1428 585 q 1311 299 1358 389 q 1208 139 1264 208 q 1087 28 1151 69 q 956 -14 1022 -14 q 863 10 897 -14 q 810 65 829 35 q 779 146 788 101 q 692 65 738 101 q 601 10 651 35 q 497 -14 551 -14 q 433 -3 464 -14 q 378 26 403 7 q 340 74 354 46 q 326 138 326 101 q 345 244 326 186 q 392 367 364 303 q 454 497 421 431 q 516 627 488 563 q 563 751 544 692 q 582 860 582 810 q 568 903 582 885 q 522 922 554 922 q 426 888 481 922 q 323 803 371 854 q 242 692 275 751 q 208 582 208 632 q 219 515 208 542 q 242 471 229 489 q 266 443 256 453 q 276 426 276 433 q 247 400 276 400 q 180 417 219 400 q 103 461 140 433 q 40 526 67 489 q 14 606 14 564 q 40 703 14 654 q 111 797 67 753 q 213 880 156 842 q 331 946 269 918 q 452 990 392 974 q 563 1006 513 1006 q 699 963 647 1006 q 751 835 751 921 q 734 737 751 792 q 690 620 717 682 q 633 494 664 558 q 576 369 603 429 q 533 256 550 308 q 515 164 515 203 q 532 120 515 136 q 575 104 549 104 q 635 128 601 104 q 697 181 668 151 q 767 257 732 214 q 810 476 781 379 q 838 557 822 518 q 876 627 854 596 q 926 677 899 658 q 988 696 954 696 q 1044 674 1022 696 q 1065 621 1065 653 q 1057 565 1065 596 q 1035 502 1049 535 q 1003 437 1021 469 q 968 374 986 404 q 871 228 925 301 q 888 167 876 193 q 913 125 897 143 q 953 107 928 107 q 1040 142 997 107 q 1121 236 1083 178 q 1190 372 1158 294 q 1243 533 1221 450 q 1278 702 1265 617 q 1290 863 1290 788 z "},"X":{"ha":1196,"x_min":79,"x_max":1383,"o":"m 1001 -14 q 901 3 947 -14 q 822 49 856 19 q 769 121 788 79 q 750 213 750 163 l 750 336 q 654 203 700 267 q 565 91 608 139 q 482 15 522 43 q 403 -14 442 -14 q 281 10 339 -14 q 177 71 222 35 q 106 149 132 107 q 79 226 79 190 q 106 303 79 268 q 170 364 132 339 q 251 403 208 389 q 324 418 293 418 q 348 412 339 418 q 357 397 357 406 q 351 378 357 386 q 329 356 344 369 q 303 330 318 346 q 274 294 288 314 q 251 249 261 274 q 242 199 242 225 q 265 126 242 149 q 325 104 289 104 q 412 131 368 104 q 506 210 456 158 q 615 337 556 261 q 749 508 674 413 q 747 667 747 586 q 747 843 747 749 q 734 903 747 883 q 682 922 721 922 q 609 903 650 922 q 532 849 568 883 q 471 771 496 815 q 446 676 446 726 q 457 621 446 644 q 481 580 468 597 q 504 551 493 563 q 515 533 515 540 q 486 507 515 507 q 420 522 458 507 q 347 562 382 536 q 289 622 313 588 q 265 699 265 657 q 308 820 265 764 q 418 917 351 876 q 565 982 485 958 q 721 1006 646 1006 q 799 994 763 1006 q 863 963 836 983 q 906 913 890 942 q 924 847 922 883 q 925 801 925 829 q 926 736 925 772 q 1016 840 971 790 q 1105 926 1061 889 q 1190 984 1149 963 q 1269 1006 1232 1006 q 1310 994 1290 1006 q 1347 969 1331 983 q 1374 939 1364 954 q 1383 915 1383 924 q 1375 894 1383 901 q 1356 888 1367 888 q 1253 864 1306 888 q 1147 799 1201 840 q 1038 700 1093 757 q 928 576 982 643 l 928 292 q 961 138 928 196 q 1047 79 994 79 q 1102 97 1075 79 q 1150 139 1129 115 q 1196 199 1175 164 q 1203 208 1197 203 q 1211 215 1206 211 q 1224 218 1217 218 q 1244 210 1235 218 q 1253 190 1253 201 q 1251 180 1253 185 q 1246 169 1249 175 q 1240 157 1243 164 q 1172 71 1210 108 q 1097 13 1140 39 q 1001 -14 1053 -14 z "},"Y":{"ha":1074,"x_min":0,"x_max":1229,"o":"m 1118 157 q 1023 56 1086 104 q 847 -31 960 8 q 781 -181 817 -114 q 701 -297 746 -249 q 602 -370 657 -344 q 478 -396 547 -396 q 377 -378 424 -396 q 296 -333 331 -361 q 242 -269 261 -304 q 222 -201 222 -235 q 260 -112 222 -147 q 361 -56 299 -78 q 502 -22 424 -35 q 661 0 581 -10 q 672 1 668 0 q 717 122 694 57 q 764 261 740 186 q 710 214 740 239 q 644 168 679 189 q 569 133 608 147 q 490 119 529 119 q 420 133 454 119 q 359 168 386 146 q 315 220 332 190 q 299 282 299 250 q 331 419 299 344 q 401 569 363 493 q 471 721 439 646 q 503 860 503 796 q 492 903 503 885 q 443 922 482 922 q 365 901 411 922 q 274 843 318 879 q 199 760 231 807 q 168 663 168 713 q 179 607 168 631 q 203 567 190 583 q 226 539 215 550 q 238 521 238 528 q 208 493 238 493 q 144 508 181 493 q 76 549 108 522 q 22 610 44 575 q 0 686 0 644 q 47 808 0 750 q 166 910 94 867 q 322 980 238 954 q 483 1006 407 1006 q 563 993 525 1006 q 627 960 600 981 q 670 910 654 939 q 686 847 686 881 q 658 704 686 776 q 598 564 631 632 q 538 435 565 496 q 510 326 510 374 q 526 270 510 294 q 575 246 543 246 q 644 269 608 246 q 715 327 681 293 q 780 399 750 361 q 829 464 810 436 l 846 515 q 890 646 871 593 q 927 740 908 699 q 967 818 946 781 q 1015 904 988 856 q 1054 949 1032 932 q 1101 977 1076 967 q 1148 992 1125 988 q 1189 996 1171 996 q 1229 976 1229 996 q 1196 926 1229 965 q 1161 871 1183 911 q 1112 774 1139 831 q 1057 647 1085 717 q 1008 506 1029 578 q 940 265 972 379 q 875 50 907 150 q 1000 119 953 79 q 1074 199 1047 158 q 1081 208 1075 203 q 1089 215 1083 211 q 1101 218 1094 218 q 1122 210 1113 218 q 1131 190 1131 201 q 1128 180 1131 185 q 1124 169 1126 175 q 1118 157 1121 164 m 428 -317 q 536 -258 486 -317 q 636 -85 586 -200 q 528 -113 578 -96 q 440 -152 478 -131 q 381 -199 403 -174 q 360 -250 360 -224 q 381 -297 360 -278 q 428 -317 401 -317 z "},"Ý":{"ha":1074,"x_min":0,"x_max":1229,"o":"m 1118 157 q 1023 56 1086 104 q 847 -31 960 8 q 781 -181 817 -114 q 701 -297 746 -249 q 602 -370 657 -344 q 478 -396 547 -396 q 377 -378 424 -396 q 296 -333 331 -361 q 242 -269 261 -304 q 222 -201 222 -235 q 260 -112 222 -147 q 361 -56 299 -78 q 502 -22 424 -35 q 661 0 581 -10 q 672 1 668 0 q 717 122 694 57 q 764 261 740 186 q 710 214 740 239 q 644 168 679 189 q 569 133 608 147 q 490 119 529 119 q 420 133 454 119 q 359 168 386 146 q 315 220 332 190 q 299 282 299 250 q 331 419 299 344 q 401 569 363 493 q 471 721 439 646 q 503 860 503 796 q 492 903 503 885 q 443 922 482 922 q 365 901 411 922 q 274 843 318 879 q 199 760 231 807 q 168 663 168 713 q 179 607 168 631 q 203 567 190 583 q 226 539 215 550 q 238 521 238 528 q 208 493 238 493 q 144 508 181 493 q 76 549 108 522 q 22 610 44 575 q 0 686 0 644 q 47 808 0 750 q 166 910 94 867 q 322 980 238 954 q 483 1006 407 1006 q 563 993 525 1006 q 627 960 600 981 q 670 910 654 939 q 686 847 686 881 q 658 704 686 776 q 598 564 631 632 q 538 435 565 496 q 510 326 510 374 q 526 270 510 294 q 575 246 543 246 q 644 269 608 246 q 715 327 681 293 q 780 399 750 361 q 829 464 810 436 q 883 624 860 561 q 926 733 906 688 q 967 817 946 779 q 1015 904 988 856 q 1054 949 1032 932 q 1101 977 1076 967 q 1148 992 1125 988 q 1189 996 1171 996 q 1229 976 1229 996 q 1196 926 1229 965 q 1161 871 1183 911 q 1112 774 1139 831 q 1057 647 1085 717 q 1008 506 1029 578 q 940 265 972 379 q 875 50 907 150 q 1000 119 953 79 q 1074 199 1047 158 q 1081 208 1075 203 q 1089 215 1083 211 q 1101 218 1094 218 q 1122 210 1113 218 q 1131 190 1131 201 q 1128 180 1131 185 q 1124 169 1126 175 q 1118 157 1121 164 m 428 -317 q 536 -258 486 -317 q 636 -85 586 -200 q 528 -113 578 -96 q 440 -152 478 -131 q 381 -199 403 -174 q 360 -250 360 -224 q 381 -297 360 -278 q 428 -317 401 -317 m 960 1156 q 980 1146 968 1156 q 1003 1122 992 1136 q 1023 1091 1015 1107 q 1031 1064 1031 1075 q 1024 1035 1031 1047 q 997 1006 1018 1024 q 947 972 975 986 q 890 949 918 958 q 836 935 861 940 q 794 931 811 931 q 776 937 783 931 q 769 951 769 943 q 774 965 769 960 q 792 978 778 971 q 859 1037 824 997 q 926 1128 894 1076 q 942 1149 935 1142 q 960 1156 949 1156 z "},"Ÿ":{"ha":1074,"x_min":0,"x_max":1229,"o":"m 1118 157 q 1023 56 1086 104 q 847 -31 960 8 q 781 -181 817 -114 q 701 -297 746 -249 q 602 -370 657 -344 q 478 -396 547 -396 q 377 -378 424 -396 q 296 -333 331 -361 q 242 -269 261 -304 q 222 -201 222 -235 q 260 -112 222 -147 q 361 -56 299 -78 q 502 -22 424 -35 q 661 0 581 -10 q 672 1 668 0 q 717 122 694 57 q 764 261 740 186 q 710 214 740 239 q 644 168 679 189 q 569 133 608 147 q 490 119 529 119 q 420 133 454 119 q 359 168 386 146 q 315 220 332 190 q 299 282 299 250 q 331 419 299 344 q 401 569 363 493 q 471 721 439 646 q 503 860 503 796 q 492 903 503 885 q 443 922 482 922 q 365 901 411 922 q 274 843 318 879 q 199 760 231 807 q 168 663 168 713 q 179 607 168 631 q 203 567 190 583 q 226 539 215 550 q 238 521 238 528 q 208 493 238 493 q 144 508 181 493 q 76 549 108 522 q 22 610 44 575 q 0 686 0 644 q 47 808 0 750 q 166 910 94 867 q 322 980 238 954 q 483 1006 407 1006 q 563 993 525 1006 q 627 960 600 981 q 670 910 654 939 q 686 847 686 881 q 658 704 686 776 q 598 564 631 632 q 538 435 565 496 q 510 326 510 374 q 526 270 510 294 q 575 246 543 246 q 644 269 608 246 q 715 327 681 293 q 780 399 750 361 q 829 464 810 436 l 846 515 q 890 646 871 593 q 927 740 908 699 q 967 818 946 781 q 1015 904 988 856 q 1054 949 1032 932 q 1101 977 1076 967 q 1148 992 1125 988 q 1189 996 1171 996 q 1229 976 1229 996 q 1196 926 1229 965 q 1161 871 1183 911 q 1112 774 1139 831 q 1057 647 1085 717 q 1008 506 1029 578 q 940 265 972 379 q 875 50 907 150 q 1000 119 953 79 q 1074 199 1047 158 q 1081 208 1075 203 q 1089 215 1083 211 q 1101 218 1094 218 q 1122 210 1113 218 q 1131 190 1131 201 q 1128 180 1131 185 q 1124 169 1126 175 q 1118 157 1121 164 m 428 -317 q 536 -258 486 -317 q 636 -85 586 -200 q 528 -113 578 -96 q 440 -152 478 -131 q 381 -199 403 -174 q 360 -250 360 -224 q 381 -297 360 -278 q 428 -317 401 -317 m 708 1094 q 716 1131 708 1113 q 737 1165 724 1150 q 767 1191 750 1181 q 804 1201 785 1201 q 847 1182 831 1201 q 863 1135 863 1163 q 856 1097 863 1117 q 835 1063 849 1078 q 804 1037 822 1047 q 764 1026 786 1026 q 724 1046 740 1026 q 708 1094 708 1065 m 910 1094 q 917 1131 910 1113 q 938 1165 925 1150 q 969 1191 951 1181 q 1006 1201 986 1201 q 1048 1182 1032 1201 q 1064 1135 1064 1163 q 1057 1097 1064 1117 q 1037 1063 1050 1078 q 1006 1037 1024 1047 q 965 1026 988 1026 q 926 1046 942 1026 q 910 1094 910 1065 z "},"Z":{"ha":850,"x_min":-1,"x_max":974,"o":"m 894 157 q 825 71 864 108 q 744 13 792 39 q 639 -14 697 -14 q 542 -4 581 -14 q 469 18 504 6 q 395 40 435 31 q 296 50 356 50 q 240 40 267 50 q 192 17 214 29 q 151 -6 169 4 q 115 -17 132 -17 q 78 -6 99 -17 q 40 23 58 6 q 10 62 22 40 q -1 103 -1 83 q 17 149 -1 118 q 68 220 36 179 q 142 309 100 261 q 230 407 183 357 q 324 507 276 457 q 414 601 371 557 q 526 715 478 667 q 607 796 574 763 q 663 849 640 829 q 697 876 685 868 q 576 888 650 876 q 419 900 503 900 q 315 875 357 900 q 272 801 272 850 q 283 748 272 769 q 307 712 294 726 q 331 688 319 697 q 342 671 342 678 q 313 644 342 644 q 246 658 285 644 q 171 697 207 672 q 109 755 135 721 q 83 831 83 789 q 103 899 83 867 q 157 954 122 931 q 238 992 192 978 q 339 1006 285 1006 q 576 992 478 1006 q 721 978 675 978 q 765 982 744 978 q 803 992 785 986 q 840 1001 822 997 q 876 1006 858 1006 q 908 996 890 1006 q 940 973 925 986 q 964 947 954 960 q 974 926 974 933 q 965 905 974 913 q 939 886 957 897 q 876 837 917 872 q 783 751 836 801 q 668 638 731 701 q 540 507 606 575 q 407 364 469 433 q 296 239 344 294 q 189 115 239 174 q 257 140 221 129 q 329 158 289 150 q 414 165 369 165 q 495 160 458 165 q 566 149 532 156 q 634 138 600 143 q 708 133 668 133 q 771 143 744 133 q 815 165 797 153 q 850 199 836 181 q 857 208 851 203 q 865 215 860 211 q 878 218 871 218 q 898 210 889 218 q 907 190 907 201 q 905 180 907 185 q 900 169 903 175 q 894 157 897 164 z "},"Ź":{"ha":850,"x_min":-1,"x_max":974,"o":"m 894 157 q 825 71 864 108 q 744 13 792 39 q 639 -14 697 -14 q 542 -4 581 -14 q 469 18 504 6 q 395 40 435 31 q 296 50 356 50 q 240 40 267 50 q 192 17 214 29 q 151 -6 169 4 q 115 -17 132 -17 q 78 -6 99 -17 q 40 23 58 6 q 10 62 22 40 q -1 103 -1 83 q 17 149 -1 118 q 68 220 36 179 q 142 309 100 261 q 230 407 183 357 q 324 507 276 457 q 414 601 371 557 q 526 715 478 667 q 607 796 574 763 q 663 849 640 829 q 697 876 685 868 q 576 888 650 876 q 419 900 503 900 q 315 875 357 900 q 272 801 272 850 q 283 748 272 769 q 307 712 294 726 q 331 688 319 697 q 342 671 342 678 q 313 644 342 644 q 246 658 285 644 q 171 697 207 672 q 109 755 135 721 q 83 831 83 789 q 103 899 83 867 q 157 954 122 931 q 238 992 192 978 q 339 1006 285 1006 q 576 992 478 1006 q 721 978 675 978 q 765 982 744 978 q 803 992 785 986 q 840 1001 822 997 q 876 1006 858 1006 q 908 996 890 1006 q 940 973 925 986 q 964 947 954 960 q 974 926 974 933 q 965 905 974 913 q 939 886 957 897 q 876 837 917 872 q 783 751 836 801 q 668 638 731 701 q 540 507 606 575 q 407 364 469 433 q 296 239 344 294 q 189 115 239 174 q 257 140 221 129 q 329 158 289 150 q 414 165 369 165 q 495 160 458 165 q 566 149 532 156 q 634 138 600 143 q 708 133 668 133 q 771 143 744 133 q 815 165 797 153 q 850 199 836 181 q 857 208 851 203 q 865 215 860 211 q 878 218 871 218 q 898 210 889 218 q 907 190 907 201 q 905 180 907 185 q 900 169 903 175 q 894 157 897 164 m 701 1279 q 722 1269 710 1279 q 745 1245 733 1260 q 765 1215 757 1231 q 772 1188 772 1199 q 766 1159 772 1171 q 739 1129 760 1147 q 688 1096 717 1110 q 631 1073 660 1082 q 578 1059 603 1064 q 536 1054 553 1054 q 518 1060 525 1054 q 511 1075 511 1067 q 515 1089 511 1083 q 533 1101 519 1094 q 601 1160 565 1121 q 668 1251 636 1200 q 683 1272 676 1265 q 701 1279 690 1279 z "},"Ž":{"ha":850,"x_min":-1,"x_max":974,"o":"m 894 157 q 825 71 864 108 q 744 13 792 39 q 639 -14 697 -14 q 542 -4 581 -14 q 469 18 504 6 q 395 40 435 31 q 296 50 356 50 q 240 40 267 50 q 192 17 214 29 q 151 -6 169 4 q 115 -17 132 -17 q 78 -6 99 -17 q 40 23 58 6 q 10 62 22 40 q -1 103 -1 83 q 17 149 -1 118 q 68 220 36 179 q 142 309 100 261 q 230 407 183 357 q 324 507 276 457 q 414 601 371 557 q 526 715 478 667 q 607 796 574 763 q 663 849 640 829 q 697 876 685 868 q 576 888 650 876 q 419 900 503 900 q 315 875 357 900 q 272 801 272 850 q 283 748 272 769 q 307 712 294 726 q 331 688 319 697 q 342 671 342 678 q 313 644 342 644 q 246 658 285 644 q 171 697 207 672 q 109 755 135 721 q 83 831 83 789 q 103 899 83 867 q 157 954 122 931 q 238 992 192 978 q 339 1006 285 1006 q 576 992 478 1006 q 721 978 675 978 q 765 982 744 978 q 803 992 785 986 q 840 1001 822 997 q 876 1006 858 1006 q 908 996 890 1006 q 940 973 925 986 q 964 947 954 960 q 974 926 974 933 q 965 905 974 913 q 939 886 957 897 q 876 837 917 872 q 783 751 836 801 q 668 638 731 701 q 540 507 606 575 q 407 364 469 433 q 296 239 344 294 q 189 115 239 174 q 257 140 221 129 q 329 158 289 150 q 414 165 369 165 q 495 160 458 165 q 566 149 532 156 q 634 138 600 143 q 708 133 668 133 q 771 143 744 133 q 815 165 797 153 q 850 199 836 181 q 857 208 851 203 q 865 215 860 211 q 878 218 871 218 q 898 210 889 218 q 907 190 907 201 q 905 180 907 185 q 900 169 903 175 q 894 157 897 164 m 576 1067 q 548 1076 564 1067 q 516 1100 532 1085 q 485 1133 500 1115 q 457 1171 469 1151 q 428 1220 436 1201 q 419 1251 419 1239 q 426 1269 419 1264 q 439 1275 432 1275 q 457 1268 447 1275 q 482 1250 467 1261 q 546 1207 514 1221 q 606 1193 578 1193 q 715 1253 651 1193 q 742 1274 731 1267 q 764 1282 753 1282 q 786 1260 786 1282 q 770 1221 786 1246 q 706 1147 754 1196 q 637 1090 674 1113 q 576 1067 600 1067 z "},"Ż":{"ha":850,"x_min":-1,"x_max":974,"o":"m 894 157 q 825 71 864 108 q 744 13 792 39 q 639 -14 697 -14 q 542 -4 581 -14 q 469 18 504 6 q 395 40 435 31 q 296 50 356 50 q 240 40 267 50 q 192 17 214 29 q 151 -6 169 4 q 115 -17 132 -17 q 78 -6 99 -17 q 40 23 58 6 q 10 62 22 40 q -1 103 -1 83 q 17 149 -1 118 q 68 220 36 179 q 142 309 100 261 q 230 407 183 357 q 324 507 276 457 q 414 601 371 557 q 526 715 478 667 q 607 796 574 763 q 663 849 640 829 q 697 876 685 868 q 576 888 650 876 q 419 900 503 900 q 315 875 357 900 q 272 801 272 850 q 283 748 272 769 q 307 712 294 726 q 331 688 319 697 q 342 671 342 678 q 313 644 342 644 q 246 658 285 644 q 171 697 207 672 q 109 755 135 721 q 83 831 83 789 q 103 899 83 867 q 157 954 122 931 q 238 992 192 978 q 339 1006 285 1006 q 576 992 478 1006 q 721 978 675 978 q 765 982 744 978 q 803 992 785 986 q 840 1001 822 997 q 876 1006 858 1006 q 908 996 890 1006 q 940 973 925 986 q 964 947 954 960 q 974 926 974 933 q 965 905 974 913 q 939 886 957 897 q 876 837 917 872 q 783 751 836 801 q 668 638 731 701 q 540 507 606 575 q 407 364 469 433 q 296 239 344 294 q 189 115 239 174 q 257 140 221 129 q 329 158 289 150 q 414 165 369 165 q 495 160 458 165 q 566 149 532 156 q 634 138 600 143 q 708 133 668 133 q 771 143 744 133 q 815 165 797 153 q 850 199 836 181 q 857 208 851 203 q 865 215 860 211 q 878 218 871 218 q 898 210 889 218 q 907 190 907 201 q 905 180 907 185 q 900 169 903 175 q 894 157 897 164 m 522 1125 q 531 1167 522 1146 q 553 1206 539 1188 q 585 1235 567 1224 q 625 1246 604 1246 q 672 1227 653 1246 q 692 1178 692 1208 q 685 1137 692 1158 q 665 1097 678 1115 q 634 1067 653 1079 q 592 1056 615 1056 q 542 1074 563 1056 q 522 1125 522 1093 z "},"a":{"ha":660,"x_min":-17,"x_max":717,"o":"m 704 157 q 636 71 674 108 q 560 13 604 39 q 465 -14 517 -14 q 367 16 407 -14 q 319 104 326 46 q 260 44 292 69 q 197 4 232 22 q 122 -14 163 -14 q 69 -3 94 -14 q 24 26 43 7 q -6 72 6 46 q -17 131 -17 99 q 12 279 -17 206 q 86 412 40 353 q 189 507 132 471 q 303 543 246 543 q 374 533 344 543 q 421 510 403 522 q 454 478 442 494 q 487 474 469 478 q 519 463 504 471 q 543 443 533 456 q 553 413 553 431 q 540 363 553 397 q 513 285 528 328 q 485 198 497 243 q 472 118 472 153 q 483 90 472 101 q 511 79 493 79 q 566 97 539 79 q 614 139 593 115 q 660 199 639 164 q 667 208 661 203 q 675 215 669 211 q 688 218 681 218 q 708 210 699 218 q 717 190 717 201 q 715 180 717 185 q 710 169 713 175 q 704 157 707 164 m 382 403 q 367 448 382 433 q 332 463 353 463 q 269 431 301 463 q 212 352 238 399 q 169 251 186 306 q 153 154 153 197 q 193 92 153 92 q 251 125 218 92 q 313 207 283 158 q 362 309 342 256 q 382 403 382 363 z "},"":{"ha":1343,"x_min":-17,"x_max":1343,"o":"m 1186 -36 q 1168 -30 1175 -36 q 1161 -11 1161 -24 q 1167 6 1161 -4 q 1182 29 1174 15 q 1197 60 1190 43 q 1203 97 1203 76 q 1175 169 1203 142 q 1093 196 1147 196 q 929 163 1011 196 q 767 91 847 131 q 611 19 688 51 q 465 -14 535 -14 q 367 16 407 -14 q 319 104 326 46 q 260 44 292 69 q 197 4 232 22 q 122 -14 163 -14 q 69 -3 94 -14 q 24 26 43 7 q -6 72 6 46 q -17 131 -17 99 q 12 279 -17 206 q 86 412 40 353 q 189 507 132 471 q 303 543 246 543 q 374 533 344 543 q 421 510 403 522 q 454 478 442 494 q 487 474 469 478 q 519 463 504 471 q 543 443 533 456 q 553 413 553 431 q 540 363 553 397 q 513 285 528 328 q 485 198 497 243 q 472 118 472 153 q 483 90 472 101 q 511 79 493 79 q 590 101 546 79 q 687 156 635 124 q 797 228 739 189 q 914 299 854 267 q 1035 354 974 332 q 1154 376 1096 376 q 1292 328 1240 376 q 1343 204 1343 279 q 1321 109 1343 153 q 1271 33 1299 65 q 1218 -18 1243 0 q 1186 -36 1193 -36 m 382 403 q 367 448 382 433 q 332 463 353 463 q 269 431 301 463 q 212 352 238 399 q 169 251 186 306 q 153 154 153 197 q 193 92 153 92 q 251 125 218 92 q 313 207 283 158 q 362 309 342 256 q 382 403 382 363 z "},"":{"ha":1343,"x_min":-17,"x_max":1343,"o":"m 1186 -36 q 1168 -30 1175 -36 q 1161 -11 1161 -24 q 1167 6 1161 -4 q 1182 29 1174 15 q 1197 60 1190 43 q 1203 97 1203 76 q 1175 169 1203 142 q 1093 196 1147 196 q 929 163 1011 196 q 767 91 847 131 q 611 19 688 51 q 465 -14 535 -14 q 367 16 407 -14 q 319 104 326 46 q 260 44 292 69 q 197 4 232 22 q 122 -14 163 -14 q 69 -3 94 -14 q 24 26 43 7 q -6 72 6 46 q -17 131 -17 99 q 12 279 -17 206 q 86 412 40 353 q 189 507 132 471 q 303 543 246 543 q 374 533 344 543 q 421 510 403 522 q 454 478 442 494 q 487 474 469 478 q 519 463 504 471 q 543 443 533 456 q 553 413 553 431 q 540 363 553 397 q 513 285 528 328 q 485 198 497 243 q 472 118 472 153 q 483 90 472 101 q 511 79 493 79 q 590 101 546 79 q 687 156 635 124 q 797 228 739 189 q 914 299 854 267 q 1035 354 974 332 q 1154 376 1096 376 q 1292 328 1240 376 q 1343 204 1343 279 q 1321 109 1343 153 q 1271 33 1299 65 q 1218 -18 1243 0 q 1186 -36 1193 -36 m 382 403 q 367 448 382 433 q 332 463 353 463 q 269 431 301 463 q 212 352 238 399 q 169 251 186 306 q 153 154 153 197 q 193 92 153 92 q 251 125 218 92 q 313 207 283 158 q 362 309 342 256 q 382 403 382 363 m 526 826 q 547 817 535 826 q 570 792 558 807 q 590 762 582 778 q 597 735 597 746 q 591 706 597 718 q 564 676 585 694 q 513 643 542 657 q 456 620 485 629 q 403 606 428 611 q 361 601 378 601 q 343 608 350 601 q 336 622 336 614 q 340 636 336 631 q 358 649 344 642 q 426 708 390 668 q 493 799 461 747 q 508 819 501 813 q 526 826 515 826 z "},"":{"ha":1343,"x_min":-17,"x_max":1343,"o":"m 1186 -36 q 1168 -30 1175 -36 q 1161 -11 1161 -24 q 1167 6 1161 -4 q 1182 29 1174 15 q 1197 60 1190 43 q 1203 97 1203 76 q 1175 169 1203 142 q 1093 196 1147 196 q 929 163 1011 196 q 767 91 847 131 q 611 19 688 51 q 465 -14 535 -14 q 367 16 407 -14 q 319 104 326 46 q 260 44 292 69 q 197 4 232 22 q 122 -14 163 -14 q 69 -3 94 -14 q 24 26 43 7 q -6 72 6 46 q -17 131 -17 99 q 12 279 -17 206 q 86 412 40 353 q 189 507 132 471 q 303 543 246 543 q 374 533 344 543 q 421 510 403 522 q 454 478 442 494 q 487 474 469 478 q 519 463 504 471 q 543 443 533 456 q 553 413 553 431 q 540 363 553 397 q 513 285 528 328 q 485 198 497 243 q 472 118 472 153 q 483 90 472 101 q 511 79 493 79 q 590 101 546 79 q 687 156 635 124 q 797 228 739 189 q 914 299 854 267 q 1035 354 974 332 q 1154 376 1096 376 q 1292 328 1240 376 q 1343 204 1343 279 q 1321 109 1343 153 q 1271 33 1299 65 q 1218 -18 1243 0 q 1186 -36 1193 -36 m 382 403 q 367 448 382 433 q 332 463 353 463 q 269 431 301 463 q 212 352 238 399 q 169 251 186 306 q 153 154 153 197 q 193 92 153 92 q 251 125 218 92 q 313 207 283 158 q 362 309 342 256 q 382 403 382 363 m 392 589 q 266 626 315 589 q 217 731 217 664 q 241 790 217 769 q 293 810 265 810 q 336 767 336 810 q 334 751 336 757 q 330 741 332 746 q 326 731 328 736 q 324 717 324 725 q 345 685 324 697 q 401 674 367 674 q 472 694 450 674 q 493 740 493 714 q 510 792 493 776 q 554 807 526 807 q 594 792 578 807 q 610 753 610 778 q 583 678 610 717 q 515 617 561 646 q 392 589 468 589 z "},"":{"ha":1343,"x_min":-17,"x_max":1343,"o":"m 1186 -36 q 1168 -30 1175 -36 q 1161 -11 1161 -24 q 1167 6 1161 -4 q 1182 29 1174 15 q 1197 60 1190 43 q 1203 97 1203 76 q 1175 169 1203 142 q 1093 196 1147 196 q 929 163 1011 196 q 767 91 847 131 q 611 19 688 51 q 465 -14 535 -14 q 367 16 407 -14 q 319 104 326 46 q 260 44 292 69 q 197 4 232 22 q 122 -14 163 -14 q 69 -3 94 -14 q 24 26 43 7 q -6 72 6 46 q -17 131 -17 99 q 12 279 -17 206 q 86 412 40 353 q 189 507 132 471 q 303 543 246 543 q 374 533 344 543 q 421 510 403 522 q 454 478 442 494 q 487 474 469 478 q 519 463 504 471 q 543 443 533 456 q 553 413 553 431 q 540 363 553 397 q 513 285 528 328 q 485 198 497 243 q 472 118 472 153 q 483 90 472 101 q 511 79 493 79 q 590 101 546 79 q 687 156 635 124 q 797 228 739 189 q 914 299 854 267 q 1035 354 974 332 q 1154 376 1096 376 q 1292 328 1240 376 q 1343 204 1343 279 q 1321 109 1343 153 q 1271 33 1299 65 q 1218 -18 1243 0 q 1186 -36 1193 -36 m 382 403 q 367 448 382 433 q 332 463 353 463 q 269 431 301 463 q 212 352 238 399 q 169 251 186 306 q 153 154 153 197 q 193 92 153 92 q 251 125 218 92 q 313 207 283 158 q 362 309 342 256 q 382 403 382 363 m 388 676 q 379 674 385 676 q 368 668 374 671 q 318 641 344 654 q 268 617 292 628 q 227 600 244 607 q 203 593 210 593 q 185 601 192 593 q 178 617 178 608 q 200 650 178 635 q 266 698 236 674 q 336 765 296 722 q 365 799 351 785 q 406 813 378 813 q 428 808 421 813 q 442 797 436 804 q 451 781 447 790 q 463 760 456 771 q 508 697 485 724 q 554 651 531 671 q 574 636 568 642 q 579 619 579 631 q 572 602 579 611 q 553 593 564 593 q 533 597 547 593 q 499 608 519 600 q 454 631 479 617 q 403 668 429 646 q 388 676 394 676 z "},"":{"ha":1343,"x_min":-17,"x_max":1343,"o":"m 1186 -36 q 1168 -30 1175 -36 q 1161 -11 1161 -24 q 1167 6 1161 -4 q 1182 29 1174 15 q 1197 60 1190 43 q 1203 97 1203 76 q 1175 169 1203 142 q 1093 196 1147 196 q 929 163 1011 196 q 767 91 847 131 q 611 19 688 51 q 465 -14 535 -14 q 367 16 407 -14 q 319 104 326 46 q 260 44 292 69 q 197 4 232 22 q 122 -14 163 -14 q 69 -3 94 -14 q 24 26 43 7 q -6 72 6 46 q -17 131 -17 99 q 12 279 -17 206 q 86 412 40 353 q 189 507 132 471 q 303 543 246 543 q 374 533 344 543 q 421 510 403 522 q 454 478 442 494 q 487 474 469 478 q 519 463 504 471 q 543 443 533 456 q 553 413 553 431 q 540 363 553 397 q 513 285 528 328 q 485 198 497 243 q 472 118 472 153 q 483 90 472 101 q 511 79 493 79 q 590 101 546 79 q 687 156 635 124 q 797 228 739 189 q 914 299 854 267 q 1035 354 974 332 q 1154 376 1096 376 q 1292 328 1240 376 q 1343 204 1343 279 q 1321 109 1343 153 q 1271 33 1299 65 q 1218 -18 1243 0 q 1186 -36 1193 -36 m 382 403 q 367 448 382 433 q 332 463 353 463 q 269 431 301 463 q 212 352 238 399 q 169 251 186 306 q 153 154 153 197 q 193 92 153 92 q 251 125 218 92 q 313 207 283 158 q 362 309 342 256 q 382 403 382 363 m 174 675 q 181 712 174 693 q 202 746 189 731 q 233 772 215 761 q 269 782 250 782 q 312 763 296 782 q 328 715 328 743 q 321 678 328 697 q 301 643 314 658 q 269 617 288 628 q 229 607 251 607 q 190 626 206 607 q 174 675 174 646 m 375 675 q 383 712 375 693 q 403 746 390 731 q 434 772 417 761 q 471 782 451 782 q 513 763 497 782 q 529 715 529 743 q 522 678 529 697 q 502 643 515 658 q 471 617 489 628 q 431 607 453 607 q 391 626 407 607 q 375 675 375 646 z "},"":{"ha":1343,"x_min":-17,"x_max":1343,"o":"m 1186 -36 q 1168 -30 1175 -36 q 1161 -11 1161 -24 q 1167 6 1161 -4 q 1182 29 1174 15 q 1197 60 1190 43 q 1203 97 1203 76 q 1175 169 1203 142 q 1093 196 1147 196 q 929 163 1011 196 q 767 91 847 131 q 611 19 688 51 q 465 -14 535 -14 q 367 16 407 -14 q 319 104 326 46 q 260 44 292 69 q 197 4 232 22 q 122 -14 163 -14 q 69 -3 94 -14 q 24 26 43 7 q -6 72 6 46 q -17 131 -17 99 q 12 279 -17 206 q 86 412 40 353 q 189 507 132 471 q 303 543 246 543 q 374 533 344 543 q 421 510 403 522 q 454 478 442 494 q 487 474 469 478 q 519 463 504 471 q 543 443 533 456 q 553 413 553 431 q 540 363 553 397 q 513 285 528 328 q 485 198 497 243 q 472 118 472 153 q 483 90 472 101 q 511 79 493 79 q 590 101 546 79 q 687 156 635 124 q 797 228 739 189 q 914 299 854 267 q 1035 354 974 332 q 1154 376 1096 376 q 1292 328 1240 376 q 1343 204 1343 279 q 1321 109 1343 153 q 1271 33 1299 65 q 1218 -18 1243 0 q 1186 -36 1193 -36 m 382 403 q 367 448 382 433 q 332 463 353 463 q 269 431 301 463 q 212 352 238 399 q 169 251 186 306 q 153 154 153 197 q 193 92 153 92 q 251 125 218 92 q 313 207 283 158 q 362 309 342 256 q 382 403 382 363 m 346 825 q 379 797 368 825 q 403 747 389 774 q 436 698 418 721 q 472 656 454 675 q 506 628 490 638 q 524 615 519 621 q 528 601 528 610 q 522 587 528 593 q 503 581 515 581 q 463 588 488 581 q 411 609 439 596 q 356 639 383 622 q 307 675 329 656 q 280 705 286 693 q 274 733 274 717 q 282 760 274 744 q 301 791 290 776 q 325 815 313 806 q 346 825 338 825 z "},"":{"ha":1343,"x_min":-17,"x_max":1343,"o":"m 1186 -36 q 1168 -30 1175 -36 q 1161 -11 1161 -24 q 1167 6 1161 -4 q 1182 29 1174 15 q 1197 60 1190 43 q 1203 97 1203 76 q 1175 169 1203 142 q 1093 196 1147 196 q 929 163 1011 196 q 767 91 847 131 q 611 19 688 51 q 465 -14 535 -14 q 367 16 407 -14 q 319 104 326 46 q 260 44 292 69 q 197 4 232 22 q 122 -14 163 -14 q 69 -3 94 -14 q 24 26 43 7 q -6 72 6 46 q -17 131 -17 99 q 12 279 -17 206 q 86 412 40 353 q 189 507 132 471 q 303 543 246 543 q 374 533 344 543 q 421 510 403 522 q 454 478 442 494 q 487 474 469 478 q 519 463 504 471 q 543 443 533 456 q 553 413 553 431 q 540 363 553 397 q 513 285 528 328 q 485 198 497 243 q 472 118 472 153 q 483 90 472 101 q 511 79 493 79 q 590 101 546 79 q 687 156 635 124 q 797 228 739 189 q 914 299 854 267 q 1035 354 974 332 q 1154 376 1096 376 q 1292 328 1240 376 q 1343 204 1343 279 q 1321 109 1343 153 q 1271 33 1299 65 q 1218 -18 1243 0 q 1186 -36 1193 -36 m 382 403 q 367 448 382 433 q 332 463 353 463 q 269 431 301 463 q 212 352 238 399 q 169 251 186 306 q 153 154 153 197 q 193 92 153 92 q 251 125 218 92 q 313 207 283 158 q 362 309 342 256 q 382 403 382 363 m 200 596 q 178 618 178 596 q 181 639 178 625 q 190 667 185 653 q 203 691 196 681 q 221 701 211 701 l 575 701 q 596 697 590 701 q 601 681 601 693 q 597 659 601 674 q 587 631 593 644 q 572 606 581 617 q 554 596 564 596 l 200 596 z "},"":{"ha":1343,"x_min":-17,"x_max":1343,"o":"m 1186 -36 q 1168 -30 1175 -36 q 1161 -11 1161 -24 q 1167 6 1161 -4 q 1182 29 1174 15 q 1197 60 1190 43 q 1203 97 1203 76 q 1175 169 1203 142 q 1093 196 1147 196 q 942 167 1018 196 q 791 103 865 139 q 645 33 717 67 q 507 -10 574 0 q 469 -45 488 -25 q 451 -87 451 -65 q 478 -137 451 -114 q 558 -160 506 -160 q 575 -162 568 -160 q 582 -174 582 -165 q 576 -191 582 -182 q 561 -208 569 -200 q 515 -245 543 -228 q 458 -262 486 -262 q 418 -251 439 -262 q 381 -220 397 -239 q 353 -178 364 -201 q 342 -132 342 -156 q 364 -60 342 -92 q 417 -7 386 -29 q 351 31 378 3 q 319 104 325 58 q 260 44 292 69 q 197 4 232 22 q 122 -14 163 -14 q 69 -3 94 -14 q 24 26 43 7 q -6 72 6 46 q -17 131 -17 99 q 12 279 -17 206 q 86 412 40 353 q 189 507 132 471 q 303 543 246 543 q 374 533 344 543 q 421 510 403 522 q 454 478 442 494 q 487 474 469 478 q 519 463 504 471 q 543 443 533 456 q 553 413 553 431 q 540 363 553 397 q 513 285 528 328 q 485 198 497 243 q 472 118 472 153 q 483 90 472 101 q 511 79 493 79 q 590 101 546 79 q 687 156 635 124 q 797 228 739 189 q 914 299 854 267 q 1035 354 974 332 q 1154 376 1096 376 q 1292 328 1240 376 q 1343 204 1343 279 q 1321 109 1343 153 q 1271 33 1299 65 q 1218 -18 1243 0 q 1186 -36 1193 -36 m 382 403 q 367 448 382 433 q 332 463 353 463 q 269 431 301 463 q 212 352 238 399 q 169 251 186 306 q 153 154 153 197 q 193 92 153 92 q 251 125 218 92 q 313 207 283 158 q 362 309 342 256 q 382 403 382 363 z "},"":{"ha":1343,"x_min":-17,"x_max":1343,"o":"m 1186 -36 q 1168 -30 1175 -36 q 1161 -11 1161 -24 q 1167 6 1161 -4 q 1182 29 1174 15 q 1197 60 1190 43 q 1203 97 1203 76 q 1175 169 1203 142 q 1093 196 1147 196 q 929 163 1011 196 q 767 91 847 131 q 611 19 688 51 q 465 -14 535 -14 q 367 16 407 -14 q 319 104 326 46 q 260 44 292 69 q 197 4 232 22 q 122 -14 163 -14 q 69 -3 94 -14 q 24 26 43 7 q -6 72 6 46 q -17 131 -17 99 q 12 279 -17 206 q 86 412 40 353 q 189 507 132 471 q 303 543 246 543 q 374 533 344 543 q 421 510 403 522 q 454 478 442 494 q 487 474 469 478 q 519 463 504 471 q 543 443 533 456 q 553 413 553 431 q 540 363 553 397 q 513 285 528 328 q 485 198 497 243 q 472 118 472 153 q 483 90 472 101 q 511 79 493 79 q 590 101 546 79 q 687 156 635 124 q 797 228 739 189 q 914 299 854 267 q 1035 354 974 332 q 1154 376 1096 376 q 1292 328 1240 376 q 1343 204 1343 279 q 1321 109 1343 153 q 1271 33 1299 65 q 1218 -18 1243 0 q 1186 -36 1193 -36 m 382 403 q 367 448 382 433 q 332 463 353 463 q 269 431 301 463 q 212 352 238 399 q 169 251 186 306 q 153 154 153 197 q 193 92 153 92 q 251 125 218 92 q 313 207 283 158 q 362 309 342 256 q 382 403 382 363 m 374 736 q 392 693 374 711 q 435 675 410 675 q 476 693 460 675 q 493 736 493 711 q 476 778 493 761 q 435 794 460 794 q 392 778 410 794 q 374 736 374 761 m 290 736 q 332 839 290 797 q 435 881 374 881 q 538 839 496 881 q 579 736 579 797 q 538 633 579 675 q 435 592 496 592 q 332 633 374 592 q 290 736 290 675 z "},"":{"ha":1343,"x_min":-17,"x_max":1343,"o":"m 1186 -36 q 1168 -30 1175 -36 q 1161 -11 1161 -24 q 1167 6 1161 -4 q 1182 29 1174 15 q 1197 60 1190 43 q 1203 97 1203 76 q 1175 169 1203 142 q 1093 196 1147 196 q 929 163 1011 196 q 767 91 847 131 q 611 19 688 51 q 465 -14 535 -14 q 367 16 407 -14 q 319 104 326 46 q 260 44 292 69 q 197 4 232 22 q 122 -14 163 -14 q 69 -3 94 -14 q 24 26 43 7 q -6 72 6 46 q -17 131 -17 99 q 12 279 -17 206 q 86 412 40 353 q 189 507 132 471 q 303 543 246 543 q 374 533 344 543 q 421 510 403 522 q 454 478 442 494 q 487 474 469 478 q 519 463 504 471 q 543 443 533 456 q 553 413 553 431 q 540 363 553 397 q 513 285 528 328 q 485 198 497 243 q 472 118 472 153 q 483 90 472 101 q 511 79 493 79 q 590 101 546 79 q 687 156 635 124 q 797 228 739 189 q 914 299 854 267 q 1035 354 974 332 q 1154 376 1096 376 q 1292 328 1240 376 q 1343 204 1343 279 q 1321 109 1343 153 q 1271 33 1299 65 q 1218 -18 1243 0 q 1186 -36 1193 -36 m 382 403 q 367 448 382 433 q 332 463 353 463 q 269 431 301 463 q 212 352 238 399 q 169 251 186 306 q 153 154 153 197 q 193 92 153 92 q 251 125 218 92 q 313 207 283 158 q 362 309 342 256 q 382 403 382 363 m 519 586 q 463 594 494 586 q 397 611 431 601 q 333 628 364 621 q 276 636 301 636 q 226 622 250 636 q 192 608 203 608 q 179 613 185 608 q 174 626 174 618 q 178 642 174 633 q 189 658 183 651 q 212 686 197 671 q 243 714 226 701 q 278 735 260 726 q 315 744 297 744 q 370 736 340 744 q 431 718 400 728 q 491 700 461 708 q 547 692 521 692 q 578 697 564 692 q 606 708 593 701 q 628 719 618 714 q 643 724 638 724 q 656 720 650 724 q 661 710 661 717 q 658 696 661 703 q 653 683 656 689 q 596 617 629 649 q 519 586 563 586 z "},"":{"ha":1457,"x_min":-17,"x_max":1453,"o":"m 538 69 q 642 87 590 69 q 747 131 694 104 q 853 187 800 157 q 958 243 906 217 q 1064 287 1011 269 q 1169 304 1117 304 q 1260 285 1219 304 q 1333 235 1301 265 q 1387 168 1364 204 q 1424 98 1410 132 q 1446 37 1439 64 q 1453 -1 1453 10 q 1439 -14 1453 -14 q 1422 0 1433 -14 q 1390 33 1411 14 q 1332 72 1368 53 q 1244 103 1296 90 q 1122 117 1193 117 q 953 97 1029 117 q 803 51 876 76 q 657 6 731 26 q 496 -14 583 -14 q 423 -2 456 -14 q 367 27 390 10 q 332 65 344 44 q 319 104 319 86 q 260 44 292 69 q 197 4 232 22 q 122 -14 163 -14 q 69 -3 94 -14 q 24 26 43 7 q -6 72 6 46 q -17 131 -17 99 q 12 279 -17 206 q 86 412 40 353 q 189 507 132 471 q 303 543 246 543 q 374 533 344 543 q 421 510 403 522 q 454 478 442 494 q 487 474 469 478 q 519 463 504 471 q 543 443 533 456 q 553 413 553 431 q 540 363 553 397 q 513 287 528 328 q 485 204 497 246 q 472 133 472 163 q 538 69 472 69 m 382 403 q 367 448 382 433 q 332 463 353 463 q 269 431 301 463 q 212 352 238 399 q 169 251 186 306 q 153 154 153 197 q 193 92 153 92 q 251 125 218 92 q 313 207 283 158 q 362 309 342 256 q 382 403 382 363 z "},"":{"ha":1457,"x_min":-17,"x_max":1453,"o":"m 538 69 q 642 87 590 69 q 747 131 694 104 q 853 187 800 157 q 958 243 906 217 q 1064 287 1011 269 q 1169 304 1117 304 q 1260 285 1219 304 q 1333 235 1301 265 q 1387 168 1364 204 q 1424 98 1410 132 q 1446 37 1439 64 q 1453 -1 1453 10 q 1439 -14 1453 -14 q 1422 0 1433 -14 q 1390 33 1411 14 q 1332 72 1368 53 q 1244 103 1296 90 q 1122 117 1193 117 q 953 97 1029 117 q 803 51 876 76 q 657 6 731 26 q 496 -14 583 -14 q 423 -2 456 -14 q 367 27 390 10 q 332 65 344 44 q 319 104 319 86 q 260 44 292 69 q 197 4 232 22 q 122 -14 163 -14 q 69 -3 94 -14 q 24 26 43 7 q -6 72 6 46 q -17 131 -17 99 q 12 279 -17 206 q 86 412 40 353 q 189 507 132 471 q 303 543 246 543 q 374 533 344 543 q 421 510 403 522 q 454 478 442 494 q 487 474 469 478 q 519 463 504 471 q 543 443 533 456 q 553 413 553 431 q 540 363 553 397 q 513 287 528 328 q 485 204 497 246 q 472 133 472 163 q 538 69 472 69 m 382 403 q 367 448 382 433 q 332 463 353 463 q 269 431 301 463 q 212 352 238 399 q 169 251 186 306 q 153 154 153 197 q 193 92 153 92 q 251 125 218 92 q 313 207 283 158 q 362 309 342 256 q 382 403 382 363 m 533 818 q 553 808 542 818 q 577 784 565 799 q 597 753 589 769 q 604 726 604 738 q 598 698 604 710 q 571 668 592 686 q 520 635 549 649 q 463 612 492 621 q 410 598 435 603 q 368 593 385 593 q 350 599 357 593 q 343 614 343 606 q 347 628 343 622 q 365 640 351 633 q 433 699 397 660 q 500 790 468 739 q 515 811 508 804 q 533 818 522 818 z "}}}
